<?xml version="1.0" standalone="no"?>
<!DOCTYPE svg PUBLIC "-//W3C//DTD SVG 1.1//EN" "http://www.w3.org/Graphics/SVG/1.1/DTD/svg11.dtd" >
<svg xmlns="http://www.w3.org/2000/svg">
<metadata>
Created by FontPrep 20130207 at Mon Sep 29 20:08:26 2014
 By Coderbit
Copyright 1990-2001 Bitstream Inc. All rights reserved.
</metadata>
<defs>
<font id="8a12590ffea2d4262a81e18be518c9d1" horiz-adv-x='1024' >
  <font-face 
    font-family="BankGothicBT-Light"
    font-weight="400"
    font-stretch="semi-expanded"
    units-per-em="2048"
    panose-1="2 11 6 7 2 2 3 6 2 4"
    ascent="1556"
    descent="-492"
    x-height="868"
    cap-height="1057"
    bbox="-342 -483 2472 1653"
    underline-thickness="102"
    underline-position="-99"
    unicode-range="U+0020-F002"
  />
<missing-glyph horiz-adv-x="1229" 
d="M217 -248h795v1577h-795v-1577zM102 -362v1806h1024v-1806h-1024z" />
    <glyph glyph-name=".notdef" horiz-adv-x="1229" 
d="M217 -248h795v1577h-795v-1577zM102 -362v1806h1024v-1806h-1024z" />
    <glyph glyph-name=".null" horiz-adv-x="0" 
 />
    <glyph glyph-name="nonmarkingreturn" horiz-adv-x="766" 
 />
    <glyph glyph-name="space" unicode=" " horiz-adv-x="766" 
 />
    <glyph glyph-name="exclam" unicode="!" horiz-adv-x="840" 
d="M471 225q42 0 50.5 -10t8.5 -45v-117q0 -35 -7.5 -44t-51.5 -9h-123q-25 0 -33 9.5t-8 43.5v117q0 34 9.5 44.5t52.5 10.5h102zM360 430l-53 627h225l-55 -627h-117z" />
    <glyph glyph-name="quotedbl" unicode="&#x22;" horiz-adv-x="569" 
d="M199 1434v-553h-101v553h101zM473 1434v-553h-102v553h102z" />
    <glyph glyph-name="numbersign" unicode="#" horiz-adv-x="1575" 
d="M918 1454l-168 -483h264l172 483h127l-170 -483h315l-37 -107h-317l-98 -276h340l-37 -109h-340l-170 -479h-129l172 479h-269l-172 -479h-127l170 479h-327l39 109h325l101 276h-353l35 107h354l173 483h127zM975 864h-266l-97 -276h267z" />
    <glyph glyph-name="dollar" unicode="$" horiz-adv-x="1532" 
d="M1171 928h-305v-322h236q145 0 195.5 -52t50.5 -198v-106q0 -145 -51 -197.5t-195 -52.5h-236v-266h-123v266h-262q-139 0 -193.5 49.5t-54.5 171.5v45l173 35v-174h337v330h-223q-142 0 -195 53t-53 199v98q0 145 52 197.5t196 52.5h223v209h123v-209h217q136 0 192 -48
t56 -159v-47l-160 -39v164zM743 606v322h-309v-322h309zM866 127h320v330h-320v-330z" />
    <glyph glyph-name="percent" unicode="%" horiz-adv-x="1765" 
d="M150 780q0 130 90 220t222 90t224 -90.5t92 -219.5t-94.5 -223t-220.5 -94t-219.5 93.5t-93.5 223.5zM266 777q0 -81 59 -139t141 -58t139 57t57 139t-58 140.5t-140 58.5t-140 -58.5t-58 -139.5zM1382 1090l-893 -1123h-116l889 1123h120zM987 284q0 130 90.5 220
t222.5 90t224 -91t92 -219t-95 -222.5t-221 -94.5t-219.5 93.5t-93.5 223.5zM1104 281q0 -81 58 -139t140 -58t139.5 57t57.5 139t-58.5 139.5t-140.5 57.5t-139 -57.5t-57 -138.5z" />
    <glyph glyph-name="ampersand" unicode="&#x26;" horiz-adv-x="1581" 
d="M406 805v59q0 105 55 149t192 44h199q143 0 194.5 -46t51.5 -167v-56l-140 -26v166h-403v-154l512 -420l246 232l90 -86l-238 -226l336 -274h-219l-217 178l-119 -115q-40 -37 -75.5 -50t-110.5 -13h-346q-145 0 -196.5 53t-51.5 197v69q0 70 23 109.5t100 87.5l203 129
q-86 77 -86 160zM315 135h512l138 127l-379 303l-271 -192v-238z" />
    <glyph glyph-name="quotesingle" unicode="'" horiz-adv-x="295" 
d="M199 1434v-553h-101v553h101z" />
    <glyph glyph-name="parenleft" unicode="(" horiz-adv-x="758" 
d="M213 528q0 296 176 570h164q-195 -276 -195 -571t195 -568h-164q-176 273 -176 569z" />
    <glyph glyph-name="parenright" unicode=")" horiz-adv-x="758" 
d="M399 527q0 296 -194 571h164q176 -274 176 -570t-176 -569h-164q194 272 194 568z" />
    <glyph glyph-name="asterisk" unicode="*" 
d="M516 664l-151 -244l-101 80l197 202l-283 68l41 121l260 -123l-30 289h126l-28 -287l256 121l39 -121l-269 -65l193 -205l-109 -80z" />
    <glyph glyph-name="plus" unicode="+" horiz-adv-x="1706" 
d="M903 1221v-562h549v-98h-549v-561h-98v561h-551v98h551v562h98z" />
    <glyph glyph-name="comma" unicode="," horiz-adv-x="766" 
d="M434 225q44 0 53 -10.5t9 -44.5v-156l-144 -219h-90l121 225h-70q-25 0 -34 11.5t-9 44.5v94q0 35 9 45t53 10h102z" />
    <glyph glyph-name="hyphen" unicode="-" horiz-adv-x="676" 
d="M115 471v150h446v-150h-446z" />
    <glyph glyph-name="period" unicode="." horiz-adv-x="766" 
d="M434 225q43 0 52.5 -10.5t9.5 -44.5v-117q0 -34 -8.5 -43.5t-53.5 -9.5h-123q-24 0 -32.5 9.5t-8.5 43.5v117q0 34 9.5 44.5t52.5 10.5h102z" />
    <glyph glyph-name="slash" unicode="/" horiz-adv-x="717" 
d="M41 -33l530 1123h105l-535 -1123h-100z" />
    <glyph glyph-name="zero" unicode="0" horiz-adv-x="1532" 
d="M373 145h786v770h-786v-770zM203 807q0 145 47.5 197.5t179.5 52.5h672q131 0 179 -52.5t48 -197.5v-557q0 -145 -48 -197.5t-179 -52.5h-672q-132 0 -179.5 52t-47.5 198v557z" />
    <glyph glyph-name="one" unicode="1" horiz-adv-x="1532" 
d="M719 0v891h-230v106l392 68v-1065h-162z" />
    <glyph glyph-name="two" unicode="2" horiz-adv-x="1532" 
d="M311 850q0 119 46.5 163t181.5 44h510q134 0 180.5 -44t46.5 -163v-66q0 -78 -25 -121t-106 -94l-684 -424h694v201l168 -55v-84q0 -119 -47 -163t-182 -44h-832v66q0 73 28.5 111.5t94.5 80.5l717 451v206h-623v-247l-168 45v137z" />
    <glyph glyph-name="three" unicode="3" horiz-adv-x="1532" 
d="M487 0q-134 0 -180.5 43.5t-46.5 163.5v86l168 39v-187h610q58 0 76.5 18.5t18.5 76.5v141q0 59 -19 77.5t-76 18.5h-374v135h335q57 0 76 23t19 98v62q0 74 -19 97t-76 23h-565v-163l-160 32v66q0 119 46.5 163t181.5 44h536q135 0 181.5 -44t46.5 -163v-96
q0 -91 -36.5 -136t-123.5 -65q106 -16 152.5 -66.5t46.5 -148.5v-111q0 -130 -53.5 -178.5t-188.5 -48.5h-576z" />
    <glyph glyph-name="four" unicode="4" horiz-adv-x="1532" 
d="M999 0v252h-800v131l762 686h200v-686h242v-131h-242v-252h-162zM999 383v559l-614 -559h614z" />
    <glyph glyph-name="five" unicode="5" horiz-adv-x="1532" 
d="M1182 344q0 112 -88 163.5t-305 51.5t-498 -65l55 563h856l-12 -142h-711l-37 -256q193 43 392 43q270 0 400 -88.5t130 -275.5t-133 -270.5t-438 -83.5q-191 0 -453 49l-51 170q288 -68 507 -68t302.5 48.5t83.5 160.5z" />
    <glyph glyph-name="six" unicode="6" horiz-adv-x="1532" 
d="M900 674q241 0 332 -59.5t91 -213.5v-143q0 -133 -82.5 -195.5t-257.5 -62.5h-420q-187 0 -256 69.5t-69 256.5v139q0 295 191 456.5t540 161.5q36 0 71 -4l108 -139q-22 2 -65 2q-311 0 -472.5 -77t-184.5 -236q233 45 474 45zM403 434q0 -212 34.5 -252.5t189.5 -40.5
h321q122 0 163.5 34t41.5 130v68q0 96 -52 130t-192 34q-271 0 -499 -39q-7 -47 -7 -64z" />
    <glyph glyph-name="seven" unicode="7" horiz-adv-x="1532" 
d="M412 915v-247l-158 30v359h1102v-137l-582 -938h-205l613 933h-770z" />
    <glyph glyph-name="eight" unicode="8" horiz-adv-x="1532" 
d="M377 367v-115q0 -65 21.5 -87t84.5 -22h566q63 0 84.5 22t21.5 87v115q0 65 -21.5 86.5t-84.5 21.5h-566q-62 0 -84 -22t-22 -86zM397 805v-82q0 -68 22 -89.5t85 -21.5h524q64 0 85.5 22t21.5 89v82q0 68 -22 89t-85 21h-524q-61 0 -84 -21.5t-23 -88.5zM449 0
q-136 0 -189 48.5t-53 178.5v111q0 96 45.5 146t146.5 65q-88 12 -129 61t-41 144v96q0 119 46.5 163t181.5 44h618q135 0 181.5 -44t46.5 -163v-96q0 -94 -41.5 -143.5t-131.5 -61.5q103 -15 149 -65t46 -146v-111q0 -129 -53.5 -178t-190.5 -49h-632z" />
    <glyph glyph-name="nine" unicode="9" horiz-adv-x="1532" 
d="M1126 625q0 213 -33 251.5t-188 38.5h-321q-123 0 -165 -33.5t-42 -129.5v-68q0 -96 52 -130t192 -34q271 0 499 39q6 38 6 66zM632 383q-241 0 -332 60t-91 214v142q0 132 82.5 195t257.5 63h418q188 0 257.5 -69.5t69.5 -256.5v-139q0 -295 -191 -456t-540 -161
q-52 0 -72 3l-108 141q16 -4 63 -4q312 0 474.5 77t185.5 236q-233 -45 -474 -45z" />
    <glyph glyph-name="colon" unicode=":" horiz-adv-x="766" 
d="M434 225q43 0 52.5 -10.5t9.5 -44.5v-117q0 -34 -8.5 -43.5t-53.5 -9.5h-123q-24 0 -32.5 9.5t-8.5 43.5v117q0 34 9.5 44.5t52.5 10.5h102zM434 868q43 0 52.5 -10.5t9.5 -44.5v-117q0 -34 -8.5 -43.5t-53.5 -9.5h-123q-24 0 -32.5 9.5t-8.5 43.5v117q0 34 9.5 44.5
t52.5 10.5h102z" />
    <glyph glyph-name="semicolon" unicode=";" horiz-adv-x="766" 
d="M434 868q43 0 52.5 -10.5t9.5 -44.5v-117q0 -34 -8.5 -43.5t-53.5 -9.5h-123q-24 0 -32.5 9.5t-8.5 43.5v117q0 34 9.5 44.5t52.5 10.5h102zM434 225q44 0 53 -10.5t9 -44.5v-156l-144 -219h-90l121 225h-70q-25 0 -34 11.5t-9 44.5v94q0 35 9 45t53 10h102z" />
    <glyph glyph-name="less" unicode="&#x3c;" horiz-adv-x="1706" 
d="M1442 1026l-1022 -416l1022 -413v-109l-1178 481v82l1178 484v-109z" />
    <glyph glyph-name="equal" unicode="=" horiz-adv-x="1706" 
d="M1452 846v-98h-1198v98h1198zM1452 473v-98h-1198v98h1198z" />
    <glyph glyph-name="greater" unicode="&#x3e;" horiz-adv-x="1706" 
d="M1442 651v-82l-1178 -481v109l1022 413l-1022 416v109z" />
    <glyph glyph-name="question" unicode="?" horiz-adv-x="1327" 
d="M682 225q43 0 52 -10.5t9 -44.5v-117q0 -34 -8 -43.5t-53 -9.5h-123q-25 0 -33 9.5t-8 43.5v117q0 34 9.5 44.5t52.5 10.5h102zM831 1057q238 0 238 -197v-184l-369 -189v-59h-133v147l353 177v170h-543v-166l-146 26v58q0 217 209 217h391z" />
    <glyph glyph-name="at" unicode="@" horiz-adv-x="2048" 
d="M1057 915q-154 0 -254.5 -133.5t-100.5 -337.5q0 -111 55 -173t157 -62t184.5 71.5t111.5 188.5l62 248q-18 93 -75.5 145.5t-139.5 52.5zM1042 999q192 0 256 -163l60 125h94l-139 -562q-17 -75 -17 -105t28.5 -54.5t79.5 -24.5q108 -1 207 79q100 80 154 207.5
t54 282.5q0 254 -198 417t-528 163t-563 -199q-297 -255 -297 -653q0 -338 244 -537q102 -82 244 -128t301 -46q354 0 635 193l39 -55q-294 -222 -665 -222t-611 185q-303 231 -303 641q0 411 338 690q268 221 659 221q340 0 570 -178q116 -90 181.5 -218.5t65.5 -289.5
t-62 -299.5t-181 -232.5q-144 -111 -310 -111q-192 0 -192 151q0 4 1 14t1 15q-106 -180 -295 -180q-153 0 -233 83.5t-80 244.5q0 230 135 388t327 158z" />
    <glyph glyph-name="A" unicode="A" horiz-adv-x="1489" 
d="M68 0l577 1057h189l587 -1057h-194l-135 260h-715l-135 -260h-174zM451 395h569l-285 541z" />
    <glyph glyph-name="B" unicode="B" horiz-adv-x="1569" 
d="M1356 207q0 -207 -293 -207h-789v1057h852q119 0 171.5 -48.5t52.5 -156.5v-123q0 -85 -42.5 -127t-133.5 -53q182 -22 182 -207v-135zM1169 717v106q0 52 -22.5 72t-85.5 20h-610v-292h610q61 0 84.5 21t23.5 73zM1178 270v88q0 72 -25.5 99.5t-91.5 27.5h-610v-340h610
q67 0 92 27t25 98z" />
    <glyph glyph-name="C" unicode="C" horiz-adv-x="1536" 
d="M1169 913h-733v-766h733v265l177 -37v-125q0 -146 -51 -198t-195 -52h-592q-144 0 -196 52.5t-52 197.5v557q0 145 52 197.5t196 52.5h592q144 0 195 -52t51 -198v-100l-177 -33v239z" />
    <glyph glyph-name="D" unicode="D" horiz-adv-x="1655" 
d="M856 1057q278 0 406 -82q102 -67 160.5 -184t58.5 -261t-78 -304t-239 -193t-308 -33h-582v1057h582zM831 913h-380v-766h380q257 0 363 90.5t106 294.5t-108 292.5t-361 88.5z" />
    <glyph glyph-name="E" unicode="E" horiz-adv-x="1446" 
d="M274 0v1057h1018v-142h-841v-294h514v-140h-514v-336h849v-145h-1026z" />
    <glyph glyph-name="F" unicode="F" horiz-adv-x="1305" 
d="M274 0v1057h1006v-144h-829v-346h473v-141h-473v-426h-177z" />
    <glyph glyph-name="G" unicode="G" horiz-adv-x="1673" 
d="M1264 913h-828v-766h828v310h-428v135h604v-342q0 -145 -52 -197.5t-196 -52.5h-684q-145 0 -196.5 53t-51.5 197v557q0 144 51.5 197t196.5 53h684q142 0 195 -51.5t53 -186.5v-26l-176 -35v155z" />
    <glyph glyph-name="H" unicode="H" horiz-adv-x="1735" 
d="M274 0v1057h177v-432h833v432h176v-1057h-176v479h-833v-479h-177z" />
    <glyph glyph-name="I" unicode="I" horiz-adv-x="725" 
d="M274 0v1057h177v-1057h-177z" />
    <glyph glyph-name="J" unicode="J" horiz-adv-x="1384" 
d="M453 0q-144 0 -195 52t-51 198v211l174 37v-351h567v910h176v-807q0 -145 -51.5 -197.5t-195.5 -52.5h-424z" />
    <glyph glyph-name="K" unicode="K" horiz-adv-x="1493" 
d="M274 0v1057h177v-453l659 453h258l-766 -506l850 -551h-295l-706 475v-475h-177z" />
    <glyph glyph-name="L" unicode="L" horiz-adv-x="1337" 
d="M274 0v1057h177v-910h800v-147h-977z" />
    <glyph glyph-name="M" unicode="M" horiz-adv-x="1849" 
d="M424 713v-713h-150v1057h144l514 -688l479 688h162v-1057h-162v713q0 14 3.5 70.5t4.5 84.5q-39 -80 -63 -114l-404 -588h-45l-420 572q-1 2 -26 36t-45 94q8 -62 8 -155z" />
    <glyph glyph-name="N" unicode="N" horiz-adv-x="1716" 
d="M436 623v-623h-162v1057h111l791 -707q53 -47 120 -133q-16 102 -16 260v580h162v-1057h-99l-812 735q-72 60 -107 119q12 -96 12 -231z" />
    <glyph glyph-name="O" unicode="O" horiz-adv-x="1747" 
d="M260 807q0 144 51.5 197t196.5 53h731q143 0 194.5 -52.5t51.5 -197.5v-557q0 -146 -51.5 -198t-194.5 -52h-731q-145 0 -196.5 53t-51.5 197v557zM436 147h875v766h-875v-766z" />
    <glyph glyph-name="P" unicode="P" horiz-adv-x="1507" 
d="M274 0v1057h852q119 0 171.5 -48.5t52.5 -156.5v-236q0 -107 -52.5 -155.5t-171.5 -48.5h-675v-412h-177zM1057 920h-606v-369h606q65 0 89.5 25t24.5 86v147q0 61 -24.5 86t-89.5 25z" />
    <glyph glyph-name="Q" unicode="Q" horiz-adv-x="1747" 
d="M260 807q0 144 51.5 197t196.5 53h731q143 0 194.5 -52.5t51.5 -197.5v-557q0 -146 -51.5 -198t-194.5 -52h-121l125 -258h-168l-112 258h-455q-145 0 -196.5 53t-51.5 197v557zM1311 147v766h-875v-766h459l-109 244l119 47l144 -291h262z" />
    <glyph glyph-name="R" unicode="R" horiz-adv-x="1561" 
d="M274 0v1057h852q119 0 171.5 -48.5t52.5 -156.5v-236q0 -107 -52.5 -155.5t-171.5 -48.5h-155l483 -412h-262l-430 412h-311v-412h-177zM1057 920h-606v-371h606q66 0 90 24t24 84v154q0 60 -24.5 84.5t-89.5 24.5z" />
    <glyph glyph-name="S" unicode="S" horiz-adv-x="1599" 
d="M1176 913h-748v-295h666q141 0 193 -52t52 -197v-119q0 -146 -51 -198t-194 -52h-617q-144 0 -196 52.5t-52 197.5v29l164 38v-170h787v318h-664q-144 0 -195 52.5t-51 197.5v92q0 145 51 197.5t195 52.5h563q141 0 194.5 -51.5t53.5 -180.5v-22l-151 -43v153z" />
    <glyph glyph-name="T" unicode="T" horiz-adv-x="1192" 
d="M684 913v-913h-176v913h-483v144h1144v-144h-485z" />
    <glyph glyph-name="U" unicode="U" horiz-adv-x="1671" 
d="M451 1057v-910h770v910h174v-807q0 -146 -51.5 -198t-194.5 -52h-627q-144 0 -196 53t-52 197v807h177z" />
    <glyph glyph-name="V" unicode="V" horiz-adv-x="1413" 
d="M645 0l-577 1057h190l467 -881l446 881h175l-553 -1057h-148z" />
    <glyph glyph-name="W" unicode="W" horiz-adv-x="1763" 
d="M449 0l-383 1057h178l286 -840l312 840h108l301 -840l289 840h158l-383 -1057h-131l-293 799l-303 -799h-139z" />
    <glyph glyph-name="X" unicode="X" horiz-adv-x="1460" 
d="M123 0l512 545l-520 512h254l370 -400l348 400h220l-465 -496l567 -561h-254l-420 451l-389 -451h-223z" />
    <glyph glyph-name="Y" unicode="Y" horiz-adv-x="1374" 
d="M602 0v461l-536 596h219l413 -471l396 471h215l-531 -592v-465h-176z" />
    <glyph glyph-name="Z" unicode="Z" horiz-adv-x="1395" 
d="M135 0v72l783 841h-715v144h997v-60l-797 -850h797v-147h-1065z" />
    <glyph glyph-name="bracketleft" unicode="[" horiz-adv-x="758" 
d="M629 -33h-402v1123h402v-113h-256v-897h256v-113z" />
    <glyph glyph-name="backslash" unicode="\" horiz-adv-x="717" 
d="M143 1090l533 -1123h-103l-532 1123h102z" />
    <glyph glyph-name="bracketright" unicode="]" horiz-adv-x="758" 
d="M131 -33v113h254v897h-254v113h399v-1123h-399z" />
    <glyph glyph-name="asciicircum" unicode="^" horiz-adv-x="2048" 
d="M1094 1458l530 -557h-143l-457 455l-459 -455h-143l532 557h140z" />
    <glyph glyph-name="underscore" unicode="_" 
d="M1024 -383v-100h-1024v100h1024z" />
    <glyph glyph-name="grave" unicode="`" 
d="M649 979h-106l-281 348h178z" />
    <glyph glyph-name="a" unicode="a" horiz-adv-x="1284" 
d="M403 328h461l-231 413zM59 0l502 868h150l514 -868h-178l-113 203h-600l-111 -203h-164z" />
    <glyph glyph-name="b" unicode="b" horiz-adv-x="1294" 
d="M1130 170q0 -170 -251 -170h-678v868h733q100 0 145 -40.5t45 -129.5v-100q0 -69 -36 -104.5t-115 -44.5q157 -16 157 -168v-111zM961 588v82q0 40 -20 55.5t-73 15.5h-503v-223h503q57 0 75 15t18 55zM365 391v-264h503q56 0 77.5 21.5t21.5 76.5v68q0 54 -22 76t-77 22
h-503z" />
    <glyph glyph-name="c" unicode="c" horiz-adv-x="1262" 
d="M950 739h-606v-608h606v207l164 -31v-102q0 -119 -44.5 -162t-168.5 -43h-510q-124 0 -167.5 41.5t-43.5 163.5v457q0 121 44 163.5t167 42.5h510q124 0 168.5 -43.5t44.5 -162.5v-82l-164 -27v186z" />
    <glyph glyph-name="d" unicode="d" horiz-adv-x="1493" 
d="M1305 436q0 -436 -537 -436h-500v868h500q240 0 338 -62q99 -62 149 -158t50 -212zM750 739h-318v-608h318q212 0 301.5 71.5t89.5 233.5t-90.5 232.5t-300.5 70.5z" />
    <glyph glyph-name="e" unicode="e" horiz-adv-x="1190" 
d="M201 0v868h874v-129h-710v-223h428v-129h-428v-260h718v-127h-882z" />
    <glyph glyph-name="f" unicode="f" horiz-adv-x="1112" 
d="M201 0v868h864v-129h-700v-268h395v-127h-395v-344h-164z" />
    <glyph glyph-name="g" unicode="g" horiz-adv-x="1356" 
d="M1030 739h-686v-608h686v236h-354v118h518v-280q0 -119 -44.5 -162t-168.5 -43h-588q-124 0 -168.5 42.5t-44.5 162.5v457q0 119 45 162.5t168 43.5h588q121 0 167 -43t46 -151v-25l-164 -28v118z" />
    <glyph glyph-name="h" unicode="h" horiz-adv-x="1421" 
d="M201 0v866h164v-348h692v348h164v-866h-164v387h-692v-387h-164z" />
    <glyph glyph-name="i" unicode="i" horiz-adv-x="557" 
d="M360 0h-163v866h163v-866z" />
    <glyph glyph-name="j" unicode="j" horiz-adv-x="1143" 
d="M365 0q-125 0 -169 43t-44 162v168l163 33v-275h461v737h164v-663q0 -119 -44.5 -162t-168.5 -43h-362z" />
    <glyph glyph-name="k" unicode="k" horiz-adv-x="1237" 
d="M201 0v868h164v-372l548 372h228l-641 -419l712 -449h-268l-579 389v-389h-164z" />
    <glyph glyph-name="l" unicode="l" horiz-adv-x="1096" 
d="M201 0v868h164v-737h675v-131h-839z" />
    <glyph glyph-name="m" unicode="m" horiz-adv-x="1520" 
d="M336 0h-135v868h135l432 -563l397 563h152v-868h-152v586q0 64 10 120q-29 -86 -57 -120l-334 -449h-43l-346 445q-38 49 -63 125l4 -121v-586z" />
    <glyph glyph-name="n" unicode="n" horiz-adv-x="1405" 
d="M352 539v-539h-151v868h125l637 -567q56 -48 104 -119q-14 78 -14 162v524h151v-868h-112l-650 575q-66 62 -102 119q12 -76 12 -155z" />
    <glyph glyph-name="o" unicode="o" horiz-adv-x="1413" 
d="M180 662q0 119 45 162.5t168 43.5h627q123 0 168 -43.5t45 -162.5v-457q0 -119 -44.5 -162t-168.5 -43h-627q-125 0 -169 42.5t-44 162.5v457zM344 131h725v608h-725v-608z" />
    <glyph glyph-name="p" unicode="p" horiz-adv-x="1241" 
d="M201 0v868h733q101 0 145.5 -39t44.5 -129v-194q0 -88 -44.5 -127t-145.5 -39h-569v-340h-164zM860 741h-495v-274h495q55 0 76.5 18.5t21.5 63.5v110q0 45 -21 63.5t-77 18.5z" />
    <glyph glyph-name="q" unicode="q" horiz-adv-x="1413" 
d="M180 662q0 119 45 162.5t168 43.5h627q123 0 168 -43.5t45 -162.5v-457q0 -119 -44.5 -162t-168.5 -43h-86l123 -258h-146l-112 258h-406q-125 0 -169 42.5t-44 162.5v457zM1069 131v608h-725v-608h397l-108 244l102 43l137 -287h197z" />
    <glyph glyph-name="r" unicode="r" horiz-adv-x="1255" 
d="M201 0v868h698q97 0 139.5 -39.5t42.5 -128.5v-194q0 -88 -42.5 -127t-139.5 -39h-115l383 -340h-219l-346 340h-237v-340h-164zM827 741h-462v-280h462q55 0 74 18t19 70v104q0 48 -20 68t-73 20z" />
    <glyph glyph-name="s" unicode="s" horiz-adv-x="1305" 
d="M967 739h-609v-225h557q122 0 166.5 -42.5t44.5 -162.5v-104q0 -120 -43.5 -162.5t-167.5 -42.5h-528q-124 0 -168.5 42.5t-44.5 162.5v24l150 31v-129h655v244h-559q-123 0 -167 42.5t-44 162.5v82q0 119 44 162.5t167 43.5h483q121 0 167 -42t46 -148v-21l-149 -32v114
z" />
    <glyph glyph-name="t" unicode="t" horiz-adv-x="1075" 
d="M618 739v-739h-163v739h-410v129h985v-129h-412z" />
    <glyph glyph-name="u" unicode="u" horiz-adv-x="1366" 
d="M365 868v-737h634v737h166v-663q0 -120 -44.5 -162.5t-168.5 -42.5h-538q-124 0 -168.5 43t-44.5 162v663h164z" />
    <glyph glyph-name="v" unicode="v" horiz-adv-x="1190" 
d="M545 0l-500 868h176l389 -698l373 698h162l-475 -868h-125z" />
    <glyph glyph-name="w" unicode="w" horiz-adv-x="1507" 
d="M383 0l-336 868h170l240 -663l256 663h108l250 -663l240 663h147l-332 -868h-120l-244 647l-256 -647h-123z" />
    <glyph glyph-name="x" unicode="x" horiz-adv-x="1214" 
d="M68 0l436 444l-443 424h222l313 -315l287 315h202l-399 -403l488 -465h-230l-350 352l-315 -352h-211z" />
    <glyph glyph-name="y" unicode="y" horiz-adv-x="1155" 
d="M496 0v379l-453 489h199l346 -376l330 376h192l-451 -489v-379h-163z" />
    <glyph glyph-name="z" unicode="z" horiz-adv-x="1264" 
d="M147 0v78l656 661h-596v129h856v-69l-662 -668h662v-131h-916z" />
    <glyph glyph-name="braceleft" unicode="{" 
d="M471 864v242q0 223 70 297t266 74h47v-107h-37q-131 0 -177 -49.5t-46 -204.5v-242q0 -168 -43.5 -240t-153.5 -104q110 -31 153.5 -103t43.5 -241v-241q0 -155 45 -204.5t170 -49.5l45 2v-107h-47q-197 0 -266.5 72.5t-69.5 296.5v244q0 154 -57 217t-195 63l-45 -2v109
l45 -2q138 0 195 63t57 217z" />
    <glyph glyph-name="bar" unicode="|" 
d="M567 1565v-2048h-108v2048h108z" />
    <glyph glyph-name="braceright" unicode="}" 
d="M172 1477h47q196 0 266 -74t70 -297v-242q0 -154 57 -217t195 -63l45 2v-109l-45 2q-138 0 -195 -63t-57 -217v-244q0 -223 -69.5 -296t-266.5 -73h-47v107h39q130 0 175.5 49t45.5 203v241q0 171 43 242t154 102q-111 32 -154 103t-43 241v242q0 157 -45 206.5
t-170 49.5l-45 -2v107z" />
    <glyph glyph-name="asciitilde" unicode="~" horiz-adv-x="1706" 
d="M565 631q-158 0 -387 -160v113q211 145 387 145q110 1 295 -69t283 -70q162 0 387 160v-113q-203 -143 -387 -143q-110 0 -296 68q-185 68 -282 69z" />
    <glyph glyph-name="Euro" horiz-adv-x="1532" 
d="M1346 248q0 -146 -50 -197t-194 -51h-596q-144 0 -195 51.5t-51 196.5v131h-149l47 98h102v137h-149l49 101h100v94q0 145 51 196.5t195 51.5h596q144 0 194 -51t50 -197v-49l-170 -31v186h-748v-200h651l-49 -101h-602v-137h537l-47 -98h-490v-234h748v195l170 -35v-57z
" />
    <glyph glyph-name="Euro" unicode="&#x20ac;" horiz-adv-x="1532" 
d="M1346 248q0 -146 -50 -197t-194 -51h-596q-144 0 -195 51.5t-51 196.5v131h-149l47 98h102v137h-149l49 101h100v94q0 145 51 196.5t195 51.5h596q144 0 194 -51t50 -197v-49l-170 -31v186h-748v-200h651l-49 -101h-602v-137h537l-47 -98h-490v-234h748v195l170 -35v-57z
" />
    <glyph glyph-name="nonbreakingspace" unicode="&#xa0;" horiz-adv-x="1532" 
 />
    <glyph glyph-name="exclamdown" unicode="&#xa1;" horiz-adv-x="840" 
d="M471 831h-125q-23 0 -31 11t-8 45v117q0 34 8.5 43.5t53.5 9.5h102q44 0 51.5 -9.5t7.5 -43.5v-117q0 -35 -8.5 -45.5t-50.5 -10.5zM360 627h117l55 -627h-225z" />
    <glyph glyph-name="cent" unicode="&#xa2;" horiz-adv-x="1532" 
d="M565 0q-82 0 -115.5 36t-33.5 130v381q0 96 37.5 129t144.5 33h256l53 168h99l-54 -168h33q92 0 126 -30.5t34 -121.5v-92l-135 -23v142h-97l-147 -459h244v170l135 -33v-133q0 -71 -34.5 -100t-121.5 -29h-262l-68 -207h-98l66 207h-62zM563 584v-459h105l145 459h-250z
" />
    <glyph glyph-name="sterling" unicode="&#xa3;" horiz-adv-x="1532" 
d="M1075 -16q-232 0 -590 110q-53 -64 -111 -91.5t-141 -27.5h-18v148q122 13 169.5 71t47.5 195q0 34 -6 96h-211v121h201q-8 90 -8 156q0 155 72 225t235 70h338q128 0 196 -52.5t68 -152.5v-96l-162 -39v78q0 67 -29.5 93.5t-107.5 26.5h-281q-96 0 -131 -35.5
t-35 -121.5t7 -152h292v-121h-278l-2 -49q0 -100 -35 -209q310 -100 535 -100q86 0 119.5 36.5t33.5 129.5v41l150 -29v-61q0 -260 -318 -260z" />
    <glyph glyph-name="currency" unicode="&#xa4;" horiz-adv-x="1532" 
d="M1346 248q0 -146 -50 -197t-194 -51h-596q-144 0 -195 51.5t-51 196.5v131h-149l47 98h102v137h-149l49 101h100v94q0 145 51 196.5t195 51.5h596q144 0 194 -51t50 -197v-49l-170 -31v186h-748v-200h651l-49 -101h-602v-137h537l-47 -98h-490v-234h748v195l170 -35v-57z
" />
    <glyph glyph-name="yen" unicode="&#xa5;" horiz-adv-x="1532" 
d="M688 0v367h-493v98h493l-153 170h-340v100h251l-282 322h207l405 -475l389 475h203l-281 -322h248v-100h-336l-151 -170h487v-98h-487v-367h-160z" />
    <glyph glyph-name="brokenbar" unicode="&#xa6;" 
d="M567 1432v-758h-108v758h108zM567 408v-758h-108v758h108z" />
    <glyph glyph-name="section" unicode="&#xa7;" 
d="M522 -78q70 0 116 36t46 89q0 93 -169 157q-223 88 -289 153t-66 151q0 150 182 184q-109 72 -109 176t75 165t179 61q197 0 324 -121l-86 -84q-98 104 -223 104q-67 0 -105.5 -31t-38.5 -85q0 -73 232 -171q169 -75 225.5 -132.5t56.5 -133.5t-50.5 -126t-139.5 -68
q55 -29 87 -81.5t32 -115.5q0 -100 -80.5 -165.5t-188.5 -65.5q-211 0 -354 139l86 88q133 -123 258 -123zM266 546q0 -72 125 -145q71 -42 148.5 -68t123.5 -26t74.5 23.5t28.5 59.5q0 71 -150 156t-254 85q-43 0 -69.5 -23.5t-26.5 -61.5z" />
    <glyph glyph-name="dieresis" unicode="&#xa8;" 
d="M272 1042v189h160v-189h-160zM592 1042v189h160v-189h-160z" />
    <glyph glyph-name="copyright" unicode="&#xa9;" horiz-adv-x="1706" 
d="M1585 723q0 -307 -211 -514q-107 -106 -242 -162.5t-358 -56.5t-438 215t-215 516t213 518t519 217t519 -213t213 -520zM1505 722q0 274 -190 464t-462 190t-462 -193t-190 -459t192 -460q194 -192 461 -192t459 188t192 462zM856 1083q-122 0 -190 -95t-68 -264t69 -263
t189 -94q89 0 151 50.5t78 137.5h115q-11 -125 -108.5 -205t-257.5 -80t-262.5 122t-102.5 330t107.5 331t283.5 123q135 0 226.5 -72t103.5 -189h-117q-18 80 -75 124t-142 44z" />
    <glyph glyph-name="ordfeminine" unicode="&#xaa;" horiz-adv-x="848" 
d="M266 618h305l-153 248zM39 422l332 520h98l340 -520h-119l-74 121h-395l-74 -121h-108z" />
    <glyph glyph-name="guillemotleft" unicode="&#xab;" horiz-adv-x="1067" 
d="M940 131h-143l-244 303l244 301h143l-233 -301zM508 131h-143l-242 303l242 301h143l-234 -301z" />
    <glyph glyph-name="logicalnot" unicode="&#xac;" horiz-adv-x="1706" 
d="M1452 858v-502h-96v402h-1102v100h1198z" />
    <glyph glyph-name="sfthyphen" unicode="&#xad;" horiz-adv-x="676" 
d="M115 471v150h446v-150h-446z" />
    <glyph glyph-name="registered" unicode="&#xae;" horiz-adv-x="1706" 
d="M340 1245q207 211 515 211t519 -213t211 -520t-211 -514q-221 -219 -523 -219t-515 217q-215 213 -215 516q0 144 56.5 279.5t162.5 242.5zM1319 1184q-194 192 -464 192t-458 -188q-196 -200 -196 -465t192 -459q194 -192 461 -192t459 188t192 462t-186 462zM874 1157
q178 0 263.5 -57t85.5 -176q0 -89 -54 -149t-145 -73l188 -389h-145l-178 371h-197v-371h-127v844h309zM850 1071h-158v-303h158q134 0 188 33t54 115t-57 118.5t-185 36.5z" />
    <glyph glyph-name="macron" unicode="&#xaf;" 
d="M254 1073v125h516v-125h-516z" />
    <glyph glyph-name="degree" unicode="&#xb0;" horiz-adv-x="674" 
d="M338 1452q116 0 196 -81.5t80 -196.5t-81.5 -197t-197.5 -82t-196 81.5t-80 197.5t81.5 197t197.5 81zM545 1174q0 86 -60.5 147t-146.5 61t-147.5 -61t-61.5 -147t61 -146.5t148 -60.5t147 60.5t60 146.5z" />
    <glyph glyph-name="plusminus" unicode="&#xb1;" horiz-adv-x="1706" 
d="M903 1169v-348h549v-98h-549v-348h-98v348h-551v98h551v348h98zM1452 150v-99h-1198v99h1198z" />
    <glyph glyph-name="twosuperior" unicode="&#xb2;" horiz-adv-x="1012" 
d="M205 932q0 72 31 98.5t120 26.5h336q88 0 119 -26.5t31 -98.5v-39q0 -48 -16.5 -73.5t-69.5 -55.5l-451 -254h457v119l110 -33v-49q0 -72 -30.5 -98.5t-120.5 -26.5h-549v39q0 43 19 66.5t63 50.5l473 270v123h-412v-148l-110 27v82z" />
    <glyph glyph-name="threesuperior" unicode="&#xb3;" horiz-adv-x="1012" 
d="M322 422q-90 0 -120 26t-30 99v51l111 23v-111h403q38 0 50 10.5t12 44.5v86q0 35 -12.5 46.5t-49.5 11.5h-248v79h221q37 0 49.5 14t12.5 60v37q0 44 -12 58t-50 14h-372v-99l-107 21v39q0 72 31.5 98.5t120.5 26.5h354q88 0 119 -27t31 -98v-58q0 -54 -24 -81t-82 -39
q69 -10 99.5 -40t30.5 -89v-66q0 -78 -34.5 -107.5t-123.5 -29.5h-380z" />
    <glyph glyph-name="acute" unicode="&#xb4;" 
d="M375 979l209 348h178l-281 -348h-106z" />
    <glyph glyph-name="mu" unicode="&#xb5;" horiz-adv-x="1110" 
d="M412 -25q-189 0 -269 156l-114 -557h-140l316 1491h139l-125 -592q-16 -78 -16 -139q0 -117 58 -180.5t175 -63.5t207 107.5t133 310.5l121 557h139l-164 -770q-22 -101 -22 -133q0 -66 68 -66q16 0 36 2l-20 -110q-42 -11 -86 -11q-137 0 -137 146v14
q-42 -77 -120 -119.5t-179 -42.5z" />
    <glyph glyph-name="paragraph" unicode="&#xb6;" 
d="M940 1409h-127v-1409h-82v1409h-186v-1409h-84v782q-174 8 -275.5 102.5t-101.5 248.5t107.5 250t285.5 96h463v-70z" />
    <glyph glyph-name="glyph122" unicode="&#xb7;" horiz-adv-x="766" 
d="M264 530q0 49 34 83t84 34t84 -33.5t34 -83.5t-35 -85t-83 -35t-83 35.5t-35 84.5z" />
    <glyph glyph-name="cedilla" unicode="&#xb8;" 
d="M666 -289q0 99 -113 99q-50 0 -78 -2v192h74v-106h22q226 0 226 -177q0 -182 -246 -182q-87 0 -252 43v86q156 -35 246 -35q121 0 121 82z" />
    <glyph glyph-name="onesuperior" unicode="&#xb9;" horiz-adv-x="1010" 
d="M473 422v534h-151v64l258 41v-639h-107z" />
    <glyph glyph-name="ordmasculine" unicode="&#xba;" horiz-adv-x="932" 
d="M119 819q0 72 29.5 97.5t111.5 25.5h414q80 0 109.5 -25.5t29.5 -97.5v-274q0 -71 -29 -97t-110 -26h-414q-83 0 -112 25.5t-29 97.5v274zM227 500h480v366h-480v-366z" />
    <glyph glyph-name="guillemotright" unicode="&#xbb;" horiz-adv-x="1067" 
d="M127 131l233 303l-233 301h143l242 -301l-242 -303h-143zM557 131l234 303l-234 301h145l242 -301l-242 -303h-145z" />
    <glyph glyph-name="onequarter" unicode="&#xbc;" horiz-adv-x="2271" 
d="M451 465v500h-144v59l246 37v-596h-102zM1647 1090l-920 -1123h-104l919 1123h105zM1935 0v141h-503v74l479 383h127v-383h153v-74h-153v-141h-103zM1935 215v313l-387 -313h387z" />
    <glyph glyph-name="onehalf" unicode="&#xbd;" horiz-adv-x="2271" 
d="M451 465v500h-144v59l246 37v-596h-102zM1647 1090l-920 -1123h-104l919 1123h105zM1503 475q0 68 29.5 92.5t114.5 24.5h321q84 0 112.5 -24.5t28.5 -92.5v-37q0 -44 -15.5 -68t-65.5 -51l-431 -237h437v113l106 -31v-47q0 -68 -30 -92.5t-115 -24.5h-522v37
q0 42 17 63.5t58 44.5l453 252v115h-393v-137l-105 24v76z" />
    <glyph glyph-name="threequarters" unicode="&#xbe;" horiz-adv-x="2271" 
d="M307 465q-84 0 -113.5 25t-29.5 92v47l106 22v-104h383q37 0 48.5 10t11.5 43v78q0 33 -11.5 43t-48.5 10h-235v76h211q35 0 47 12.5t12 54.5v35q0 42 -11.5 55t-47.5 13h-355v-90l-102 16v37q0 67 29.5 92t113.5 25h338q85 0 114.5 -24.5t29.5 -92.5v-53
q0 -52 -23 -77.5t-78 -35.5q67 -8 96 -36t29 -85v-61q0 -73 -33 -100t-118 -27h-363zM1647 1090l-920 -1123h-104l919 1123h105zM1935 0v141h-503v74l479 383h127v-383h153v-74h-153v-141h-103zM1935 215v313l-387 -313h387z" />
    <glyph glyph-name="questiondown" unicode="&#xbf;" horiz-adv-x="1327" 
d="M496 0q-238 0 -238 199v184l369 186v60h133v-148l-352 -176v-170h544v166l144 -27v-57q0 -217 -207 -217h-393zM748 831h-125q-22 0 -30.5 11.5t-8.5 44.5v117q0 34 8 43.5t53 9.5h103q44 0 52.5 -9.5t8.5 -43.5v-117q0 -35 -9.5 -45.5t-51.5 -10.5z" />
    <glyph glyph-name="Agrave" unicode="&#xc0;" horiz-adv-x="1489" 
d="M68 0l577 1057h189l587 -1057h-194l-135 260h-715l-135 -260h-174zM451 395h569l-285 541zM882 1169h-106l-281 348h178z" />
    <glyph glyph-name="Aacute" unicode="&#xc1;" horiz-adv-x="1489" 
d="M68 0l577 1057h189l587 -1057h-194l-135 260h-715l-135 -260h-174zM451 395h569l-285 541zM608 1169l209 348h178l-281 -348h-106z" />
    <glyph glyph-name="Acircumflex" unicode="&#xc2;" horiz-adv-x="1489" 
d="M68 0l577 1057h189l587 -1057h-194l-135 260h-715l-135 -260h-174zM451 395h569l-285 541zM458 1169l197 348h178l197 -348h-107l-178 244l-180 -244h-107z" />
    <glyph glyph-name="Atilde" unicode="&#xc3;" horiz-adv-x="1489" 
d="M68 0l577 1057h189l587 -1057h-194l-135 260h-715l-135 -260h-174zM451 395h569l-285 541zM851 1366q71 0 97 71h88q-24 -93 -76 -143t-123 -49q-31 0 -65 10l-80 27q-24 8 -53 8q-69 0 -97 -64h-88q20 91 72 139t127 48q37 0 59 -9l78 -28q32 -10 61 -10z" />
    <glyph glyph-name="Adieresis" unicode="&#xc4;" horiz-adv-x="1489" 
d="M68 0l577 1057h189l587 -1057h-194l-135 260h-715l-135 -260h-174zM451 395h569l-285 541zM505 1232v189h160v-189h-160zM825 1232v189h160v-189h-160z" />
    <glyph glyph-name="Aring" unicode="&#xc5;" horiz-adv-x="1489" 
d="M68 0l577 1057h189l587 -1057h-194l-135 260h-715l-135 -260h-174zM492 1372q0 104 71.5 176t175.5 72t176 -72t72 -176t-71.5 -176t-175.5 -72t-176 72t-72 176zM596 1370q0 -60 41.5 -100.5t101.5 -40.5t101 40.5t41 100.5t-41 101.5t-101 41.5t-101.5 -41.5
t-41.5 -101.5zM451 395h569l-285 541z" />
    <glyph glyph-name="AE" unicode="&#xc6;" horiz-adv-x="2015" 
d="M1008 428v490h-103l-381 -490h484zM1853 145v-145h-845v293h-586l-223 -293h-199l829 1057h1014v-142h-669v-294h487v-140h-487v-336h679z" />
    <glyph glyph-name="Ccedilla" unicode="&#xc7;" horiz-adv-x="1536" 
d="M955 -289q0 99 -113 99q-50 0 -78 -2v192h-256q-144 0 -196 52t-52 198v557q0 145 52 197t196 53h592q144 0 195 -52t51 -198v-100l-177 -33v239h-733v-766h733v265l177 -37v-125q0 -146 -51 -198t-195 -52h-262v-106h22q226 0 226 -177q0 -182 -246 -182q-87 0 -252 43
v86q156 -35 246 -35q121 0 121 82z" />
    <glyph glyph-name="Egrave" unicode="&#xc8;" horiz-adv-x="1446" 
d="M274 0v1057h1018v-142h-841v-294h514v-140h-514v-336h849v-145h-1026zM921 1169h-106l-281 348h178z" />
    <glyph glyph-name="Eacute" unicode="&#xc9;" horiz-adv-x="1446" 
d="M274 0v1057h1018v-142h-841v-294h514v-140h-514v-336h849v-145h-1026zM647 1169l209 348h178l-281 -348h-106z" />
    <glyph glyph-name="Ecircumflex" unicode="&#xca;" horiz-adv-x="1446" 
d="M274 0v1057h1018v-142h-841v-294h514v-140h-514v-336h849v-145h-1026zM497 1169l197 348h178l197 -348h-107l-178 244l-180 -244h-107z" />
    <glyph glyph-name="Edieresis" unicode="&#xcb;" horiz-adv-x="1446" 
d="M274 0v1057h1018v-142h-841v-294h514v-140h-514v-336h849v-145h-1026zM544 1232v189h160v-189h-160zM864 1232v189h160v-189h-160z" />
    <glyph glyph-name="Igrave" unicode="&#xcc;" horiz-adv-x="725" 
d="M274 0v1057h177v-1057h-177zM499 1169h-106l-281 348h178z" />
    <glyph glyph-name="Iacute" unicode="&#xcd;" horiz-adv-x="725" 
d="M274 0v1057h177v-1057h-177zM225 1169l209 348h178l-281 -348h-106z" />
    <glyph glyph-name="Icircumflex" unicode="&#xce;" horiz-adv-x="725" 
d="M274 0v1057h177v-1057h-177zM75 1169l197 348h178l197 -348h-107l-178 244l-180 -244h-107z" />
    <glyph glyph-name="Idieresis" unicode="&#xcf;" horiz-adv-x="725" 
d="M274 0v1057h177v-1057h-177zM122 1232v189h160v-189h-160zM442 1232v189h160v-189h-160z" />
    <glyph glyph-name="Eth" unicode="&#xd0;" horiz-adv-x="1655" 
d="M856 1057q278 0 406 -82q102 -67 160.5 -184t58.5 -261t-78 -304t-239 -193t-308 -33h-582v489h-204v117h204v451h582zM831 913h-380v-307h387v-117h-387v-342h380q257 0 363 90.5t106 294.5t-108 292.5t-361 88.5z" />
    <glyph glyph-name="Ntilde" unicode="&#xd1;" horiz-adv-x="1716" 
d="M436 623v-623h-162v1057h111l791 -707q53 -47 120 -133q-16 102 -16 260v580h162v-1057h-99l-812 735q-72 60 -107 119q12 -96 12 -231zM964 1366q71 0 97 71h88q-23 -93 -75 -143t-124 -49q-31 0 -65 10l-80 27q-24 8 -53 8q-69 0 -97 -64h-88q21 91 73 139t126 48
q37 0 59 -9l78 -28q32 -10 61 -10z" />
    <glyph glyph-name="Ograve" unicode="&#xd2;" horiz-adv-x="1747" 
d="M260 807q0 144 52 197t196 53h731q143 -1 195 -53t51 -197v-557q1 -146 -51 -198t-195 -52h-731q-144 0 -196 53t-52 197v557zM436 147h875v766h-875v-766zM1011 1169h-106l-281 348h178z" />
    <glyph glyph-name="Oacute" unicode="&#xd3;" horiz-adv-x="1747" 
d="M260 807q0 144 52 197t196 53h731q143 -1 195 -53t51 -197v-557q1 -146 -51 -198t-195 -52h-731q-144 0 -196 53t-52 197v557zM436 147h875v766h-875v-766zM737 1169l209 348h178l-281 -348h-106z" />
    <glyph glyph-name="Ocircumflex" unicode="&#xd4;" horiz-adv-x="1747" 
d="M260 807q0 144 52 197t196 53h731q143 -1 195 -53t51 -197v-557q1 -146 -51 -198t-195 -52h-731q-144 0 -196 53t-52 197v557zM436 147h875v766h-875v-766zM587 1169l197 348h178l197 -348h-107l-178 244l-180 -244h-107z" />
    <glyph glyph-name="Otilde" unicode="&#xd5;" horiz-adv-x="1747" 
d="M260 807q0 144 52 197t196 53h731q143 -1 195 -53t51 -197v-557q1 -146 -51 -198t-195 -52h-731q-144 0 -196 53t-52 197v557zM436 147h875v766h-875v-766zM980 1366q71 0 97 71h88q-23 -93 -75 -143t-124 -49q-31 0 -65 10l-80 27q-24 8 -53 8q-69 0 -97 -64h-88
q21 91 73 139t126 48q37 0 59 -9l78 -28q32 -10 61 -10z" />
    <glyph glyph-name="Odieresis" unicode="&#xd6;" horiz-adv-x="1747" 
d="M260 807q0 144 52 197t196 53h731q143 -1 195 -53t51 -197v-557q1 -146 -51 -198t-195 -52h-731q-144 0 -196 53t-52 197v557zM436 147h875v766h-875v-766zM634 1232v189h160v-189h-160zM954 1232v189h160v-189h-160z" />
    <glyph glyph-name="multiply" unicode="&#xd7;" horiz-adv-x="1706" 
d="M856 680l481 481l70 -69l-481 -482l481 -481l-70 -70l-481 482l-481 -482l-70 70l481 481l-481 482l70 69z" />
    <glyph glyph-name="Oslash" unicode="&#xd8;" horiz-adv-x="1747" 
d="M260 807q0 144 51.5 197t196.5 53h631l170 262h157l-171 -264q104 -4 147 -59t43 -189v-557q0 -146 -51.5 -198t-194.5 -52h-631l-170 -262h-155l172 266q-105 0 -150 56.5t-45 189.5v557zM1311 147v766h-115l-500 -766h615zM436 147h113l498 766h-611v-766z" />
    <glyph glyph-name="Ugrave" unicode="&#xd9;" horiz-adv-x="1671" 
d="M451 1057v-910h770v910h174v-807q1 -146 -51 -198t-195 -52h-627q-144 0 -196 53t-52 197v807h177zM973 1169h-106l-281 348h178z" />
    <glyph glyph-name="Uacute" unicode="&#xda;" horiz-adv-x="1671" 
d="M451 1057v-910h770v910h174v-807q1 -146 -51 -198t-195 -52h-627q-144 0 -196 53t-52 197v807h177zM699 1169l209 348h178l-281 -348h-106z" />
    <glyph glyph-name="Ucircumflex" unicode="&#xdb;" horiz-adv-x="1671" 
d="M451 1057v-910h770v910h174v-807q1 -146 -51 -198t-195 -52h-627q-144 0 -196 53t-52 197v807h177zM549 1169l197 348h178l197 -348h-107l-178 244l-180 -244h-107z" />
    <glyph glyph-name="Udieresis" unicode="&#xdc;" horiz-adv-x="1671" 
d="M451 1057v-910h770v910h174v-807q1 -146 -51 -198t-195 -52h-627q-144 0 -196 53t-52 197v807h177zM596 1232v189h160v-189h-160zM916 1232v189h160v-189h-160z" />
    <glyph glyph-name="Yacute" unicode="&#xdd;" horiz-adv-x="1374" 
d="M602 0v461l-536 596h219l413 -471l396 471h215l-531 -592v-465h-176zM551 1169l209 348h178l-281 -348h-106z" />
    <glyph glyph-name="Thorn" unicode="&#xde;" horiz-adv-x="1507" 
d="M274 1057h177v-187h675q117 0 170.5 -48.5t53.5 -155.5v-236q0 -108 -52.5 -156.5t-171.5 -48.5h-675v-225h-177v1057zM451 733v-368h606q65 0 89.5 24.5t24.5 85.5v146q0 61 -25 86.5t-89 25.5h-606z" />
    <glyph glyph-name="germandbls" unicode="&#xdf;" horiz-adv-x="2609" 
d="M967 739h-609v-225h557q123 0 167 -42t44 -163v-104q0 -121 -44 -163t-167 -42h-528q-125 0 -169 42t-44 163v24l150 31v-129h655v244h-559q-123 1 -167 43t-44 162v82q0 118 44 162t167 44h483q121 0 167 -42t46 -148v-21l-149 -32v114zM2272 739h-609v-225h557
q122 0 166 -42t45 -163v-104q1 -121 -43 -163t-168 -42h-528q-124 0 -168 42t-45 163v24l150 31v-129h655v244h-559q-123 1 -167 43t-44 162v82q0 118 44 162t167 44h483q121 0 167 -42t46 -148v-21l-149 -32v114z" />
    <glyph glyph-name="agrave" unicode="&#xe0;" horiz-adv-x="1284" 
d="M403 328h461l-231 413zM59 0l502 868h150l514 -868h-178l-113 203h-600l-111 -203h-164zM780 979h-106l-281 348h178z" />
    <glyph glyph-name="aacute" unicode="&#xe1;" horiz-adv-x="1284" 
d="M403 328h461l-231 413zM59 0l502 868h150l514 -868h-178l-113 203h-600l-111 -203h-164zM506 979l209 348h178l-281 -348h-106z" />
    <glyph glyph-name="acircumflex" unicode="&#xe2;" horiz-adv-x="1284" 
d="M403 328h461l-231 413zM59 0l502 868h150l514 -868h-178l-113 203h-600l-111 -203h-164zM356 979l197 348h178l197 -348h-107l-178 244l-180 -244h-107z" />
    <glyph glyph-name="atilde" unicode="&#xe3;" horiz-adv-x="1284" 
d="M403 328h461l-231 413zM59 0l502 868h150l514 -868h-178l-113 203h-600l-111 -203h-164zM749 1176q71 0 97 71h88q-24 -93 -76 -143t-123 -49q-31 0 -65 10l-80 27q-24 8 -53 8q-69 0 -97 -64h-88q20 91 72 139t127 48q37 0 59 -9l78 -28q32 -10 61 -10z" />
    <glyph glyph-name="adieresis" unicode="&#xe4;" horiz-adv-x="1284" 
d="M403 328h461l-231 413zM59 0l502 868h150l514 -868h-178l-113 203h-600l-111 -203h-164zM403 1042v189h160v-189h-160zM723 1042v189h160v-189h-160z" />
    <glyph glyph-name="aring" unicode="&#xe5;" horiz-adv-x="1284" 
d="M403 328h461l-231 413zM59 0l502 868h150l514 -868h-178l-113 203h-600l-111 -203h-164zM395 1208q0 104 72 174q72 72 176 72t176 -72t72 -174q0 -104 -72 -176t-176 -71q-104 -1 -176 71t-72 176zM502 1206q0 -60 40 -102t101 -41q59 -1 101 41t42 102t-42 102t-101 42
q-61 0 -101 -42t-40 -102z" />
    <glyph glyph-name="ae" unicode="&#xe6;" horiz-adv-x="1700" 
d="M1593 131v-131h-729v236h-481l-182 -236h-201l715 868h870v-129h-571v-223h413v-129h-413v-256h579zM864 362v381h-78l-305 -381h383z" />
    <glyph glyph-name="ccedilla" unicode="&#xe7;" horiz-adv-x="1262" 
d="M795 -289q0 99 -113 99q-50 0 -78 -2v192h-213q-123 0 -167 42t-44 163v457q0 122 44 164t167 42h510q125 0 169 -44t44 -162v-82l-164 -27v186h-606v-608h606v207l164 -31v-102q0 -119 -44 -162t-169 -43h-223v-106h22q226 0 226 -177q0 -182 -246 -182q-87 0 -252 43
v86q156 -35 246 -35q121 0 121 82z" />
    <glyph glyph-name="egrave" unicode="&#xe8;" horiz-adv-x="1190" 
d="M201 0v868h874v-129h-710v-223h428v-129h-428v-260h718v-127h-882zM790 979h-106l-281 348h178z" />
    <glyph glyph-name="eacute" unicode="&#xe9;" horiz-adv-x="1190" 
d="M201 0v868h874v-129h-710v-223h428v-129h-428v-260h718v-127h-882zM516 979l209 348h178l-281 -348h-106z" />
    <glyph glyph-name="ecircumflex" unicode="&#xea;" horiz-adv-x="1190" 
d="M201 0v868h874v-129h-710v-223h428v-129h-428v-260h718v-127h-882zM366 979l197 348h178l197 -348h-107l-178 244l-180 -244h-107z" />
    <glyph glyph-name="edieresis" unicode="&#xeb;" horiz-adv-x="1190" 
d="M201 0v868h874v-129h-710v-223h428v-129h-428v-260h718v-127h-882zM413 1042v189h160v-189h-160zM733 1042v189h160v-189h-160z" />
    <glyph glyph-name="igrave" unicode="&#xec;" horiz-adv-x="557" 
d="M360 0h-163v866h163v-866zM416 979h-106l-281 348h178z" />
    <glyph glyph-name="iacute" unicode="&#xed;" horiz-adv-x="557" 
d="M360 0h-163v866h163v-866zM142 979l209 348h178l-281 -348h-106z" />
    <glyph glyph-name="icircumflex" unicode="&#xee;" horiz-adv-x="557" 
d="M360 0h-163v866h163v-866zM-8 979l197 348h178l197 -348h-107l-178 244l-180 -244h-107z" />
    <glyph glyph-name="idieresis" unicode="&#xef;" horiz-adv-x="557" 
d="M360 0h-163v866h163v-866zM39 1042v189h160v-189h-160zM359 1042v189h160v-189h-160z" />
    <glyph glyph-name="eth" unicode="&#xf0;" horiz-adv-x="1493" 
d="M750 739h-318v-223h342v-121h-342v-264h318q212 0 301.5 71.5t89.5 233.5t-90.5 232.5t-300.5 70.5zM1305 436q0 -436 -537 -436h-500v395h-174v121h174v352h500q240 0 338 -62q99 -62 149 -158t50 -212z" />
    <glyph glyph-name="ntilde" unicode="&#xf1;" horiz-adv-x="1405" 
d="M352 539v-539h-151v868h125l637 -567q56 -48 104 -119q-14 78 -14 162v524h151v-868h-112l-650 575q-66 62 -102 119q12 -76 12 -155zM808 1176q71 0 97 71h88q-23 -93 -75 -143t-124 -49q-31 0 -65 10l-80 27q-24 8 -53 8q-69 0 -97 -64h-88q21 91 73 139t126 48
q37 0 59 -9l78 -28q32 -10 61 -10z" />
    <glyph glyph-name="ograve" unicode="&#xf2;" horiz-adv-x="1413" 
d="M180 662q0 118 45 162t168 44h627q123 0 168 -44t45 -162v-457q-1 -119 -45 -162t-168 -43h-627q-125 0 -169 42t-44 163v457zM344 131h725v608h-725v-608zM844 979h-106l-281 348h178z" />
    <glyph glyph-name="oacute" unicode="&#xf3;" horiz-adv-x="1413" 
d="M180 662q0 118 45 162t168 44h627q123 0 168 -44t45 -162v-457q-1 -119 -45 -162t-168 -43h-627q-125 0 -169 42t-44 163v457zM344 131h725v608h-725v-608zM570 979l209 348h178l-281 -348h-106z" />
    <glyph glyph-name="ocircumflex" unicode="&#xf4;" horiz-adv-x="1413" 
d="M180 662q0 118 45 162t168 44h627q123 0 168 -44t45 -162v-457q-1 -119 -45 -162t-168 -43h-627q-125 0 -169 42t-44 163v457zM344 131h725v608h-725v-608zM420 979l197 348h178l197 -348h-107l-178 244l-180 -244h-107z" />
    <glyph glyph-name="otilde" unicode="&#xf5;" horiz-adv-x="1413" 
d="M180 662q0 118 45 162t168 44h627q123 0 168 -44t45 -162v-457q-1 -119 -45 -162t-168 -43h-627q-125 0 -169 42t-44 163v457zM344 131h725v608h-725v-608zM813 1176q71 0 97 71h88q-24 -93 -76 -143t-123 -49q-31 0 -65 10l-80 27q-24 8 -53 8q-69 0 -97 -64h-88
q20 91 72 139t127 48q37 0 59 -9l78 -28q32 -10 61 -10z" />
    <glyph glyph-name="odieresis" unicode="&#xf6;" horiz-adv-x="1413" 
d="M180 662q0 118 45 162t168 44h627q123 0 168 -44t45 -162v-457q-1 -119 -45 -162t-168 -43h-627q-125 0 -169 42t-44 163v457zM344 131h725v608h-725v-608zM467 1042v189h160v-189h-160zM787 1042v189h160v-189h-160z" />
    <glyph glyph-name="divide" unicode="&#xf7;" horiz-adv-x="1706" 
d="M854 1071q44 0 75.5 -32.5t31.5 -76.5t-31 -75t-76 -31t-75.5 30.5t-30.5 75.5t31 77t75 32zM1452 659v-98h-1198v98h1198zM854 365q44 0 75.5 -31.5t31.5 -75.5t-31 -75t-76 -31t-75.5 31t-30.5 75t31 75.5t75 31.5z" />
    <glyph glyph-name="oslash" unicode="&#xf8;" horiz-adv-x="1413" 
d="M180 662q0 119 45 162.5t168 43.5h561l154 213h125l-156 -213q87 -11 121.5 -55.5t34.5 -150.5v-457q0 -119 -44.5 -162t-168.5 -43h-563l-152 -215h-125l150 215q-87 15 -118.5 57.5t-31.5 147.5v457zM1069 131v608h-88l-436 -608h524zM344 739v-608h84l440 608h-524z
" />
    <glyph glyph-name="ugrave" unicode="&#xf9;" horiz-adv-x="1366" 
d="M365 868v-737h634v737h166v-663q-1 -121 -45 -163t-168 -42h-538q-124 0 -168 43t-45 162v663h164zM821 979h-106l-281 348h178z" />
    <glyph glyph-name="uacute" unicode="&#xfa;" horiz-adv-x="1366" 
d="M365 868v-737h634v737h166v-663q-1 -121 -45 -163t-168 -42h-538q-124 0 -168 43t-45 162v663h164zM547 979l209 348h178l-281 -348h-106z" />
    <glyph glyph-name="ucircumflex" unicode="&#xfb;" horiz-adv-x="1366" 
d="M365 868v-737h634v737h166v-663q-1 -121 -45 -163t-168 -42h-538q-124 0 -168 43t-45 162v663h164zM397 979l197 348h178l197 -348h-107l-178 244l-180 -244h-107z" />
    <glyph glyph-name="udieresis" unicode="&#xfc;" horiz-adv-x="1366" 
d="M365 868v-737h634v737h166v-663q-1 -121 -45 -163t-168 -42h-538q-124 0 -168 43t-45 162v663h164zM444 1042v189h160v-189h-160zM764 1042v189h160v-189h-160z" />
    <glyph glyph-name="yacute" unicode="&#xfd;" horiz-adv-x="1155" 
d="M496 0v379l-453 489h199l346 -376l330 376h192l-451 -489v-379h-163zM441 979l209 348h178l-281 -348h-106z" />
    <glyph glyph-name="thorn" unicode="&#xfe;" horiz-adv-x="1241" 
d="M201 868h164v-151h569q101 0 145.5 -40t44.5 -128v-193q0 -88 -44.5 -128t-145.5 -40h-569v-188h-164v868zM958 508q0 45 -21 63.5t-77 18.5h-495v-273h495q55 0 76.5 19t21.5 63v109z" />
    <glyph glyph-name="ydieresis" unicode="&#xff;" horiz-adv-x="1155" 
d="M496 0v379l-453 489h199l346 -376l330 376h192l-451 -489v-379h-163zM338 1042v189h160v-189h-160zM658 1042v189h160v-189h-160z" />
    <glyph glyph-name="Cacute" unicode="&#x106;" horiz-adv-x="1536" 
d="M1169 913h-733v-766h733v265l177 -37v-125q0 -146 -51 -198t-195 -52h-592q-144 0 -196 52t-52 198v557q0 145 52 197t196 53h592q144 0 195 -52t51 -198v-100l-177 -33v239zM678 1169l209 348h178l-281 -348h-106z" />
    <glyph glyph-name="cacute" unicode="&#x107;" horiz-adv-x="1262" 
d="M950 739h-606v-608h606v207l164 -31v-102q0 -119 -44 -162t-169 -43h-510q-123 0 -167 42t-44 163v457q0 122 44 164t167 42h510q125 0 169 -44t44 -162v-82l-164 -27v186zM508 979l209 348h178l-281 -348h-106z" />
    <glyph glyph-name="Ccaron" unicode="&#x10c;" horiz-adv-x="1536" 
d="M1169 913h-733v-766h733v265l177 -37v-125q0 -146 -51 -198t-195 -52h-592q-144 0 -196 52t-52 198v557q0 145 52 197t196 53h592q144 0 195 -52t51 -198v-100l-177 -33v239zM528 1517h107l180 -244l178 244h107l-197 -348h-178z" />
    <glyph glyph-name="ccaron" unicode="&#x10d;" horiz-adv-x="1262" 
d="M950 739h-606v-608h606v207l164 -31v-102q0 -119 -44 -162t-169 -43h-510q-123 0 -167 42t-44 163v457q0 122 44 164t167 42h510q125 0 169 -44t44 -162v-82l-164 -27v186zM358 1327h107l180 -244l178 244h107l-197 -348h-178z" />
    <glyph glyph-name="dcroat" unicode="&#x111;" horiz-adv-x="1493" 
d="M750 739h-318v-223h342v-121h-342v-264h318q212 0 301.5 71.5t89.5 233.5t-90.5 232.5t-300.5 70.5zM1305 436q0 -436 -537 -436h-500v395h-174v121h174v352h500q240 0 338 -62q99 -62 149 -158t50 -212z" />
    <glyph glyph-name="Gbreve" unicode="&#x11e;" horiz-adv-x="1673" 
d="M1264 913h-828v-766h828v310h-428v135h604v-342q0 -146 -52 -198t-196 -52h-684q-144 0 -196 53t-52 197v557q0 144 52 197t196 53h684q142 1 195 -51t53 -187v-26l-176 -35v155zM838 1333q96 1 141 35t52 110h90q-11 -142 -79 -206t-204 -64q-137 0 -205 65t-77 205h89
q7 -76 52 -110t141 -35z" />
    <glyph glyph-name="gbreve" unicode="&#x11f;" horiz-adv-x="1356" 
d="M1030 739h-686v-608h686v236h-354v118h518v-280q0 -119 -44 -162t-169 -43h-588q-125 0 -169 42t-44 163v457q0 118 45 162t168 44h588q121 0 167 -43t46 -151v-25l-164 -28v118zM678 1143q96 1 141 35t52 110h90q-11 -142 -79 -206t-204 -64q-137 0 -205 65t-77 205h89
q7 -76 52 -110t141 -35z" />
    <glyph glyph-name="Idotaccent" unicode="&#x130;" horiz-adv-x="725" 
d="M274 0v1057h177v-1057h-177zM278 1226v199h168v-199h-168z" />
    <glyph glyph-name="dotlessi" unicode="&#x131;" horiz-adv-x="557" 
d="M360 0h-163v866h163v-866z" />
    <glyph glyph-name="Lslash" unicode="&#x141;" horiz-adv-x="1337" 
d="M274 0v332l-182 -129v135l182 129v590h177v-471l346 243v-137l-346 -243v-302h800v-147h-977z" />
    <glyph glyph-name="lslash" unicode="&#x142;" horiz-adv-x="1096" 
d="M201 0v272l-138 -98v139l138 97v458h164v-372l323 229v-139l-323 -228v-227h675v-131h-839z" />
    <glyph glyph-name="OE" unicode="&#x152;" horiz-adv-x="2144" 
d="M260 807q0 145 52 197.5t196 52.5h1466v-142h-671v-294h489v-140h-489v-336h682v-145h-1477q-144 0 -196 52.5t-52 197.5v557zM436 145h697v770h-697v-770z" />
    <glyph glyph-name="oe" unicode="&#x153;" horiz-adv-x="1767" 
d="M180 664q0 118 44.5 161t168.5 43h1262v-129h-576v-223h418v-129h-418v-256h582v-131h-1268q-121 0 -167 44.5t-46 162.5v457zM344 131h580v608h-580v-608z" />
    <glyph glyph-name="Scedilla" unicode="&#x15e;" horiz-adv-x="1599" 
d="M955 -289q0 99 -113 99q-50 0 -78 -2v192h-287q-144 0 -196 52t-52 198v29l164 38v-170h787v318h-664q-144 1 -195 53t-51 197v92q0 145 51 197t195 53h563q141 1 195 -51t53 -181v-22l-151 -43v153h-748v-295h666q141 0 193 -52t52 -197v-119q0 -146 -51 -198t-194 -52
h-256v-106h22q226 0 226 -177q0 -182 -246 -182q-87 0 -252 43v86q156 -35 246 -35q121 0 121 82z" />
    <glyph glyph-name="scedilla" unicode="&#x15f;" horiz-adv-x="1305" 
d="M807 -289q0 99 -113 99q-50 0 -78 -2v192h-229q-125 0 -169 42t-44 163v24l150 31v-129h655v244h-559q-123 1 -167 43t-44 162v82q0 118 44 162t167 44h483q121 0 167 -42t46 -148v-21l-149 -32v114h-609v-225h557q123 0 167 -42t44 -163v-104q0 -121 -44 -163t-167 -42
h-225v-106h22q226 0 226 -177q0 -182 -246 -182q-87 0 -252 43v86q156 -35 246 -35q121 0 121 82z" />
    <glyph glyph-name="Scaron" unicode="&#x160;" horiz-adv-x="1599" 
d="M1176 913h-748v-295h666q141 0 193 -52t52 -197v-119q0 -146 -51 -198t-194 -52h-617q-144 0 -196 52t-52 198v29l164 38v-170h787v318h-664q-144 1 -195 53t-51 197v92q0 145 51 197t195 53h563q141 1 195 -51t53 -181v-22l-151 -43v153zM514 1517h107l180 -244l178 244
h107l-197 -348h-178z" />
    <glyph glyph-name="scaron" unicode="&#x161;" horiz-adv-x="1305" 
d="M967 739h-609v-225h557q123 0 167 -42t44 -163v-104q0 -121 -44 -163t-167 -42h-528q-125 0 -169 42t-44 163v24l150 31v-129h655v244h-559q-123 1 -167 43t-44 162v82q0 118 44 162t167 44h483q121 0 167 -42t46 -148v-21l-149 -32v114zM366 1327h107l180 -244l178 244
h107l-197 -348h-178z" />
    <glyph glyph-name="Ydieresis" unicode="&#x178;" horiz-adv-x="1374" 
d="M602 0v461l-536 596h219l413 -471l396 471h215l-531 -592v-465h-176zM448 1232v189h160v-189h-160zM768 1232v189h160v-189h-160z" />
    <glyph glyph-name="Zcaron" unicode="&#x17d;" horiz-adv-x="1395" 
d="M135 0v72l783 841h-715v144h997v-60l-797 -850h797v-147h-1065zM411 1517h107l180 -244l178 244h107l-197 -348h-178z" />
    <glyph glyph-name="zcaron" unicode="&#x17e;" horiz-adv-x="1264" 
d="M147 0v78l656 661h-596v129h856v-69l-662 -668h662v-131h-916zM346 1327h107l180 -244l178 244h107l-197 -348h-178z" />
    <glyph glyph-name="florin" unicode="&#x192;" horiz-adv-x="1532" 
d="M1219 1051q-1 98 -123 98q-62 0 -93.5 -28.5t-48.5 -121.5l-41 -219h222v-94h-242l-133 -674q-32 -156 -100.5 -214t-210.5 -58q-242 0 -242 203v69l149 35v-59q0 -72 21 -94.5t86 -22.5t98 27t51 122l131 666h-194v94h213l45 224q30 157 98.5 214.5t202.5 57.5
q256 0 256 -201v-69l-145 -19v64z" />
    <glyph glyph-name="circumflex" unicode="&#x2c6;" 
d="M225 979l197 348h178l197 -348h-107l-178 244l-180 -244h-107z" />
    <glyph glyph-name="caron" unicode="&#x2c7;" 
d="M225 1327h107l180 -244l178 244h107l-197 -348h-178z" />
    <glyph glyph-name="breve" unicode="&#x2d8;" 
d="M512 1143q96 0 141 34.5t52 110.5h90q-11 -141 -78.5 -205.5t-204.5 -64.5t-205 65t-77 205h89q7 -76 52 -110.5t141 -34.5z" />
    <glyph glyph-name="dotaccent" unicode="&#x2d9;" 
d="M428 1036v199h168v-199h-168z" />
    <glyph glyph-name="ring" unicode="&#x2da;" 
d="M264 1208q0 104 72 175t176 71t176 -71t72 -175t-72 -175.5t-176 -71.5t-176 71.5t-72 175.5zM371 1206q0 -60 40.5 -101.5t100.5 -41.5t101.5 41.5t41.5 101.5t-41.5 102t-101.5 42t-100.5 -42t-40.5 -102z" />
    <glyph glyph-name="ogonek" unicode="&#x2db;" 
d="M551 -434q-223 0 -223 154q0 74 39.5 132.5t148.5 147.5h72q-135 -123 -135 -223q0 -45 22 -63.5t74 -18.5h80v-129h-78z" />
    <glyph glyph-name="tilde" unicode="&#x2dc;" 
d="M618 1176q71 0 97 71h88q-24 -93 -75.5 -142.5t-123.5 -49.5q-31 0 -65 10l-80 27q-24 8 -53 8q-69 0 -97 -64h-88q21 91 72.5 139t126.5 48q37 0 59 -9l78 -28q32 -10 61 -10z" />
    <glyph glyph-name="hungarumlaut" unicode="&#x2dd;" 
d="M322 979l147 348h158l-221 -348h-84zM580 979l168 348h155l-239 -348h-84z" />
    <glyph glyph-name="Omega" unicode="&#x3a9;" horiz-adv-x="1579" 
d="M121 784q0 320 188.5 524.5t480.5 204.5t481 -203.5t189 -523.5q0 -196 -83.5 -354t-258.5 -293h344v-139h-581v127q419 251 419 668q0 260 -141.5 420.5t-368.5 160.5t-369 -160t-142 -419q0 -207 106.5 -377.5t312.5 -292.5v-127h-581v139h344q-340 261 -340 645z" />
    <glyph glyph-name="pi" unicode="&#x3c0;" horiz-adv-x="1171" 
d="M793 211q1 -102 95 -102q65 0 107 9l-26 -118q-56 -16 -101 -16q-101 0 -157 53t-56 144t56 356l86 407h-365l-199 -944h-139l199 944h-39q-55 0 -85.5 -31.5t-41.5 -99.5h-131q25 143 88 197.5t215 54.5h848l-27 -121h-182l-115 -541q-30 -138 -30 -192z" />
    <glyph glyph-name="endash" unicode="&#x2013;" 
d="M0 494v102h1024v-102h-1024z" />
    <glyph glyph-name="emdash" unicode="&#x2014;" horiz-adv-x="2048" 
d="M0 596h2048v-102h-2048v102z" />
    <glyph glyph-name="quoteleft" unicode="&#x2018;" horiz-adv-x="766" 
d="M432 629h-125q-22 0 -30.5 11t-8.5 44v154l142 219h92l-123 -223h53q44 0 53 -10.5t9 -45.5v-94q0 -35 -9.5 -45t-52.5 -10z" />
    <glyph glyph-name="quoteright" unicode="&#x2019;" horiz-adv-x="766" 
d="M434 1057q44 0 53 -10.5t9 -45.5v-153l-144 -219h-90l121 223h-70q-25 0 -34 11t-9 44v94q0 36 9 46t53 10h102z" />
    <glyph glyph-name="quotesinglbase" unicode="&#x201a;" horiz-adv-x="766" 
d="M434 225q44 0 53 -10.5t9 -44.5v-156l-144 -219h-90l121 225h-70q-25 0 -34 11.5t-9 44.5v94q0 35 9 45t53 10h102z" />
    <glyph glyph-name="quotedblleft" unicode="&#x201c;" horiz-adv-x="1149" 
d="M434 629h-127q-21 0 -29 10.5t-8 44.5v154l142 219h92l-123 -223h53q44 0 53 -10.5t9 -45.5v-94q0 -35 -9.5 -45t-52.5 -10zM817 629h-127q-22 0 -30.5 11t-8.5 44v154l144 219h92l-123 -223h53q43 0 51.5 -10.5t8.5 -45.5v-94q0 -36 -9 -45.5t-51 -9.5z" />
    <glyph glyph-name="quotedblright" unicode="&#x201d;" horiz-adv-x="1149" 
d="M434 1057q44 0 53 -10.5t9 -45.5v-153l-144 -219h-90l121 223h-70q-25 0 -34 11t-9 44v94q0 36 9 46t53 10h102zM819 1057q43 0 51.5 -10t8.5 -46v-153l-142 -219h-92l123 223h-72q-25 0 -34 11t-9 44v94q0 35 9.5 45.5t52.5 10.5h104z" />
    <glyph glyph-name="quotedblbase" unicode="&#x201e;" horiz-adv-x="1149" 
d="M434 225q44 0 53 -10.5t9 -44.5v-156l-144 -219h-90l121 225h-70q-25 0 -34 11.5t-9 44.5v94q0 35 9 45t53 10h102zM817 225q44 0 53 -10.5t9 -44.5v-156l-144 -219h-90l121 225h-72q-24 0 -32.5 10.5t-8.5 45.5v94q0 35 9 45t53 10h102z" />
    <glyph glyph-name="dagger" unicode="&#x2020;" 
d="M489 -217q-16 337 -69 596q48 147 63 274l-336 -65v188l336 -55l-67 336h192l-67 -336l336 55v-188l-336 65q15 -123 63 -274q-53 -257 -69 -596h-46z" />
    <glyph glyph-name="daggerdbl" unicode="&#x2021;" 
d="M483 653l-336 -65v188l336 -55l-67 336h192l-67 -336l336 55v-188l-336 65l59 -227l-59 -225l336 65v-190l-336 57l67 -338h-192l67 338l-336 -57v190l336 -65l-63 225z" />
    <glyph glyph-name="bullet" unicode="&#x2022;" horiz-adv-x="1208" 
d="M307 762q0 123 87.5 209t209.5 86t208.5 -86.5t86.5 -208.5t-87.5 -209.5t-209.5 -87.5t-208.5 87t-86.5 210z" />
    <glyph glyph-name="ellipsis" unicode="&#x2026;" horiz-adv-x="2048" 
d="M393 225q43 -1 53 -11t9 -44v-117q-1 -33 -9 -43t-53 -10h-123q-24 0 -32 10t-9 43v117q-1 34 9 44t53 11h102zM1075 225q43 -1 53 -11t9 -44v-117q-1 -33 -9 -43t-53 -10h-123q-24 0 -32 10t-9 43v117q-1 34 9 44t53 11h102zM1759 225q43 -1 53 -11t9 -44v-117
q-1 -33 -9 -43t-53 -10h-123q-24 0 -32 10t-9 43v117q-1 34 9 44t53 11h102z" />
    <glyph glyph-name="perthousand" unicode="&#x2030;" horiz-adv-x="2519" 
d="M150 780q0 130 90 220t222 90t224 -90.5t92 -219.5t-94.5 -223t-220.5 -94t-219.5 93.5t-93.5 223.5zM987 284q0 130 90.5 220t222.5 90t224 -91t92 -219t-95 -222.5t-221 -94.5t-219.5 93.5t-93.5 223.5zM1104 281q0 -81 58 -139t140 -58t139.5 57t57.5 139t-58.5 139.5
t-140.5 57.5t-139 -57.5t-57 -138.5zM1382 1090l-893 -1123h-116l889 1123h120zM266 777q0 -81 59 -139t141 -58t139 57t57 139t-58 140.5t-140 58.5t-140 -58.5t-58 -139.5zM1741 285q0 129 91.5 219t223.5 90t223 -90.5t91 -219.5t-94 -223t-220 -94t-220.5 94.5
t-94.5 223.5zM1858 281q0 -81 57.5 -139t139.5 -58t140 57t58 139t-58.5 139.5t-140.5 57.5t-139 -57.5t-57 -138.5z" />
    <glyph glyph-name="guilsinglleft" unicode="&#x2039;" horiz-adv-x="635" 
d="M508 131h-143l-242 303l242 301h143l-234 -301z" />
    <glyph glyph-name="guilsinglright" unicode="&#x203a;" horiz-adv-x="635" 
d="M127 131l233 303l-233 301h143l242 -301l-242 -303h-143z" />
    <glyph glyph-name="franc" unicode="&#x20a3;" horiz-adv-x="2560" 
d="M274 0v1057h1006v-144h-829v-346h473v-141h-473v-426h-177zM1506 0v868h698q98 0 140 -40t42 -128v-194q0 -88 -42 -127t-140 -39h-115l383 -340h-219l-346 340h-237v-340h-164zM2132 741h-462v-280h462q55 0 74 18t19 70v104q0 48 -20 68t-73 20z" />
    <glyph glyph-name="trademark" unicode="&#x2122;" horiz-adv-x="1706" 
d="M694 1454v-57h-172v-473h-82v473h-176v57h430zM1376 1454v-530h-71v467l-177 -467h-49l-186 467v-467h-72v530h117l166 -422l156 422h116z" />
    <glyph glyph-name="partialdiff" unicode="&#x2202;" horiz-adv-x="1034" 
d="M272 274q0 -251 179 -251q112 0 186 125.5t74 314.5q0 258 -179 258q-113 0 -186.5 -124.5t-73.5 -322.5zM776 908q0 150 -40 234.5t-115 84.5q-50 0 -108 -68.5t-96 -68.5t-59.5 20t-21.5 47q0 62 63.5 107t155.5 45q165 0 264 -150.5t99 -406.5q0 -334 -136 -556.5
t-333 -222.5q-143 0 -233.5 107t-90.5 282t109 300.5t262 125.5q191 0 256 -196q24 166 24 316z" />
    <glyph glyph-name="Delta" unicode="&#x2206;" horiz-adv-x="1346" 
d="M766 1473l590 -1473h-1366l590 1473h186zM1139 139l-467 1186l-465 -1186h932z" />
    <glyph glyph-name="product" unicode="&#x220f;" horiz-adv-x="1509" 
d="M160 1473h1188v-1866h-168v1718h-852v-1718h-168v1866z" />
    <glyph glyph-name="summation" unicode="&#x2211;" horiz-adv-x="1317" 
d="M49 1473h1223v-144h-1014l705 -766l-740 -813h1057v-143h-1266v133l744 821l-709 772v140z" />
    <glyph glyph-name="minus" unicode="&#x2212;" horiz-adv-x="1706" 
d="M1452 659v-98h-1198v98h1198z" />
    <glyph glyph-name="fraction" unicode="&#x2215;" horiz-adv-x="342" 
d="M682 1090l-920 -1123h-104l920 1123h104z" />
    <glyph glyph-name="periodcentered" unicode="&#x2219;" horiz-adv-x="766" 
d="M264 530q0 49 34 83t84 34t84 -33.5t34 -83.5t-35 -85t-83 -35t-83 35.5t-35 84.5z" />
    <glyph glyph-name="radical" unicode="&#x221a;" horiz-adv-x="1276" 
d="M1276 1636v-71h-125l-594 -1606h-41l-328 899l-114 -39l-19 58l246 86l272 -746l525 1419h178z" />
    <glyph glyph-name="infinity" unicode="&#x221e;" horiz-adv-x="1706" 
d="M1178 989q114 0 205.5 -107.5t91.5 -271.5t-81.5 -268t-211.5 -104q-95 0 -168 60.5t-146 203.5q-71 -139 -148 -201.5t-173 -62.5q-132 0 -223 106.5t-91 271.5t81.5 269t211.5 104q97 0 171.5 -64t140.5 -204q72 144 149 206t191 62zM289 602q0 -114 63 -189t153 -75
t159.5 75t146.5 255q-103 196 -281 196q-106 0 -173.5 -74t-67.5 -188zM1419 625q0 115 -62.5 189.5t-152.5 74.5t-159 -74t-148 -256q103 -199 281 -199q106 0 173.5 75t67.5 190z" />
    <glyph glyph-name="integral" unicode="&#x222b;" horiz-adv-x="985" 
d="M293 -272q104 0 117 713q2 127 4 196q11 486 98 698.5t268 212.5q70 0 114 -37t44 -91t-28.5 -81.5t-78.5 -27.5q-78 0 -103 69.5t-34 69.5q-105 0 -116 -623q-4 -185 -7 -289q-15 -497 -101 -703t-267 -206q-69 0 -113.5 36t-44.5 89t30.5 83t74.5 30q80 0 110 -68
q4 -9 8 -40t25 -31z" />
    <glyph glyph-name="approxequal" unicode="&#x2248;" horiz-adv-x="1706" 
d="M1143 662q-103 0 -292 69.5t-279 69.5t-178.5 -36.5t-215.5 -123.5v113q209 145 387 145q109 0 298.5 -69.5t276.5 -69.5t174 34.5t216 123.5v-111q-204 -145 -387 -145zM1143 324q-101 0 -291 69.5t-280 69.5t-178.5 -36.5t-215.5 -123.5v111q210 145 387 145
q109 0 298.5 -68.5t277.5 -68.5t177 35.5t212 122.5v-111q-208 -145 -387 -145z" />
    <glyph glyph-name="notequal" unicode="&#x2260;" horiz-adv-x="1706" 
d="M1452 846v-96h-432l-215 -277h647v-98h-709l-254 -324l-73 60l205 264h-367v98h428l215 277h-643v96h707l253 323l74 -59l-205 -264h369z" />
    <glyph glyph-name="lessequal" unicode="&#x2264;" horiz-adv-x="1706" 
d="M1442 1075l-1010 -338l1010 -336v-106l-1178 401v84l1178 402v-107zM1442 139v-98h-1178v98h1178z" />
    <glyph glyph-name="greaterequal" unicode="&#x2265;" horiz-adv-x="1706" 
d="M1442 780v-84l-1178 -401v106l1010 336l-1010 338v107zM1442 139v-98h-1178v98h1178z" />
    <glyph glyph-name="lozenge" unicode="&#x25ca;" horiz-adv-x="1012" 
d="M506 1653l500 -1061l-500 -1069l-500 1069zM506 1409l-385 -817l385 -825l385 825z" />
    <glyph glyph-name="apple" unicode="&#xf000;" horiz-adv-x="1618" 
d="M1272 741q0 -113 60 -200t173 -138q-114 -247 -205 -342.5t-204 -95.5q-50 0 -131.5 33t-124.5 33t-129.5 -33t-138.5 -33t-116 44t-148 158t-139.5 269.5t-55.5 300.5q0 219 125 356.5t323 137.5q68 0 154.5 -34t122.5 -34t123.5 34t175.5 34q195 0 336 -162
q-201 -128 -201 -328zM834 1253q0 124 95 229.5t236 131.5q2 -20 2 -62q0 -131 -103.5 -234.5t-203.5 -103.5h-8l-16 2q-2 12 -2 37z" />
    <glyph glyph-name="fi" unicode="&#xf001;" horiz-adv-x="1669" 
d="M201 0v868h864v-129h-700v-268h395v-127h-395v-344h-164zM1472 0h-163v866h163v-866z" />
    <glyph glyph-name="fl" unicode="&#xf002;" horiz-adv-x="2208" 
d="M201 0v868h864v-129h-700v-268h395v-127h-395v-344h-164zM1313 0v868h164v-737h675v-131h-839z" />
    </font>
</defs>
</svg>
