<?xml version="1.0" standalone="no"?>
<!DOCTYPE svg PUBLIC "-//W3C//DTD SVG 1.1//EN" "http://www.w3.org/Graphics/SVG/1.1/DTD/svg11.dtd" >
<svg xmlns="http://www.w3.org/2000/svg">
<metadata>
Created by FontPrep 20130207 at Tue Sep 30 13:04:40 2014
 By Coderbit
(c) 2005 Microsoft Corporation. All Rights Reserved.
</metadata>
<defs>
<font id="16507cdd5bdee782f26fca800650b3c2" horiz-adv-x='1024' >
  <font-face 
    font-family="Consolas"
    font-weight="400"
    font-stretch="normal"
    units-per-em="2048"
    panose-1="2 11 6 9 2 2 4 3 2 4"
    ascent="1521"
    descent="-527"
    x-height="1004"
    cap-height="1307"
    bbox="-194 -471 1268 1950"
    underline-thickness="144"
    underline-position="-194"
    unicode-range="U+0020-FB02"
  />
<missing-glyph 
d="M480 354q28 0 52.5 -25t24.5 -53t-6.5 -43.5t-18 -27t-27.5 -18.5t-34 -7t-33.5 7t-27 18.5t-18.5 27t-7 33.5t7 34t18.5 28t26.5 19t43 7zM730 670q-69 -68 -204 -68l-4 -158h-100l-6 252h114q144 0 144 131q0 89 -79 142t-210 53h-35v100h41q194 0 301 -85.5
t107 -192.5q0 -106 -69 -174zM944 92v1122h-764v-1122h764zM1038 1307v-1307h-950v1307h950z" />
    <glyph glyph-name=".notdef" 
d="M480 354q28 0 52.5 -25t24.5 -53t-6.5 -43.5t-18 -27t-27.5 -18.5t-34 -7t-33.5 7t-27 18.5t-18.5 27t-7 33.5t7 34t18.5 28t26.5 19t43 7zM730 670q-69 -68 -204 -68l-4 -158h-100l-6 252h114q144 0 144 131q0 89 -79 142t-210 53h-35v100h41q194 0 301 -85.5
t107 -192.5q0 -106 -69 -174zM944 92v1122h-764v-1122h764zM1038 1307v-1307h-950v1307h950z" />
    <glyph glyph-name="glyph1" 
 />
    <glyph glyph-name="glyph2" horiz-adv-x="0" 
 />
    <glyph glyph-name="space" unicode=" " 
 />
    <glyph glyph-name="space" unicode="&#xa0;" 
 />
    <glyph glyph-name="exclam" unicode="!" 
d="M560 246q28 0 52 -10.5t41.5 -28.5t28 -42.5t10.5 -65t-38.5 -79t-79.5 -38.5t-65 10.5t-42 28t-28.5 41.5t-10.5 51t10.5 51.5t28.5 42.5t41.5 28.5t51.5 10.5zM666 1413l-27 -1030h-154l-30 1030h211z" />
    <glyph glyph-name="quotedbl" unicode="&#x22;" 
d="M868 1413l-28 -469h-164l-29 469h221zM479 1413l-28 -469h-164l-29 469h221z" />
    <glyph glyph-name="numbersign" unicode="#" 
d="M673 497l35 350h-256l-35 -350h256zM1030 367h-223l-37 -367h-148l37 367h-255l-37 -367h-148l37 367h-213v130h226l36 350h-211v130h224l34 330h146l-33 -330h256l34 330h148l-35 -330h215v-130h-228l-35 -350h210v-130z" />
    <glyph glyph-name="dollar" unicode="$" 
d="M817 352q0 98 -77.5 138.5t-129.5 60.5l-51 -395q258 19 258 196zM307 978q0 -72 47.5 -116.5t141.5 -81.5l51 375q-125 -11 -182.5 -58t-57.5 -119zM1004 360q0 -161 -126 -254.5t-339 -103.5l-33 -238h-146l33 238q-163 12 -282 43v166q130 -46 303 -55l59 450
q-169 65 -229.5 114.5t-91.5 104.5t-31 124q0 144 113.5 244.5t332.5 111.5l25 190h145l-26 -195q117 -11 202 -32v-154q-114 29 -221 39l-57 -428q175 -68 239.5 -119t97 -107.5t32.5 -138.5z" />
    <glyph glyph-name="percent" unicode="%" 
d="M700 285q0 -172 121 -172q56 0 89 47.5t33 124.5q0 172 -122 172q-87 0 -104 -67.5t-17 -104.5zM1090 292q0 -133 -75 -219.5t-198 -86.5q-190 0 -227 111.5t-37 179.5q0 135 74.5 221t197.5 86q190 0 227.5 -112t37.5 -180zM184 1128q0 -172 121 -172q87 0 104 67.5
t17 104.5q0 172 -121 172q-87 0 -104 -67.5t-17 -104.5zM573 1136q0 -136 -75 -221.5t-197 -85.5q-189 0 -226.5 111.5t-37.5 179.5q0 135 74.5 221t197.5 86q189 0 226.5 -111.5t37.5 -179.5zM1106 1413l-922 -1413h-164l920 1413h166z" />
    <glyph glyph-name="ampersand" unicode="&#x26;" 
d="M670 1092q0 60 -42 102.5t-98 42.5q-93 0 -136.5 -47.5t-43.5 -111.5t20 -111t64 -103l27 -35q105 59 140.5 95.5t52 72t16.5 95.5zM238 373q0 -107 65.5 -172.5t187.5 -65.5t220 96l-318 398q-155 -105 -155 -256zM57 352q0 202 98.5 280.5t147.5 108.5l-22 31
q-111 137 -111 282t92.5 237.5t252.5 92.5t245.5 -83t85.5 -207q0 -190 -120.5 -266.5t-176.5 -108.5l258 -322q44 118 41 285h176q0 -253 -100 -430l202 -252h-231l-88 109q-146 -123 -342 -123t-302 100.5t-106 265.5z" />
    <glyph glyph-name="quotesingle" unicode="'" 
d="M678 1413l-29 -469h-172l-28 469h229z" />
    <glyph glyph-name="parenleft" unicode="(" 
d="M478 537q0 -466 388 -850l-105 -107q-461 427 -461 952t465 957l101 -103q-388 -383 -388 -849z" />
    <glyph glyph-name="parenright" unicode=")" 
d="M647 534q0 468 -387 848l105 107q461 -427 461 -953t-465 -956l-101 103q387 383 387 851z" />
    <glyph glyph-name="asterisk" unicode="*" 
d="M961 840l-68 -119l-281 186l23 -342h-143l22 342l-287 -186l-63 117l307 151l-307 154l69 117l283 -189l-24 342h143l-25 -342l283 191l70 -123l-308 -152z" />
    <glyph glyph-name="plus" unicode="+" 
d="M1042 469h-393v-408h-172v408h-393v152h393v405h172v-405h393v-152z" />
    <glyph glyph-name="comma" unicode="," 
d="M455 79q-47 57 -47 96t8 62t24.5 42t42 31t81 12t106.5 -62.5t51 -161.5q0 -193 -127 -316.5t-356 -123.5v137q106 -4 185 42.5t79 115.5t-47 126z" />
    <glyph glyph-name="hyphen" unicode="-" 
d="M862 463h-598v164h598v-164z" />
    <glyph glyph-name="hyphen" unicode="&#x2010;" 
d="M862 463h-598v164h598v-164z" />
    <glyph glyph-name="hyphen" unicode="&#xad;" 
d="M862 463h-598v164h598v-164z" />
    <glyph glyph-name="period" unicode="." 
d="M673 265.5q48 -49.5 48 -117.5q0 -69 -48.5 -117.5t-117.5 -48.5t-117.5 48.5t-48.5 117.5t48 118t118 49t118 -49.5z" />
    <glyph glyph-name="slash" unicode="/" 
d="M967 1413l-686 -1628h-166l686 1628h166z" />
    <glyph glyph-name="zero" unicode="0" 
d="M821 946q-69 230 -267 230q-131 0 -189.5 -98.5t-79.5 -195t-21 -201.5t4 -144zM862 647q0 48 -8 133l-553 -411q69 -238 262 -238q139 0 219 133t80 383zM1038 665q0 -322 -124.5 -502.5t-360.5 -180.5q-336 0 -400.5 248.5t-64.5 410.5q0 321 124 502.5t361 181.5
q336 0 400.5 -249t64.5 -411z" />
    <glyph glyph-name="one" unicode="1" 
d="M997 0h-821v162h336v954l-313 -170l-64 148l416 219h154v-1151h292v-162z" />
    <glyph glyph-name="two" unicode="2" 
d="M547 1325q175 0 283 -102t108 -260q0 -159 -75 -276.5t-253 -289.5l-237 -231h635v-166h-861v156l338 336q163 161 204 231t51 113.5t10 93.5q0 105 -55.5 173t-170.5 68q-148 0 -276 -133l-96 115q163 172 395 172z" />
    <glyph glyph-name="three" unicode="3" 
d="M920 1001q0 -212 -215 -309q109 -17 193.5 -97.5t84.5 -181.5q0 -196 -145.5 -313.5t-417.5 -117.5q-134 0 -256 18v156q130 -23 272 -23q365 0 365 254q0 104 -89 159.5t-239 55.5h-149v143h151q119 0 190.5 60t71.5 167q0 106 -64 154t-189 48t-285 -52v152
q144 51 274 51q230 0 338.5 -86t108.5 -238z" />
    <glyph glyph-name="four" unicode="4" 
d="M672 442v697l-455 -697h455zM1073 289h-223v-289h-178v289h-629v153l557 865h250v-865h223v-153z" />
    <glyph glyph-name="five" unicode="5" 
d="M402 133q120 0 184 19t133 73.5t69 178.5t-87.5 179.5t-251.5 55.5h-248v668h704v-152h-540v-367h114q340 0 418 -131t78 -233q0 -197 -156.5 -319.5t-390.5 -122.5q-138 0 -250 18v158q104 -25 224 -25z" />
    <glyph glyph-name="six" unicode="6" 
d="M590 664q-149 0 -287 -89q0 -361 105.5 -405.5t167.5 -44.5q122 0 194 75t72 203q0 189 -93 225t-159 36zM123 561q0 746 670 746h129v-152h-140q-440 0 -475 -391l-4 -41q140 82 328 82t290.5 -106.5t102.5 -287.5t-127 -305t-330 -124q-444 0 -444 579z" />
    <glyph glyph-name="seven" unicode="7" 
d="M117 1145v162h884v-162l-548 -1145h-199l569 1145h-706z" />
    <glyph glyph-name="eight" unicode="8" 
d="M819 310q0 86 -59.5 151t-210.5 133q-194 -94 -218 -166t-24 -114q0 -84 70.5 -133.5t185.5 -49.5q177 0 216.5 68.5t39.5 110.5zM801 1004q0 176 -238 176q-112 0 -174.5 -43t-62.5 -125t61.5 -138t190.5 -114q113 53 168 110.5t55 133.5zM393 670q-246 125 -246 307
q0 155 110 251.5t310 96.5t306 -81.5t106 -210.5t-63.5 -209t-180.5 -140q199 -99 236 -195t37 -170q0 -154 -127 -245.5t-331 -91.5t-317.5 89t-113.5 221q0 133 67 220t207 158z" />
    <glyph glyph-name="nine" unicode="9" 
d="M283 903q0 -260 252 -260q154 0 286 88q0 360 -106.5 405.5t-166.5 45.5q-120 0 -192.5 -74.5t-72.5 -204.5zM821 584q-140 -82 -328 -82q-189 0 -291 107.5t-102 286.5t127 304t324 125q320 0 385 -217.5t65 -394.5q0 -713 -712 -713h-109v152h121q372 0 440 149t76 242
z" />
    <glyph glyph-name="colon" unicode=":" 
d="M671.5 27.5q-45.5 -45.5 -93.5 -45.5q-78 0 -123 45t-45 108t45.5 108.5t107.5 45.5t108 -46t46 -108t-45.5 -107.5zM671.5 760.5q-45.5 -45.5 -93.5 -45.5q-78 0 -123 45t-45 108t45.5 108.5t107.5 45.5t108 -46t46 -108t-45.5 -107.5z" />
    <glyph glyph-name="semicolon" unicode=";" 
d="M671.5 760.5q-45.5 -45.5 -93.5 -45.5q-78 0 -123 45t-45 108t45.5 108.5t107.5 45.5t108 -46t46 -108t-45.5 -107.5zM467 79q-47 57 -47 96t8 62t24.5 42t42 31t81 12t106.5 -62.5t51 -161.5q0 -193 -127 -316.5t-356 -123.5v137q106 -4 185 42.5t79 115.5t-47 126z" />
    <glyph glyph-name="less" unicode="&#x3c;" 
d="M918 94l-109 -110l-672 561l672 561l109 -111l-545 -448z" />
    <glyph glyph-name="equal" unicode="=" 
d="M993 298h-860v147h860v-147zM993 646h-860v147h860v-147z" />
    <glyph glyph-name="greater" unicode="&#x3e;" 
d="M209 995l108 111l672 -561l-672 -561l-108 110l545 449z" />
    <glyph glyph-name="question" unicode="?" 
d="M488 246q28 0 51.5 -10.5t41 -28.5t27.5 -42.5t10 -65.5t-38 -79t-79 -38t-65 10.5t-42 28t-28 41.5t-10 51t10 51.5t28 42.5t42 28.5t52 10.5zM922 969q0 -317 -351 -340l-8 -246h-149l-13 383h117q169 0 192 71.5t23 129.5t-30 115t-111.5 116t-263.5 59h-25v156h27
q369 0 480.5 -168t111.5 -276z" />
    <glyph glyph-name="at" unicode="@" 
d="M614 795q-40 0 -64 -21t-49.5 -69t-43 -146t-17.5 -190t12 -134t42 -42t56.5 28.5t61.5 104.5l66 438q-24 31 -64 31zM617 924q69 0 114 -27l129 31l-80 -520q-17 -124 -7.5 -160t23.5 -45.5t38 -9.5q56 0 96.5 127.5t40.5 321.5t-37 427.5t-291 233.5q-135 0 -277 -163
t-178 -412.5t-36 -381.5q0 -322 97 -480.5t265 -158.5t334 82v-129q-164 -76 -336 -76q-255 0 -377.5 191t-124.5 569q-3 454 177 767.5t474 313.5q222 0 336.5 -184t114.5 -532q-4 -646 -301 -646q-78 0 -116 40t-38 108q-38 -77 -82 -112.5t-106 -35.5q-188 0 -188 293
q0 205 77.5 386.5t258.5 181.5z" />
    <glyph glyph-name="A" unicode="A" 
d="M780 444l-221 699l-221 -699h442zM1116 0h-194l-91 285h-544l-92 -285h-185l434 1307h244z" />
    <glyph glyph-name="B" unicode="B" 
d="M827 385q0 153 -118.5 184t-190.5 31h-182v-450h188q153 0 228 57t75 178zM784 957q0 99 -59.5 149.5t-204.5 50.5h-184v-409h178q192 0 231 80.5t39 128.5zM969 989q0 -225 -215 -295q180 -34 221 -136t41 -182t-36.5 -152t-139 -148t-340.5 -76h-342v1307h374
q437 0 437 -318z" />
    <glyph glyph-name="C" unicode="C" 
d="M686 143q159 0 309 74v-168q-157 -65 -329 -65q-277 0 -425.5 165.5t-148.5 485.5t158 504t426 184q177 0 319 -63v-175q-146 80 -322 80q-177 0 -284.5 -135.5t-107.5 -381.5q0 -247 103 -376t302 -129z" />
    <glyph glyph-name="D" unicode="D" 
d="M866 655q0 273 -103 387.5t-323 114.5h-153v-1003h133q446 0 446 501zM1053 668q0 -539 -269.5 -603.5t-394.5 -64.5h-280v1307h337q306 0 456.5 -157.5t150.5 -481.5z" />
    <glyph glyph-name="E" unicode="E" 
d="M944 0h-743v1307h743v-150h-565v-405h543v-150h-543v-450h565v-152z" />
    <glyph glyph-name="F" unicode="F" 
d="M942 1155h-555v-424h526v-149h-526v-582h-182v1307h737v-152z" />
    <glyph glyph-name="G" unicode="G" 
d="M688 1165q-205 0 -320.5 -140.5t-115.5 -373.5q0 -512 420 -512q92 0 164 27v416h-267v147h443v-668q-170 -79 -335 -79q-164 0 -271.5 42t-223.5 169t-116 445q0 319 169.5 503t450.5 184q180 0 320 -65v-177q-153 82 -318 82z" />
    <glyph glyph-name="H" unicode="H" 
d="M1016 0h-178v600h-549v-600h-178v1307h178v-553h549v553h178v-1307z" />
    <glyph glyph-name="I" unicode="I" 
d="M473 1157h-301v150h782v-150h-301v-1005h301v-152h-782v152h301v1005z" />
    <glyph glyph-name="J" unicode="J" 
d="M469 141q109 0 168 66.5t59 191.5v754h-497v154h678v-908q0 -180 -106 -296.5t-304 -116.5q-122 0 -191.5 28.5t-93.5 44.5v179q134 -97 287 -97z" />
    <glyph glyph-name="K" unicode="K" 
d="M334 0h-178v1307h178v-607l479 607h211l-516 -621l539 -686h-224l-489 641v-641z" />
    <glyph glyph-name="L" unicode="L" 
d="M985 0h-752v1307h181v-1155h571v-152z" />
    <glyph glyph-name="M" unicode="M" 
d="M1077 0h-174l-26 815l-11 313l-61 -182l-193 -520h-123l-184 500l-61 202l-4 -327l-23 -801h-168l64 1307h211l233 -658l55 166l185 492h217z" />
    <glyph glyph-name="N" unicode="N" 
d="M1008 0h-232l-381 815l-110 262v-1077h-166v1307h229l363 -772l131 -299v1071h166v-1307z" />
    <glyph glyph-name="O" unicode="O" 
d="M808 1031q-78 138 -241 138t-244 -144t-81 -368q0 -374 117.5 -447t202.5 -73t146 40.5t119.5 143.5t58.5 337q0 235 -78 373zM925 155q-146 -173 -383 -173t-361 173.5t-124 498.5t145.5 498t381.5 173q235 0 361 -173.5t126 -498.5t-146 -498z" />
    <glyph glyph-name="P" unicode="P" 
d="M831 892q0 133 -82.5 200t-230.5 67h-182v-538h166q158 0 243.5 69t85.5 202zM1016 922q0 -192 -132 -322.5t-386 -130.5h-162v-469h-178v1307h368q337 0 413.5 -145.5t76.5 -239.5z" />
    <glyph glyph-name="Q" unicode="Q" 
d="M808 1030q-78 137 -241 137t-244 -142t-81 -361q0 -381 117.5 -453t202.5 -72t146 40t119.5 142t58.5 337t-78 372zM57 657q0 158 41 288t145.5 255t340.5 125t361.5 -173t125.5 -481t-120.5 -479.5t-317.5 -203.5q15 -88 70 -141.5t155 -53.5t189 70l79 -123
q-122 -100 -280 -100q-253 0 -313 131t-66 217q-410 59 -410 669z" />
    <glyph glyph-name="R" unicode="R" 
d="M766 948q0 105 -65.5 157t-184.5 52h-168v-432h144q195 0 234.5 84.5t39.5 138.5zM432 582h-84v-582h-178v1307h350q329 0 380.5 -133.5t51.5 -202.5q0 -133 -73.5 -225t-206.5 -123q55 -19 93.5 -66.5t78.5 -126.5l207 -430h-201l-195 418q-43 93 -93.5 128.5
t-129.5 35.5z" />
    <glyph glyph-name="S" unicode="S" 
d="M606 1171q-149 0 -221 -51t-72 -137q0 -127 198 -206t342 -151.5t144 -262.5t-139.5 -285.5t-358.5 -95.5q-218 0 -388 45v172q161 -60 394 -60q306 0 306 207q0 123 -198 202t-342 150.5t-144 266.5q0 149 123 254.5t364 105.5q138 0 299 -39v-160q-158 45 -307 45z" />
    <glyph glyph-name="T" unicode="T" 
d="M1040 1155h-387v-1155h-180v1155h-387v152h954v-152z" />
    <glyph glyph-name="U" unicode="U" 
d="M840 444v863h178v-852q0 -219 -121.5 -346t-339.5 -127q-448 0 -448 446v879h178v-865q0 -159 64.5 -235t211.5 -76q277 0 277 313z" />
    <glyph glyph-name="V" unicode="V" 
d="M1122 1307l-444 -1307h-240l-434 1307h201l362 -1139l365 1139h190z" />
    <glyph glyph-name="W" unicode="W" 
d="M1081 1307l-88 -1307h-231l-162 465l-45 149l-47 -161l-150 -453h-223l-90 1307h168l51 -889l15 -244l63 207l158 485h123l243 -692l4 180l52 953h159z" />
    <glyph glyph-name="X" unicode="X" 
d="M1102 0h-225l-318 528l-319 -528h-222l435 668l-400 639h211l299 -492l301 492h205l-401 -631z" />
    <glyph glyph-name="Y" unicode="Y" 
d="M653 0h-180v471l-473 836h215l260 -478l96 -192l88 174l263 496h204l-473 -840v-467z" />
    <glyph glyph-name="Z" unicode="Z" 
d="M1014 166v-166h-903v133l671 1012h-653v162h872v-140l-667 -1001h680z" />
    <glyph glyph-name="bracketleft" unicode="[" 
d="M838 -410h-493v1858h493v-140h-327v-1578h327v-140z" />
    <glyph glyph-name="backslash" unicode="\" 
d="M1012 -215h-166l-686 1628h166z" />
    <glyph glyph-name="bracketright" unicode="]" 
d="M781 -410h-493v140h325v1578h-325v140h493v-1858z" />
    <glyph glyph-name="asciicircum" unicode="^" 
d="M1014 668h-174l-289 501l-272 -501h-158l366 639h142z" />
    <glyph glyph-name="underscore" unicode="_" 
d="M1126 -410h-1126v144h1126v-144z" />
    <glyph glyph-name="grave" unicode="`" 
d="M668 1171h-174l-320 242h252z" />
    <glyph glyph-name="a" unicode="a" 
d="M786 457h-221q-187 0 -217.5 -70.5t-30.5 -106.5q0 -70 40.5 -111.5t127.5 -41.5q136 0 301 152v178zM133 279q0 140 112.5 225.5t332.5 85.5h208v88q0 89 -57 142.5t-193 53.5t-319 -73v157q176 64 352 64q285 0 338.5 -123t53.5 -207v-692h-156l-4 135
q-155 -153 -331 -153t-256.5 78.5t-80.5 218.5z" />
    <glyph glyph-name="b" unicode="b" 
d="M521 129q319 0 319 383q0 255 -75 306.5t-119 51.5q-80 0 -152 -48t-160 -163v-487q109 -43 187 -43zM670 1022q168 0 258 -134t90 -375t-132 -383t-360 -142q-191 0 -366 71v1354h174v-389l-8 -186q137 184 344 184z" />
    <glyph glyph-name="c" unicode="c" 
d="M286.5 115q-128.5 129 -128.5 371t140.5 387t365.5 145q159 0 276 -47v-166q-124 65 -267 65t-238 -101t-95 -277t88 -266.5t238 -90.5t274 64v-162q-133 -51 -287 -51q-238 0 -366.5 129z" />
    <glyph glyph-name="d" unicode="d" 
d="M287 499q0 -368 205 -368q131 0 294 234v466q-88 41 -214 41t-205.5 -92t-79.5 -281zM457 -18q-169 0 -258.5 134.5t-89.5 375.5t133 382.5t358 141.5q99 0 186 -25v422h175v-1413h-156l-6 190q-143 -208 -342 -208z" />
    <glyph glyph-name="e" unicode="e" 
d="M380 799.5q-71 -83.5 -81 -219.5h528q6 136 -64 219.5t-191 83.5t-192 -83.5zM608 -18q-491 0 -491 518q0 220 123.5 371t331.5 151t322 -124.5t114 -342.5q0 -65 -4 -109h-705q0 -154 86 -236.5t251 -82.5t318 43v-143q-160 -45 -346 -45z" />
    <glyph glyph-name="f" unicode="f" 
d="M815 1280q-235 0 -235 -246v-176h440v-145h-440v-713h-177v713h-323v145h323v166q0 401 418 401q104 0 230 -24v-150q-137 29 -236 29z" />
    <glyph glyph-name="g" unicode="g" 
d="M393 520q61 -59 159 -59t156 63.5t58 155.5q0 93 -61 152t-158 59t-156 -63t-59 -156t61 -152zM279 -145q0 -136 280 -136q227 0 261 71t34 104q0 61 -50 90t-153 34l-262 9q-64 -43 -87 -84t-23 -88zM547 -420q-453 0 -453 268q0 126 139 226q-74 34 -87 86.5t-13 75.5
q0 103 103 221q-80 97 -80 215q0 156 108.5 253t284.5 97q73 0 131 -18h364v-142h-161q59 -74 59 -167q0 -172 -109.5 -268.5t-283.5 -96.5q-130 0 -205 47q-45 -66 -45 -107q0 -40 36.5 -65t96.5 -27l264 -10q242 -6 293 -100t51 -158q0 -141 -125.5 -235.5t-367.5 -94.5z
" />
    <glyph glyph-name="h" unicode="h" 
d="M793 641q0 231 -168 231q-69 0 -128 -42t-163 -164v-666h-174v1413h174v-409l-6 -158q117 140 199 158t126 18q150 0 232 -91.5t82 -275.5v-655h-174v641z" />
    <glyph glyph-name="i" unicode="i" 
d="M563 1425q59 0 98 -40.5t39 -82.5t-10.5 -67t-29 -44t-43.5 -29.5t-69 -10.5t-83 40.5t-39 82.5q0 43 10.5 67.5t39 54t87.5 29.5zM502 860h-297v144h473v-859h299v-145h-805v145h330v715z" />
    <glyph glyph-name="j" unicode="j" 
d="M735 1425q59 0 98 -40.5t39 -82.5q0 -43 -10.5 -67.5t-29 -43.5t-43.5 -29.5t-69 -10.5t-83 40.5t-39 82.5t10.5 67t39 54.5t87.5 29.5zM420 -272q114 0 179 72t65 212v848h-492v144h668v-986q0 -208 -115 -323t-322 -115q-151 0 -272 51v166q134 -69 289 -69z" />
    <glyph glyph-name="k" unicode="k" 
d="M356 0h-174v1413h174v-868l451 459h230l-471 -463l497 -541h-239l-468 538v-538z" />
    <glyph glyph-name="l" unicode="l" 
d="M502 1270h-297v143h473v-1268h299v-145h-805v145h330v1125z" />
    <glyph glyph-name="m" unicode="m" 
d="M453 1022q165 0 165 -217q53 116 102 166.5t127 50.5q189 0 189 -291v-731h-160v721q0 129 -23 142.5t-41 13.5q-35 0 -68 -46t-102 -186v-645h-159v702q0 105 -11 133t-22.5 35t-29.5 7q-35 0 -69.5 -46t-100.5 -186v-645h-160v1004h133l8 -191q53 116 102 162.5
t120 46.5z" />
    <glyph glyph-name="n" unicode="n" 
d="M793 641q0 231 -175 231q-66 0 -127.5 -44t-156.5 -162v-666h-174v1004h155l7 -162q124 146 205.5 163t125.5 17q314 0 314 -367v-655h-174v641z" />
    <glyph glyph-name="o" unicode="o" 
d="M778.5 779q-77.5 95 -219.5 95t-215.5 -105t-73.5 -267q0 -275 112.5 -324t185.5 -49t128.5 30.5t107.5 105t52 247.5q0 172 -77.5 267zM904.5 127q-129.5 -145 -349.5 -145t-341.5 133t-121.5 375t129.5 387t348.5 145q220 0 342 -132t122 -375t-129.5 -388z" />
    <glyph glyph-name="p" unicode="p" 
d="M840 512q0 255 -75 306.5t-119 51.5q-80 0 -152 -48t-160 -163v-487q103 -43 205 -43q141 0 221 95.5t80 287.5zM326 836q136 186 338 186q174 0 264 -134t90 -381q0 -246 -136.5 -382.5t-354.5 -136.5q-104 0 -193 22v-420h-174v1414h155z" />
    <glyph glyph-name="q" unicode="q" 
d="M287 492q0 -262 76.5 -311.5t128.5 -49.5q131 0 294 234v466q-91 43 -198 43q-147 0 -224 -97t-77 -285zM585 1016q114 0 222 -33l154 39v-1432h-175v379l9 215q-142 -202 -338 -202q-171 0 -259.5 134.5t-88.5 365.5t88 339.5t181 151.5t207 43z" />
    <glyph glyph-name="r" unicode="r" 
d="M377 0h-176v1004h159l5 -185q169 203 350 203q156 0 236.5 -101t74.5 -300h-176q6 251 -160 251q-72 0 -146 -54t-167 -173v-645z" />
    <glyph glyph-name="s" unicode="s" 
d="M373 784.5q0 -92.5 52 -130t176 -73.5q212 -62 283 -127.5t71 -179.5q0 -190 -158 -241t-309 -51q-150 0 -306 38v160q180 -51 348 -51q245 0 245 131q0 55 -45.5 91t-166.5 71q-121 36 -244.5 91t-123.5 224q0 106 97.5 195.5t315.5 89.5q140 0 281 -29v-155
q-160 39 -283 39q-233 0 -233 -92.5z" />
    <glyph glyph-name="t" unicode="t" 
d="M344 334v524h-281v146h281v276l174 45v-321h451v-146h-451v-510q0 -215 227 -215q104 0 224 31v-150q-110 -28 -250 -28q-189 0 -282 85.5t-93 262.5z" />
    <glyph glyph-name="u" unicode="u" 
d="M473 -18q-313 0 -313 366v656h174v-642q0 -231 174 -231q66 0 128.5 44t156.5 163v666h174v-1004h-156l-6 162q-127 -146 -207 -163t-125 -17z" />
    <glyph glyph-name="v" unicode="v" 
d="M66 1004h198l246 -664l53 -162l55 166l244 660h191l-394 -1004h-200z" />
    <glyph glyph-name="w" unicode="w" 
d="M1090 1004l-146 -1004h-211l-145 420l-29 102l-33 -108l-139 -414h-205l-145 1004h170l102 -834l189 584h125l202 -578l93 828h172z" />
    <glyph glyph-name="x" unicode="x" 
d="M1065 0h-231l-271 383l-268 -383h-225l389 504l-371 500h223l264 -386l259 386h215l-377 -504z" />
    <glyph glyph-name="y" unicode="y" 
d="M164 -262q96 0 168 61.5t135 200.5l-401 1004h198l254 -664l51 -156l293 820h191l-342 -898q-109 -281 -236 -401.5t-323 -120.5q-43 0 -93 4v158q59 -8 105 -8z" />
    <glyph glyph-name="z" unicode="z" 
d="M973 0h-809v125l567 733h-553v146h762v-136l-557 -721h590v-147z" />
    <glyph glyph-name="braceleft" unicode="{" 
d="M897 -410h-74q-193 0 -287 90.5t-94 274.5v344q0 105 -53 156t-184 51h-43v139h43q140 0 188.5 46t48.5 155v237q0 365 381 365h74v-140h-59q-232 0 -232 -225v-233q0 -244 -211 -275q213 -21 213 -274v-342q0 -229 230 -229h59v-140z" />
    <glyph glyph-name="bar" unicode="|" 
d="M645 -410h-164v2048h164v-2048z" />
    <glyph glyph-name="braceright" unicode="}" 
d="M229 1448h74q193 0 287 -90.5t94 -274.5v-231q0 -105 53 -156t185 -51h43v-139h-43q-141 0 -189.5 -46t-48.5 -155v-350q0 -365 -381 -365h-74v140h60q231 0 231 225v346q0 244 211 274q-213 23 -213 275v229q0 229 -229 229h-60v140z" />
    <glyph glyph-name="asciitilde" unicode="~" 
d="M226 401h-160q-4 155 70 254t207 99q134 0 231.5 -102t136.5 -126t73 -24q63 0 90 46t27 148h160q3 -245 -104.5 -298.5t-170.5 -53.5t-107 18.5t-81.5 46.5t-69 61t-82 79.5t-104.5 46.5q-116 0 -116 -195z" />
    <glyph glyph-name="exclamdown" unicode="&#xa1;" 
d="M473 797q-39 39 -39 80q0 69 39.5 107t79.5 38q67 0 106 -38t39 -80q0 -41 -10.5 -65t-39 -52.5t-82.5 -28.5t-93 39zM461 -410l26 1031h154l31 -1031h-211z" />
    <glyph glyph-name="cent" unicode="&#xa2;" 
d="M307 638q0 -104 50 -185t141 -115l90 676q-124 -17 -202.5 -109t-78.5 -267zM477 182q-352 72 -352 485q0 212 133.5 350t349.5 146l43 332h148l-45 -340q74 -9 153 -37v-164q-84 40 -172 56l-94 -693q144 0 266 60v-158q-134 -49 -284 -49l-58 -420h-145z" />
    <glyph glyph-name="sterling" unicode="&#xa3;" 
d="M866 722v-143h-436v-431h567v-148h-905v148h160v431h-160v143h160v180q0 200 113 311.5t306 111.5t335 -130l-97 -111q-85 72 -143 82.5t-105 10.5q-103 0 -167 -68t-64 -193v-194h436z" />
    <glyph glyph-name="currency" unicode="&#xa4;" 
d="M707 858.5q-53 65.5 -146 65.5t-144 -78t-51 -196q0 -119 53 -185t147 -66t144 78.5t50 197.5q0 118 -53 183.5zM557 246q-105 0 -180 37l-141 -222l-150 91l174 229q-74 108 -74 270t82 277l-182 243l154 91l147 -230q78 45 182 45t181 -37l141 222l149 -91l-174 -229
q74 -108 74 -270t-82 -277l182 -243l-153 -91l-148 230q-77 -45 -182 -45z" />
    <glyph glyph-name="yen" unicode="&#xa5;" 
d="M653 573h308v-135h-308v-162h308v-135h-308v-141h-180v141h-307v135h307v162h-309v135h309v29l-418 705h205l209 -367l100 -188l312 555h196l-424 -705v-29z" />
    <glyph glyph-name="brokenbar" unicode="&#xa6;" 
d="M481 827v811h164v-811h-164zM645 -410h-164v836h164v-836z" />
    <glyph glyph-name="section" unicode="&#xa7;" 
d="M821 510q0 104 -94 172.5t-162.5 107t-130.5 80.5q-86 -43 -104.5 -101t-18.5 -79q0 -104 92.5 -173.5t160.5 -108.5t132 -80q56 27 90.5 81t34.5 101zM893 87q0 -158 -128.5 -239t-295.5 -81t-295 34v160q145 -47 281 -47q258 0 258 156q0 57 -65 102t-116 74
t-143.5 84.5t-170 141t-77.5 207.5t66 189t110 93q-75 62 -75 169t98 201t315 94q115 0 226 -24v-150q-115 31 -230 31q-229 0 -229 -147q0 -78 202 -192.5t284.5 -207.5t82.5 -216q0 -122 -67 -189t-109 -92q78 -63 78 -151z" />
    <glyph glyph-name="dieresis" unicode="&#xa8;" 
d="M778 1405q23 0 43.5 -9t36 -24.5t24.5 -36t9 -43.5t-9 -43.5t-24.5 -35.5t-36 -24t-43.5 -9t-43.5 9t-35.5 24t-24 35.5t-9 43.5t9 43.5t24 36t35.5 24.5t43.5 9zM348 1405q23 0 43.5 -9t36 -24.5t24.5 -36t9 -43.5t-9 -43.5t-24.5 -35.5t-36 -24t-43.5 -9t-43.5 9
t-35.5 24t-24 35.5t-9 43.5t9 43.5t24 36t35.5 24.5t43.5 9z" />
    <glyph glyph-name="copyright" unicode="&#xa9;" 
d="M451 650q0 -205 174 -205q76 0 145 37v-130q-83 -33 -174 -33q-297 0 -297 328q0 155 82.5 247.5t220.5 92.5q93 0 168 -31v-134q-72 39 -150 39q-79 0 -124 -54.5t-45 -156.5zM271 1044.5q-111 -147.5 -111 -385.5t110.5 -391t292.5 -153t292.5 147t110.5 386
t-110.5 391.5t-291.5 152.5q-182 0 -293 -147.5zM966 1133q148 -190 148 -484t-153 -479.5t-403 -185.5t-398 189.5t-148 483.5t153.5 480t402.5 186q250 0 398 -190z" />
    <glyph glyph-name="ordfeminine" unicode="&#xaa;" 
d="M506 739q78 0 176 88v101h-119q-115 0 -134 -41t-19 -62q0 -86 96 -86zM459 616q-99 0 -157 51t-58 151t83 159t251 59h104v49q0 113 -152 113q-102 0 -233 -53v133q110 43 252 43q291 0 291 -229v-461h-133l-11 92q-103 -107 -237 -107zM901 358h-676v136h676v-136z" />
    <glyph glyph-name="guillemotleft" unicode="&#xab;" 
d="M971 870l-234 -327l234 -328l-133 -72l-275 400l275 399zM539 877l-218 -334l218 -336l-138 -70l-258 406l258 403z" />
    <glyph glyph-name="logicalnot" unicode="&#xac;" 
d="M971 174h-170v295h-684v152h854v-447z" />
    <glyph glyph-name="registered" unicode="&#xae;" 
d="M885.5 1292q134.5 -133 134.5 -323q0 -189 -134 -323t-323 -134t-323 134t-134 323t134.5 322.5t322.5 133.5t322.5 -133zM321 1219.5q-100 -103.5 -100 -251.5t100 -251t242 -103t242 103t100 251t-100 251.5t-242 103.5t-242 -103.5zM539 1001q102 0 102 73t-98 73h-45
v-146h41zM553 1229q192 -1 192 -133q0 -122 -114 -140q35 -10 67 -73l82 -174h-116l-74 168q-22 47 -72 47h-20v-215h-101v520h156z" />
    <glyph glyph-name="macron" unicode="&#xaf;" 
d="M825 1225h-524v133h524v-133z" />
    <glyph glyph-name="macron" unicode="&#x2c9;" 
d="M825 1225h-524v133h524v-133z" />
    <glyph glyph-name="degree" unicode="&#xb0;" 
d="M751 1090q0 142 -68.5 171t-116.5 29q-91 0 -141 -54t-50 -146q0 -143 69 -172t119 -29q90 0 139 55t49 146zM813 852q-100 -98 -259 -98t-250 89.5t-91 237.5t100 246t260 98t250 -90t90 -238q0 -147 -100 -245z" />
    <glyph glyph-name="plusminus" unicode="&#xb1;" 
d="M993 0h-860v145h860v-145zM1022 684h-375v-389h-168v389h-375v147h375v388h168v-388h375v-147z" />
    <glyph glyph-name="uni00B2" unicode="&#xb2;" 
d="M651 1170q0 110 -150 110q-83 0 -163 -69l-86 106q113 113 302 113t259 -138q23 -46 23 -100q0 -98 -54 -170q-54 -73 -170 -155l-114 -82h385v-154h-637v143l217 168q114 89 151 133q37 45 37 95z" />
    <glyph glyph-name="uni00B3" unicode="&#xb3;" 
d="M862 869q0 -115 -100 -185q-100 -69 -262 -69t-226 16v140q68 -16 182 -16q222 0 222 107t-203 107h-82v129h76q172 0 172 106q0 86 -141 86q-106 0 -209 -32v141q106 31 248 31q141 0 211 -54t71 -141q0 -131 -125 -186q166 -44 166 -180z" />
    <glyph glyph-name="acute" unicode="&#xb4;" 
d="M952 1413l-319 -242h-174l241 242h252z" />
    <glyph glyph-name="mu" unicode="&#xb5;" 
d="M334 -410h-174v1414h174v-639q0 -232 174 -232q66 0 126 43t146 162v666h174v-689q0 -103 18 -131q18 -29 37 -38q20 -9 50 -9h18v-139q-193 -41 -253 98q-14 34 -23 76q-142 -188 -306 -188q-109 0 -175 76l14 -173v-297z" />
    <glyph glyph-name="paragraph" unicode="&#xb6;" 
d="M563 -84q260 0 260 283v1071h-168v-699q-289 0 -417.5 115.5t-128.5 303.5t137 305.5t405 117.5h346v-1208q0 -210 -114 -324t-309 -114t-349 122l90 131q119 -104 248 -104z" />
    <glyph glyph-name="periodcentered" unicode="&#xb7;" 
d="M680 448q-49 -49 -117 -49t-117 49t-49 118t49 118t117 49t117 -49t49 -118t-49 -118z" />
    <glyph glyph-name="periodcentered" unicode="&#x2219;" 
d="M680 448q-49 -49 -117 -49t-117 49t-49 118t49 118t117 49t117 -49t49 -118t-49 -118z" />
    <glyph glyph-name="cedilla" unicode="&#xb8;" 
d="M674 0l-86 -295h-152l66 295h172z" />
    <glyph glyph-name="uni00B9" unicode="&#xb9;" 
d="M879 631h-613v145h238v467l-219 -108l-58 131l312 156h139v-646h201v-145z" />
    <glyph glyph-name="ordmasculine" unicode="&#xba;" 
d="M741 971q0 214 -178 214q-85 0 -131.5 -61t-46.5 -162q0 -102 48.5 -156t131.5 -54t129.5 60.5t46.5 158.5zM905 980q0 -160 -94.5 -262t-253.5 -102q-244 0 -290 131t-46 213q0 160 94.5 260.5t257.5 100.5q240 0 286 -130.5t46 -210.5zM901 358h-676v136h676v-136z" />
    <glyph glyph-name="guillemotright" unicode="&#xbb;" 
d="M156 215l233 328l-233 327l133 72l274 -399l-274 -400zM588 207l217 336l-217 334l137 69l258 -403l-258 -406z" />
    <glyph glyph-name="onequarter" unicode="&#xbc;" 
d="M834 231v226l-146 -226h146zM1077 109h-90v-109h-153v109h-299v122l219 338h233v-338h90v-122zM246 844v426l-166 -90l-55 116l239 129h139v-581h-157zM1106 1413l-922 -1413h-164l920 1413h166z" />
    <glyph glyph-name="onehalf" unicode="&#xbd;" 
d="M246 844v426l-166 -90l-55 116l239 129h139v-581h-157zM1022 284.5q-39 -50.5 -133 -116.5l-62 -43h252v-125h-440v125l186 147q47 35 63.5 60.5t16.5 54.5q0 74 -80 74q-54 0 -125 -60l-67 101q95 82 200 82t166.5 -50.5t61.5 -124.5t-39 -124.5zM1106 1413l-922 -1413
h-164l920 1413h166z" />
    <glyph glyph-name="threequarters" unicode="&#xbe;" 
d="M489 1022q0 -86 -73.5 -139.5t-208.5 -53.5q-65 0 -121 13v119q51 -11 113 -11q116 0 116 68q0 34 -24 47.5t-78 13.5h-90v113h84q82 0 82 61q0 23 -18.5 39.5t-59.5 16.5t-115 -17v113q62 22 158 22t148.5 -38t52.5 -103q0 -101 -80 -133q114 -22 114 -131zM834 231v226
l-146 -226h146zM1077 109h-90v-109h-153v109h-299v122l219 338h233v-338h90v-122zM1106 1413l-922 -1413h-164l920 1413h166z" />
    <glyph glyph-name="questiondown" unicode="&#xbf;" 
d="M637 758q-56 0 -93.5 39t-37.5 80t10 65t27.5 41.5t41.5 28t65.5 10.5t79.5 -38t38 -80t-10 -65.5t-37.5 -52t-83.5 -28.5zM203 35q0 317 350 340l8 246h150l12 -383h-117q-169 0 -192 -72t-23 -130t30.5 -114.5t113 -116t262.5 -59.5h24v-156h-26q-286 0 -439 138.5
t-153 306.5z" />
    <glyph glyph-name="Agrave" unicode="&#xc0;" 
d="M780 444l-221 699l-221 -699h442zM1116 0h-194l-91 285h-544l-92 -285h-185l434 1307h244zM668 1446h-179l-284 213h252z" />
    <glyph glyph-name="Aacute" unicode="&#xc1;" 
d="M780 444l-221 699l-221 -699h442zM1116 0h-194l-91 285h-544l-92 -285h-185l434 1307h244zM922 1659l-285 -213h-178l211 213h252z" />
    <glyph glyph-name="Acircumflex" unicode="&#xc2;" 
d="M780 444l-221 699l-221 -699h442zM1116 0h-194l-91 285h-544l-92 -285h-185l434 1307h244zM879 1446h-183l-135 102l-135 -102h-178l231 213h168z" />
    <glyph glyph-name="Atilde" unicode="&#xc3;" 
d="M780 444l-221 699l-221 -699h442zM1116 0h-194l-91 285h-544l-92 -285h-185l434 1307h244zM422 1671q85 0 169 -54q31 -20 59 -37t61 -17q65 0 129 98l86 -82q-89 -145 -221 -145q-85 0 -169 54q-30 20 -58 37t-66 17q-62 0 -125 -98l-86 82q87 145 221 145z" />
    <glyph glyph-name="Adieresis" unicode="&#xc4;" 
d="M780 444l-221 699l-221 -699h442zM1116 0h-194l-91 285h-544l-92 -285h-185l434 1307h244zM782 1659q22 -1 42 -9t34 -22t22 -34t9 -42q0 -44 -31 -75t-76 -31q-46 0 -76 30t-30 64t8 54t23 34q13 14 33 22t42 9zM344 1659q22 -1 42 -9t34 -22t22 -34t9 -42
q0 -45 -32 -75q-32 -31 -76 -31q-45 0 -75 30t-30 64t8 54t23 34q13 14 33 22t42 9z" />
    <glyph glyph-name="Aring" unicode="&#xc5;" 
d="M780 444l-221 699l-221 -699h442zM1116 0h-194l-91 285h-544l-92 -285h-185l434 1307h244zM564 1638q-41 0 -66 -24t-25 -64t25 -65t66 -25t65 25t24 65t-24 64t-65 24zM764 1550q0 -84 -57 -138t-143 -54t-144 55t-58 137q0 83 57 136q57 54 144 54q88 0 145 -53
q56 -53 56 -137z" />
    <glyph glyph-name="AE" unicode="&#xc6;" 
d="M584 424v743l-287 -743h287zM1085 0h-501v281h-342l-109 -281h-176l532 1307h582v-142h-321v-417h307v-142h-307v-463h335v-143z" />
    <glyph glyph-name="Ccedilla" unicode="&#xc7;" 
d="M686 143q159 0 309 74v-168q-159 -65 -319 -65l-82 -279h-152l66 295q-202 41 -309 204.5t-107 456.5t158 477.5t426 184.5q177 0 319 -63v-175q-146 80 -322 80q-177 0 -284.5 -135.5t-107.5 -380.5q0 -246 103 -376t302 -130z" />
    <glyph glyph-name="Egrave" unicode="&#xc8;" 
d="M944 0h-743v1307h743v-150h-565v-405h543v-150h-543v-450h565v-152zM668 1446h-179l-284 213h252z" />
    <glyph glyph-name="Eacute" unicode="&#xc9;" 
d="M944 0h-743v1307h743v-150h-565v-405h543v-150h-543v-450h565v-152zM922 1659l-285 -213h-178l211 213h252z" />
    <glyph glyph-name="Ecircumflex" unicode="&#xca;" 
d="M944 0h-743v1307h743v-150h-565v-405h543v-150h-543v-450h565v-152zM879 1446h-183l-135 102l-135 -102h-178l231 213h168z" />
    <glyph glyph-name="Edieresis" unicode="&#xcb;" 
d="M944 0h-743v1307h743v-150h-565v-405h543v-150h-543v-450h565v-152zM782 1659q22 -1 42 -9t34 -22t22 -34t9 -42q0 -44 -31 -75t-76 -31q-46 0 -76 30t-30 64t8 54t23 34q13 14 33 22t42 9zM344 1659q22 -1 42 -9t34 -22t22 -34t9 -42q0 -45 -32 -75q-32 -31 -76 -31
q-45 0 -75 30t-30 64t8 54t23 34q13 14 33 22t42 9z" />
    <glyph glyph-name="Igrave" unicode="&#xcc;" 
d="M473 1157h-301v150h782v-150h-301v-1005h301v-152h-782v152h301v1005zM668 1446h-179l-284 213h252z" />
    <glyph glyph-name="Iacute" unicode="&#xcd;" 
d="M473 1157h-301v150h782v-150h-301v-1005h301v-152h-782v152h301v1005zM922 1659l-285 -213h-178l211 213h252z" />
    <glyph glyph-name="Icircumflex" unicode="&#xce;" 
d="M473 1157h-301v150h782v-150h-301v-1005h301v-152h-782v152h301v1005zM879 1446h-183l-135 102l-135 -102h-178l231 213h168z" />
    <glyph glyph-name="Idieresis" unicode="&#xcf;" 
d="M473 1157h-301v150h782v-150h-301v-1005h301v-152h-782v152h301v1005zM782 1659q22 -1 42 -9t34 -22t22 -34t9 -42q0 -44 -31 -75t-76 -31q-46 0 -76 30t-30 64t8 54t23 34q13 14 33 22t42 9zM344 1659q22 -1 42 -9t34 -22t22 -34t9 -42q0 -45 -32 -75q-32 -31 -76 -31
q-45 0 -75 30t-30 64t8 54t23 34q13 14 33 22t42 9z" />
    <glyph glyph-name="Eth" unicode="&#xd0;" 
d="M317 154h113q223 0 329.5 125.5t106.5 387.5t-98.5 376t-316.5 114h-134v-405h226v-150h-226v-448zM1053 668q0 -668 -654 -668h-260v602h-139v150h139v555h318q305 0 450.5 -157.5t145.5 -481.5z" />
    <glyph glyph-name="Ntilde" unicode="&#xd1;" 
d="M1008 0h-232l-381 815l-110 262v-1077h-166v1307h229l363 -772l131 -299v1071h166v-1307zM422 1671q85 0 169 -54q31 -20 59 -37t61 -17q65 0 129 98l86 -82q-89 -145 -221 -145q-85 0 -169 54q-30 20 -58 37t-66 17q-62 0 -125 -98l-86 82q87 145 221 145z" />
    <glyph glyph-name="Ograve" unicode="&#xd2;" 
d="M808 1031q-78 138 -241 138t-244 -144t-81 -368q0 -374 174 -482q61 -38 146 -38q85 1 146 41q60 40 100 110q78 136 78 370q0 235 -78 373zM925 155q-146 -173 -383 -173t-361 173t-124 499q0 325 146 498t381 173t361 -174t126 -498q0 -325 -146 -498zM668 1446h-179
l-284 213h252z" />
    <glyph glyph-name="Oacute" unicode="&#xd3;" 
d="M808 1031q-78 138 -241 138t-244 -144t-81 -368q0 -374 174 -482q61 -38 146 -38q85 1 146 41q60 40 100 110q78 136 78 370q0 235 -78 373zM925 155q-146 -173 -383 -173t-361 173t-124 499q0 325 146 498t381 173t361 -174t126 -498q0 -325 -146 -498zM922 1659
l-285 -213h-178l211 213h252z" />
    <glyph glyph-name="Ocircumflex" unicode="&#xd4;" 
d="M808 1031q-78 138 -241 138t-244 -144t-81 -368q0 -374 174 -482q61 -38 146 -38q85 1 146 41q60 40 100 110q78 136 78 370q0 235 -78 373zM925 155q-146 -173 -383 -173t-361 173t-124 499q0 325 146 498t381 173t361 -174t126 -498q0 -325 -146 -498zM879 1446h-183
l-135 102l-135 -102h-178l231 213h168z" />
    <glyph glyph-name="Otilde" unicode="&#xd5;" 
d="M808 1031q-78 138 -241 138t-244 -144t-81 -368q0 -374 174 -482q61 -38 146 -38q85 1 146 41q60 40 100 110q78 136 78 370q0 235 -78 373zM925 155q-146 -173 -383 -173t-361 173t-124 499q0 325 146 498t381 173t361 -174t126 -498q0 -325 -146 -498zM422 1671
q85 0 169 -54q31 -20 59 -37t61 -17q65 0 129 98l86 -82q-89 -145 -221 -145q-85 0 -169 54q-30 20 -58 37t-66 17q-62 0 -125 -98l-86 82q87 145 221 145z" />
    <glyph glyph-name="Odieresis" unicode="&#xd6;" 
d="M808 1031q-78 138 -241 138t-244 -144t-81 -368q0 -374 174 -482q61 -38 146 -38q85 1 146 41q60 40 100 110q78 136 78 370q0 235 -78 373zM925 155q-146 -173 -383 -173t-361 173t-124 499q0 325 146 498t381 173t361 -174t126 -498q0 -325 -146 -498zM782 1659
q22 -1 42 -9t34 -22t22 -34t9 -42q0 -44 -31 -75t-76 -31q-46 0 -76 30t-30 64t8 54t23 34q13 14 33 22t42 9zM344 1659q22 -1 42 -9t34 -22t22 -34t9 -42q0 -45 -32 -75q-32 -31 -76 -31q-45 0 -75 30t-30 64t8 54t23 34q13 14 33 22t42 9z" />
    <glyph glyph-name="multiply" unicode="&#xd7;" 
d="M975 850l-301 -301l305 -303l-117 -117l-303 305l-301 -301l-106 107l301 301l-306 303l117 117l303 -306l301 301z" />
    <glyph glyph-name="Oslash" unicode="&#xd8;" 
d="M885 649q0 308 -119 436l-281 -940q27 -8 95 -8q67 0 186 79.5t119 432.5zM542 1169q-63 0 -181.5 -79.5t-118.5 -413.5t118 -457l283 940q-38 10 -101 10zM1069 662q0 -335 -145.5 -507.5t-370.5 -172.5q-59 0 -115 10l-61 -207h-146l76 256q-250 143 -250 606
q0 333 145.5 505.5t370.5 172.5q62 0 115 -12l64 209h145l-78 -258q250 -148 250 -602z" />
    <glyph glyph-name="Ugrave" unicode="&#xd9;" 
d="M840 444v863h178v-852q0 -219 -122 -346t-339 -127q-448 0 -448 446v879h178v-865q0 -159 64 -235t212 -76q277 0 277 313zM668 1446h-179l-284 213h252z" />
    <glyph glyph-name="Uacute" unicode="&#xda;" 
d="M840 444v863h178v-852q0 -219 -122 -346t-339 -127q-448 0 -448 446v879h178v-865q0 -159 64 -235t212 -76q277 0 277 313zM922 1659l-285 -213h-178l211 213h252z" />
    <glyph glyph-name="Ucircumflex" unicode="&#xdb;" 
d="M840 444v863h178v-852q0 -219 -122 -346t-339 -127q-448 0 -448 446v879h178v-865q0 -159 64 -235t212 -76q277 0 277 313zM879 1446h-183l-135 102l-135 -102h-178l231 213h168z" />
    <glyph glyph-name="Udieresis" unicode="&#xdc;" 
d="M840 444v863h178v-852q0 -219 -122 -346t-339 -127q-448 0 -448 446v879h178v-865q0 -159 64 -235t212 -76q277 0 277 313zM782 1659q22 -1 42 -9t34 -22t22 -34t9 -42q0 -44 -31 -75t-76 -31q-46 0 -76 30t-30 64t8 54t23 34q13 14 33 22t42 9zM344 1659q22 -1 42 -9
t34 -22t22 -34t9 -42q0 -45 -32 -75q-32 -31 -76 -31q-45 0 -75 30t-30 64t8 54t23 34q13 14 33 22t42 9z" />
    <glyph glyph-name="Yacute" unicode="&#xdd;" 
d="M653 0h-180v471l-473 836h215l260 -478l96 -192l88 174l263 496h204l-473 -840v-467zM922 1659l-285 -213h-178l211 213h252z" />
    <glyph glyph-name="Thorn" unicode="&#xde;" 
d="M518 965h-182v-559h166q158 0 243.5 74t85.5 207t-82.5 205.5t-230.5 72.5zM336 1307v-195h190q336 0 413 -151t77 -245q0 -194 -132.5 -328t-385.5 -134h-162v-254h-178v1307h178z" />
    <glyph glyph-name="germandbls" unicode="&#xdf;" 
d="M557 1284q-235 0 -235 -268v-1016h-175v1010q0 204 116.5 309.5t297.5 105.5q180 0 274.5 -76t94.5 -211t-107 -210.5t-131 -108.5t-24 -71t26 -69t65.5 -62t151 -108.5t111.5 -229.5q0 -192 -135 -241.5t-217 -49.5q-81 0 -181 12v154q58 -21 131 -21q122 0 173 35.5
t51 85.5q0 51 -26 87t-65 68t-150 109t-111 214t105.5 210t131 110t25.5 76q0 156 -197 156z" />
    <glyph glyph-name="agrave" unicode="&#xe0;" 
d="M786 457h-221q-187 1 -233 -107q-14 -34 -15 -70q0 -70 41 -111q41 -42 127 -42q136 0 301 152v178zM133 279q1 139 113 225t332 86h208v88q0 88 -57 142t-193 54t-319 -73v157q176 64 352 64q285 0 365 -184q27 -62 27 -146v-692h-156l-4 135q-155 -153 -331 -153
t-256 79q-81 78 -81 218zM668 1171h-174l-320 242h252z" />
    <glyph glyph-name="aacute" unicode="&#xe1;" 
d="M786 457h-221q-187 1 -233 -107q-14 -34 -15 -70q0 -70 41 -111q41 -42 127 -42q136 0 301 152v178zM133 279q1 139 113 225t332 86h208v88q0 88 -57 142t-193 54t-319 -73v157q176 64 352 64q285 0 365 -184q27 -62 27 -146v-692h-156l-4 135q-155 -153 -331 -153
t-256 79q-81 78 -81 218zM952 1413l-319 -242h-174l241 242h252z" />
    <glyph glyph-name="acircumflex" unicode="&#xe2;" 
d="M786 457h-221q-187 1 -233 -107q-14 -34 -15 -70q0 -70 41 -111q41 -42 127 -42q136 0 301 152v178zM133 279q1 139 113 225t332 86h208v88q0 88 -57 142t-193 54t-319 -73v157q176 64 352 64q285 0 365 -184q27 -62 27 -146v-692h-156l-4 135q-155 -153 -331 -153
t-256 79q-81 78 -81 218zM635 1413l244 -242h-177l-141 121l-141 -121h-172l244 242h143z" />
    <glyph glyph-name="atilde" unicode="&#xe3;" 
d="M786 457h-221q-187 1 -233 -107q-14 -34 -15 -70q0 -70 41 -111q41 -42 127 -42q136 0 301 152v178zM133 279q1 139 113 225t332 86h208v88q0 88 -57 142t-193 54t-319 -73v157q176 64 352 64q285 0 365 -184q27 -62 27 -146v-692h-156l-4 135q-155 -153 -331 -153
t-256 79q-81 78 -81 218zM422 1413q85 0 169 -54q31 -20 59 -37t61 -17q65 0 129 98l86 -86q-89 -145 -221 -145q-88 0 -169 54q-30 20 -58 37t-66 17q-62 0 -125 -98l-86 86q87 145 221 145z" />
    <glyph glyph-name="adieresis" unicode="&#xe4;" 
d="M786 457h-221q-187 1 -233 -107q-14 -34 -15 -70q0 -70 41 -111q41 -42 127 -42q136 0 301 152v178zM133 279q1 139 113 225t332 86h208v88q0 88 -57 142t-193 54t-319 -73v157q176 64 352 64q285 0 365 -184q27 -62 27 -146v-692h-156l-4 135q-155 -153 -331 -153
t-256 79q-81 78 -81 218zM778 1405q24 0 44 -9q20 -8 36 -24t24 -36q9 -20 9 -44t-9 -44q-8 -20 -24 -35t-36 -24t-44 -9t-44 9t-35 24t-24 35t-9 44t9 44t24 36t35 24q20 9 44 9zM348 1405q24 0 44 -9q20 -8 36 -24t24 -36q9 -20 9 -44t-9 -44q-8 -20 -24 -35t-36 -24
t-44 -9t-44 9t-35 24t-24 35t-9 44t9 44t24 36t35 24q20 9 44 9z" />
    <glyph glyph-name="aring" unicode="&#xe5;" 
d="M786 457h-221q-187 1 -233 -107q-14 -34 -15 -70q0 -70 41 -111q41 -42 127 -42q136 0 301 152v178zM133 279q1 139 113 225t332 86h208v88q0 88 -57 142t-193 54t-319 -73v157q176 64 352 64q285 0 365 -184q27 -62 27 -146v-692h-156l-4 135q-155 -153 -331 -153
t-256 79q-81 78 -81 218zM563 1395q-41 1 -71 -29t-29 -72q0 -42 29 -71q28 -29 60 -29t50 8t32 22t21 31q8 18 8 39q0 22 -8 40q-7 18 -21 32q-30 30 -71 29zM563 1501q45 0 84 -16t68 -44t46 -66t17 -81q0 -42 -17 -80t-46 -66t-68 -44t-84 -16t-84 16t-68 44t-46 66
t-17 80q0 43 17 81t46 66t68 44t84 16z" />
    <glyph glyph-name="ae" unicode="&#xe6;" 
d="M792 883q-72 0 -112.5 -81.5t-40.5 -215.5h285q3 209 -45.5 253t-86.5 44zM295 125q92 0 190 156v176h-125q-165 0 -165 -183q0 -149 100 -149zM340 1022q189 0 240 -121q76 121 219 121q288 0 288 -442q0 -93 -4 -123h-444q0 -161 46.5 -246.5t155.5 -85.5t210 41v-139
q-104 -45 -248 -45q-194 0 -268 174q-108 -174 -259 -174q-120 0 -182.5 73t-62.5 213q0 318 334 318h120v84q0 101 -34.5 156t-133.5 55t-231 -74v151q128 64 254 64z" />
    <glyph glyph-name="ccedilla" unicode="&#xe7;" 
d="M666 135q150 0 274 64v-162q-128 -49 -263 -51l-82 -281h-152l66 295q-174 38 -262.5 163.5t-88.5 345.5t140.5 364.5t365.5 144.5q159 0 276 -47v-166q-124 65 -267 65t-238 -101t-95 -277t88 -266.5t238 -90.5z" />
    <glyph glyph-name="egrave" unicode="&#xe8;" 
d="M380 799q-71 -84 -81 -219h528q6 136 -64 220q-70 83 -191 83t-192 -84zM608 -18q-491 0 -491 518q0 220 123 371t332 151q208 0 322 -125t114 -342q0 -65 -4 -109h-705q0 -154 86 -236t251 -83q165 0 318 43v-143q-160 -45 -346 -45zM668 1171h-174l-320 242h252z" />
    <glyph glyph-name="eacute" unicode="&#xe9;" 
d="M380 799q-71 -84 -81 -219h528q6 136 -64 220q-70 83 -191 83t-192 -84zM608 -18q-491 0 -491 518q0 220 123 371t332 151q208 0 322 -125t114 -342q0 -65 -4 -109h-705q0 -154 86 -236t251 -83q165 0 318 43v-143q-160 -45 -346 -45zM952 1413l-319 -242h-174l241 242
h252z" />
    <glyph glyph-name="ecircumflex" unicode="&#xea;" 
d="M380 799q-71 -84 -81 -219h528q6 136 -64 220q-70 83 -191 83t-192 -84zM608 -18q-491 0 -491 518q0 220 123 371t332 151q208 0 322 -125t114 -342q0 -65 -4 -109h-705q0 -154 86 -236t251 -83q165 0 318 43v-143q-160 -45 -346 -45zM635 1413l244 -242h-177l-141 121
l-141 -121h-172l244 242h143z" />
    <glyph glyph-name="edieresis" unicode="&#xeb;" 
d="M380 799q-71 -84 -81 -219h528q6 136 -64 220q-70 83 -191 83t-192 -84zM608 -18q-491 0 -491 518q0 220 123 371t332 151q208 0 322 -125t114 -342q0 -65 -4 -109h-705q0 -154 86 -236t251 -83q165 0 318 43v-143q-160 -45 -346 -45zM778 1405q24 0 44 -9q20 -8 36 -24
t24 -36q9 -20 9 -44t-9 -44q-8 -20 -24 -35t-36 -24t-44 -9t-44 9t-35 24t-24 35t-9 44t9 44t24 36t35 24q20 9 44 9zM348 1405q24 0 44 -9q20 -8 36 -24t24 -36q9 -20 9 -44t-9 -44q-8 -20 -24 -35t-36 -24t-44 -9t-44 9t-35 24t-24 35t-9 44t9 44t24 36t35 24q20 9 44 9z
" />
    <glyph glyph-name="igrave" unicode="&#xec;" 
d="M502 860h-297v144h473v-859h299v-145h-805v145h330v715zM668 1171h-174l-320 242h252z" />
    <glyph glyph-name="iacute" unicode="&#xed;" 
d="M502 860h-297v144h473v-859h299v-145h-805v145h330v715zM952 1413l-319 -242h-174l241 242h252z" />
    <glyph glyph-name="icircumflex" unicode="&#xee;" 
d="M502 860h-297v144h473v-859h299v-145h-805v145h330v715zM635 1413l244 -242h-177l-141 121l-141 -121h-172l244 242h143z" />
    <glyph glyph-name="idieresis" unicode="&#xef;" 
d="M502 860h-297v144h473v-859h299v-145h-805v145h330v715zM778 1405q24 0 44 -9q20 -8 36 -24t24 -36q9 -20 9 -44t-9 -44q-8 -20 -24 -35t-36 -24t-44 -9t-44 9t-35 24t-24 35t-9 44t9 44t24 36t35 24q20 9 44 9zM348 1405q24 0 44 -9q20 -8 36 -24t24 -36q9 -20 9 -44
t-9 -44q-8 -20 -24 -35t-36 -24t-44 -9t-44 9t-35 24t-24 35t-9 44t9 44t24 36t35 24q20 9 44 9z" />
    <glyph glyph-name="eth" unicode="&#xf0;" 
d="M1006 502q0 -200 -105 -360t-362 -160q-209 0 -324 134.5t-115 361.5t126 381.5t345 154.5q21 0 45 -4q-62 90 -94 133l-280 -60v146l186 39l-115 145h217l82 -104l297 61v-145l-204 -41q301 -416 301 -682zM570 868q-146 0 -218.5 -107t-72.5 -276q0 -168 75.5 -262
t203.5 -94q129 0 199 97.5t70 265.5q0 167 -110 360q-75 16 -147 16z" />
    <glyph glyph-name="ntilde" unicode="&#xf1;" 
d="M793 641q0 231 -175 231q-66 0 -128 -44q-61 -44 -156 -162v-666h-174v1004h155l7 -162q124 146 246 172q41 8 85 8q314 0 314 -367v-655h-174v641zM422 1413q85 0 169 -54q31 -20 59 -37t61 -17q65 0 129 98l86 -86q-89 -145 -221 -145q-88 0 -169 54q-30 20 -58 37
t-66 17q-62 0 -125 -98l-86 86q87 145 221 145z" />
    <glyph glyph-name="ograve" unicode="&#xf2;" 
d="M778 779q-78 95 -219 95q-142 0 -216 -105q-73 -105 -73 -267q0 -276 171 -350q54 -24 127 -23q72 1 128 31t92 81q68 98 68 271q0 172 -78 267zM905 127q-129 -145 -350 -145q-220 0 -341 133q-122 133 -122 375t129 387t349 145t342 -132t122 -375t-129 -388zM668 1171
h-174l-320 242h252z" />
    <glyph glyph-name="oacute" unicode="&#xf3;" 
d="M778 779q-78 95 -219 95q-142 0 -216 -105q-73 -105 -73 -267q0 -276 171 -350q54 -24 127 -23q72 1 128 31t92 81q68 98 68 271q0 172 -78 267zM905 127q-129 -145 -350 -145q-220 0 -341 133q-122 133 -122 375t129 387t349 145t342 -132t122 -375t-129 -388zM952 1413
l-319 -242h-174l241 242h252z" />
    <glyph glyph-name="ocircumflex" unicode="&#xf4;" 
d="M778 779q-78 95 -219 95q-142 0 -216 -105q-73 -105 -73 -267q0 -276 171 -350q54 -24 127 -23q72 1 128 31t92 81q68 98 68 271q0 172 -78 267zM905 127q-129 -145 -350 -145q-220 0 -341 133q-122 133 -122 375t129 387t349 145t342 -132t122 -375t-129 -388zM635 1413
l244 -242h-177l-141 121l-141 -121h-172l244 242h143z" />
    <glyph glyph-name="otilde" unicode="&#xf5;" 
d="M778 779q-78 95 -219 95q-142 0 -216 -105q-73 -105 -73 -267q0 -276 171 -350q54 -24 127 -23q72 1 128 31t92 81q68 98 68 271q0 172 -78 267zM905 127q-129 -145 -350 -145q-220 0 -341 133q-122 133 -122 375t129 387t349 145t342 -132t122 -375t-129 -388zM422 1413
q85 0 169 -54q31 -20 59 -37t61 -17q65 0 129 98l86 -86q-89 -145 -221 -145q-88 0 -169 54q-30 20 -58 37t-66 17q-62 0 -125 -98l-86 86q87 145 221 145z" />
    <glyph glyph-name="odieresis" unicode="&#xf6;" 
d="M778 779q-78 95 -219 95q-142 0 -216 -105q-73 -105 -73 -267q0 -276 171 -350q54 -24 127 -23q72 1 128 31t92 81q68 98 68 271q0 172 -78 267zM905 127q-129 -145 -350 -145q-220 0 -341 133q-122 133 -122 375t129 387t349 145t342 -132t122 -375t-129 -388zM778 1405
q24 0 44 -9q20 -8 36 -24t24 -36q9 -20 9 -44t-9 -44q-8 -20 -24 -35t-36 -24t-44 -9t-44 9t-35 24t-24 35t-9 44t9 44t24 36t35 24q20 9 44 9zM348 1405q24 0 44 -9q20 -8 36 -24t24 -36q9 -20 9 -44t-9 -44q-8 -20 -24 -35t-36 -24t-44 -9t-44 9t-35 24t-24 35t-9 44t9 44
t24 36t35 24q20 9 44 9z" />
    <glyph glyph-name="divide" unicode="&#xf7;" 
d="M467 842q-39 39 -39 80q0 69 39.5 107t79.5 38q68 0 106.5 -38.5t38.5 -79.5t-10.5 -65t-38 -52.5t-82.5 -28.5t-94 39zM560 287q28 0 52 -10.5t41.5 -28.5t28 -42.5t10.5 -65t-38.5 -79t-79.5 -38.5t-65 10.5t-42 28t-28.5 41.5t-10.5 51t10.5 51.5t28.5 42.5t41.5 28.5
t51.5 10.5zM1042 469h-958v152h958v-152z" />
    <glyph glyph-name="oslash" unicode="&#xf8;" 
d="M532 877q-53 0 -108 -30t-106.5 -106t-51.5 -214q0 -252 119 -343l229 688q-29 5 -82 5zM592 127q54 0 109.5 30t107 106t51.5 213q0 249 -117 343l-229 -688q24 -4 78 -4zM1034 538q0 -274 -127.5 -415t-353.5 -141q-45 0 -88 6l-68 -203h-145l82 244
q-114 55 -178 171.5t-64 266.5q0 274 128 414.5t353 140.5q44 0 91 -6l67 203h146l-82 -244q113 -54 176 -170.5t63 -266.5z" />
    <glyph glyph-name="ugrave" unicode="&#xf9;" 
d="M473 -18q-313 0 -313 366v656h174v-642q0 -231 174 -231q66 0 129 44t156 163v666h174v-1004h-156l-6 162q-127 -146 -247 -172q-40 -8 -85 -8zM668 1171h-174l-320 242h252z" />
    <glyph glyph-name="uacute" unicode="&#xfa;" 
d="M473 -18q-313 0 -313 366v656h174v-642q0 -231 174 -231q66 0 129 44t156 163v666h174v-1004h-156l-6 162q-127 -146 -247 -172q-40 -8 -85 -8zM952 1413l-319 -242h-174l241 242h252z" />
    <glyph glyph-name="ucircumflex" unicode="&#xfb;" 
d="M473 -18q-313 0 -313 366v656h174v-642q0 -231 174 -231q66 0 129 44t156 163v666h174v-1004h-156l-6 162q-127 -146 -247 -172q-40 -8 -85 -8zM635 1413l244 -242h-177l-141 121l-141 -121h-172l244 242h143z" />
    <glyph glyph-name="udieresis" unicode="&#xfc;" 
d="M473 -18q-313 0 -313 366v656h174v-642q0 -231 174 -231q66 0 129 44t156 163v666h174v-1004h-156l-6 162q-127 -146 -247 -172q-40 -8 -85 -8zM778 1405q24 0 44 -9q20 -8 36 -24t24 -36q9 -20 9 -44t-9 -44q-8 -20 -24 -35t-36 -24t-44 -9t-44 9t-35 24t-24 35t-9 44
t9 44t24 36t35 24q20 9 44 9zM348 1405q24 0 44 -9q20 -8 36 -24t24 -36q9 -20 9 -44t-9 -44q-8 -20 -24 -35t-36 -24t-44 -9t-44 9t-35 24t-24 35t-9 44t9 44t24 36t35 24q20 9 44 9z" />
    <glyph glyph-name="yacute" unicode="&#xfd;" 
d="M164 -262q96 0 168 61t135 201l-401 1004h198l254 -664l51 -156l293 820h191l-342 -898q-109 -281 -236 -401q-127 -121 -323 -121q-43 0 -93 4v158q59 -8 105 -8zM952 1413l-319 -242h-174l241 242h252z" />
    <glyph glyph-name="thorn" unicode="&#xfe;" 
d="M521 129q319 0 319 383q0 255 -75 306.5t-119 51.5q-80 0 -152 -48t-160 -163v-487q109 -43 187 -43zM670 1022q168 0 258 -134t90 -375t-132 -383t-360 -142q-102 0 -192 22v-420h-174v1823h174v-389l-8 -186q137 184 344 184z" />
    <glyph glyph-name="ydieresis" unicode="&#xff;" 
d="M164 -262q96 0 168 61t135 201l-401 1004h198l254 -664l51 -156l293 820h191l-342 -898q-109 -281 -236 -401q-127 -121 -323 -121q-43 0 -93 4v158q59 -8 105 -8zM778 1405q24 0 44 -9q20 -8 36 -24t24 -36q9 -20 9 -44t-9 -44q-8 -20 -24 -35t-36 -24t-44 -9t-44 9
t-35 24t-24 35t-9 44t9 44t24 36t35 24q20 9 44 9zM348 1405q24 0 44 -9q20 -8 36 -24t24 -36q9 -20 9 -44t-9 -44q-8 -20 -24 -35t-36 -24t-44 -9t-44 9t-35 24t-24 35t-9 44t9 44t24 36t35 24q20 9 44 9z" />
    <glyph glyph-name="Amacron" unicode="&#x100;" 
d="M780 444l-221 699l-221 -699h442zM1116 0h-194l-91 285h-544l-92 -285h-185l434 1307h244zM846 1483h-565v133h565v-133z" />
    <glyph glyph-name="amacron" unicode="&#x101;" 
d="M786 457h-221q-187 1 -233 -107q-14 -34 -15 -70q0 -70 41 -111q41 -42 127 -42q136 0 301 152v178zM133 279q1 139 113 225t332 86h208v88q0 88 -57 142t-193 54t-319 -73v157q176 64 352 64q285 0 365 -184q27 -62 27 -146v-692h-156l-4 135q-155 -153 -331 -153
t-256 79q-81 78 -81 218zM825 1225h-524v133h524v-133z" />
    <glyph glyph-name="Abreve" unicode="&#x102;" 
d="M780 444l-221 699l-221 -699h442zM1116 0h-194l-91 285h-544l-92 -285h-185l434 1307h244zM563 1563q129 0 129 102h137q0 -115 -76 -173t-190 -58q-183 0 -245 126q-22 44 -21 105h137q0 -102 129 -102z" />
    <glyph glyph-name="abreve" unicode="&#x103;" 
d="M786 457h-221q-187 1 -233 -107q-14 -34 -15 -70q0 -70 41 -111q41 -42 127 -42q136 0 301 152v178zM133 279q1 139 113 225t332 86h208v88q0 88 -57 142t-193 54t-319 -73v157q176 64 352 64q285 0 365 -184q27 -62 27 -146v-692h-156l-4 135q-155 -153 -331 -153
t-256 79q-81 78 -81 218zM811 1413q0 -116 -70 -179t-178 -63q-168 -1 -228 135q-20 46 -20 107h136q0 -51 28 -82t84 -31t84 31t28 82h136z" />
    <glyph glyph-name="Aogonek" unicode="&#x104;" 
d="M780 444l-221 699l-221 -699h442zM801 -221q0 103 121 221l-91 285h-544l-92 -285h-185l434 1307h244l428 -1307h-38q-95 -95 -104 -134.5t-9 -58.5q0 -73 96 -73q36 0 70 4v-113q-50 -10 -134 -10q-85 0 -140.5 46t-55.5 118z" />
    <glyph glyph-name="aogonek" unicode="&#x105;" 
d="M786 457h-221q-187 0 -217.5 -70.5t-30.5 -106.5q0 -70 40.5 -111.5t127.5 -41.5q136 0 301 152v178zM684 -221q0 103 121 221l-4 135q-155 -153 -331 -153t-256.5 78.5t-80.5 218.5t112.5 225.5t332.5 85.5h208v88q0 89 -57 142.5t-193 53.5t-319 -73v157q176 64 352 64
q285 0 338.5 -123t53.5 -207v-692q-95 -95 -104 -134.5t-9 -58.5q0 -73 96 -73q36 0 70 4v-113q-50 -10 -135 -10q-84 0 -139.5 46t-55.5 118z" />
    <glyph glyph-name="Cacute" unicode="&#x106;" 
d="M686 143q159 0 309 74v-168q-157 -65 -329 -65q-278 0 -426 166t-148 485q0 320 158 504t426 184q177 0 319 -63v-175q-146 80 -322 80q-177 0 -285 -135q-107 -135 -107 -382t103 -376t302 -129zM983 1659l-285 -213h-178l211 213h252z" />
    <glyph glyph-name="cacute" unicode="&#x107;" 
d="M286 115q-128 129 -128 371t140 387t366 145q159 0 276 -47v-166q-124 65 -267 65t-238 -101t-95 -277t88 -266t238 -91q150 0 274 64v-162q-133 -51 -287 -51q-239 0 -367 129zM993 1413l-319 -242h-174l241 242h252z" />
    <glyph glyph-name="Ccircumflex" unicode="&#x108;" 
d="M686 143q159 0 309 74v-168q-157 -65 -329 -65q-278 0 -426 166t-148 485q0 320 158 504t426 184q177 0 319 -63v-175q-146 80 -322 80q-177 0 -285 -135q-107 -135 -107 -382t103 -376t302 -129zM940 1446h-183l-135 102l-135 -102h-178l231 213h168z" />
    <glyph glyph-name="ccircumflex" unicode="&#x109;" 
d="M286 115q-128 129 -128 371t140 387t366 145q159 0 276 -47v-166q-124 65 -267 65t-238 -101t-95 -277t88 -266t238 -91q150 0 274 64v-162q-133 -51 -287 -51q-239 0 -367 129zM676 1413l244 -242h-177l-141 121l-141 -121h-172l244 242h143z" />
    <glyph glyph-name="Cdotaccent" unicode="&#x10a;" 
d="M686 143q159 0 309 74v-168q-157 -65 -329 -65q-278 0 -426 166t-148 485q0 320 158 504t426 184q177 0 319 -63v-175q-146 80 -322 80q-177 0 -285 -135q-107 -135 -107 -382t103 -376t302 -129zM497 1552q0 26 10 49t27 41t40 27q23 10 50 10t50 -10q22 -9 40 -27
t28 -41t9 -49q1 -26 -9 -49t-28 -41t-40 -27q-23 -10 -50 -10t-50 10q-23 9 -40 27t-27 41t-10 49z" />
    <glyph glyph-name="cdotaccent" unicode="&#x10b;" 
d="M286 115q-128 129 -128 371t140 387t366 145q159 0 276 -47v-166q-124 65 -267 65t-238 -101t-95 -277t88 -266t238 -91q150 0 274 64v-162q-133 -51 -287 -51q-239 0 -367 129zM604 1421q28 -1 52 -11t43 -28q18 -18 28 -42t10 -52q-1 -56 -39 -94t-80 -39q-42 1 -67 11
q-24 10 -42 28t-28 42t-10 52t10 52t28 42t42 28q25 10 53 11z" />
    <glyph glyph-name="Ccaron" unicode="&#x10c;" 
d="M686 143q159 0 309 74v-168q-157 -65 -329 -65q-278 0 -426 166t-148 485q0 320 158 504t426 184q177 0 319 -63v-175q-146 80 -322 80q-177 0 -285 -135q-107 -135 -107 -382t103 -376t302 -129zM309 1659h182l135 -103l135 103h179l-232 -213h-168z" />
    <glyph glyph-name="ccaron" unicode="&#x10d;" 
d="M286 115q-128 129 -128 371t140 387t366 145q159 0 276 -47v-166q-124 65 -267 65t-238 -101t-95 -277t88 -266t238 -91q150 0 274 64v-162q-133 -51 -287 -51q-239 0 -367 129zM553 1171l-244 242h176l141 -121l142 121h172l-244 -242h-143z" />
    <glyph glyph-name="Dcaron" unicode="&#x10e;" 
d="M866 655q0 273 -103 388q-103 114 -323 114h-153v-1003h133q446 0 446 501zM1053 668q0 -538 -441 -644q-98 -24 -223 -24h-280v1307h337q306 1 456 -157t151 -482zM209 1659h182l135 -103l135 103h179l-232 -213h-168z" />
    <glyph glyph-name="dcaron" unicode="&#x10f;" 
d="M238 499q0 -368 205 -368q131 0 294 234v466q-88 41 -214 41q-125 0 -205 -92t-80 -281zM408 -18q-169 0 -259 135q-89 135 -89 375q0 241 133 383q133 141 358 141q99 0 186 -25v422h175v-1413h-156l-6 190q-143 -208 -342 -208zM1221 1466l-109 -295h-145l84 295h170z
" />
    <glyph glyph-name="Dcroat" unicode="&#x110;" 
d="M317 154h113q224 0 330 126t106 387q0 262 -98 376t-317 114h-134v-405h226v-150h-226v-448zM1053 668q0 -668 -654 -668h-260v602h-139v150h139v555h318q305 1 451 -157t145 -482z" />
    <glyph glyph-name="dcroat" unicode="&#x111;" 
d="M569 872q-293 0 -293 -370t197 -371q128 0 293 234v466q-88 41 -197 41zM438 -18q-168 0 -254 134t-86 376t129.5 383t354.5 141q97 0 184 -25v146h-289v145h289v131h174v-131h186v-145h-186v-1137h-156l-6 190q-141 -208 -340 -208z" />
    <glyph glyph-name="Emacron" unicode="&#x112;" 
d="M944 0h-743v1307h743v-150h-565v-405h543v-150h-543v-450h565v-152zM846 1483h-565v133h565v-133z" />
    <glyph glyph-name="emacron" unicode="&#x113;" 
d="M380 799q-71 -84 -81 -219h528q6 136 -64 220q-70 83 -191 83t-192 -84zM608 -18q-491 0 -491 518q0 220 123 371t332 151q208 0 322 -125t114 -342q0 -65 -4 -109h-705q0 -154 86 -236t251 -83q165 0 318 43v-143q-160 -45 -346 -45zM825 1225h-524v133h524v-133z" />
    <glyph glyph-name="Ebreve" unicode="&#x114;" 
d="M944 0h-743v1307h743v-150h-565v-405h543v-150h-543v-450h565v-152zM563 1563q129 0 129 102h137q0 -115 -76 -173t-190 -58q-183 0 -245 126q-22 44 -21 105h137q0 -102 129 -102z" />
    <glyph glyph-name="ebreve" unicode="&#x115;" 
d="M380 799q-71 -84 -81 -219h528q6 136 -64 220q-70 83 -191 83t-192 -84zM608 -18q-491 0 -491 518q0 220 123 371t332 151q208 0 322 -125t114 -342q0 -65 -4 -109h-705q0 -154 86 -236t251 -83q165 0 318 43v-143q-160 -45 -346 -45zM811 1413q0 -116 -70 -179t-178 -63
q-168 -1 -228 135q-20 46 -20 107h136q0 -51 28 -82t84 -31t84 31t28 82h136z" />
    <glyph glyph-name="Edotaccent" unicode="&#x116;" 
d="M944 0h-743v1307h743v-150h-565v-405h543v-150h-543v-450h565v-152zM436 1552q0 26 10 49t27 41t40 27q23 10 50 10t50 -10q23 -9 41 -27t26 -41q10 -23 10 -49t-10 -49t-26 -41q-18 -18 -41 -27q-23 -10 -50 -10t-50 10q-23 9 -40 27t-27 41t-10 49z" />
    <glyph glyph-name="edotaccent" unicode="&#x117;" 
d="M380 799q-71 -84 -81 -219h528q6 136 -64 220q-70 83 -191 83t-192 -84zM608 -18q-491 0 -491 518q0 220 123 371t332 151q208 0 322 -125t114 -342q0 -65 -4 -109h-705q0 -154 86 -236t251 -83q165 0 318 43v-143q-160 -45 -346 -45zM562 1421q28 -1 54 -11
q24 -10 42 -28t28 -42t10 -52q0 -56 -38 -94t-82 -39q-42 1 -66 11t-42 28t-28 42t-10 52t10 52t28 42t42 28t52 11z" />
    <glyph glyph-name="Eogonek" unicode="&#x118;" 
d="M864 -385q-84 0 -140 46t-56 118q0 103 121 221h-588v1307h743v-150h-565v-405h543v-150h-543v-450h565v-152h1q-95 -95 -104 -134.5t-9 -58.5q0 -73 96 -73q36 0 70 4v-113q-49 -10 -134 -10z" />
    <glyph glyph-name="eogonek" unicode="&#x119;" 
d="M380 799.5q-71 -83.5 -81 -219.5h528q6 136 -64 219.5t-191 83.5t-192 -83.5zM748 -385q-84 0 -139.5 46t-55.5 130t104 192l-49 -1q-491 0 -491 518q0 220 123.5 371t331.5 151t322 -124.5t114 -342.5q0 -65 -4 -109h-705q0 -154 86 -236.5t251 -82.5t318 43v-143
q-57 -17 -126 -27q-93 -96 -102 -135t-9 -58q0 -73 96 -73q36 0 70 4v-113q-50 -10 -135 -10z" />
    <glyph glyph-name="Ecaron" unicode="&#x11a;" 
d="M944 0h-743v1307h743v-150h-565v-405h543v-150h-543v-450h565v-152zM248 1659h182l135 -103l135 103h179l-232 -213h-168z" />
    <glyph glyph-name="ecaron" unicode="&#x11b;" 
d="M380 799q-71 -84 -81 -219h528q6 136 -64 220q-70 83 -191 83t-192 -84zM608 -18q-491 0 -491 518q0 220 123 371t332 151q208 0 322 -125t114 -342q0 -65 -4 -109h-705q0 -154 86 -236t251 -83q165 0 318 43v-143q-160 -45 -346 -45zM492 1171l-244 242h176l141 -121
l142 121h172l-244 -242h-143z" />
    <glyph glyph-name="Gcircumflex" unicode="&#x11c;" 
d="M688 1165q-205 0 -321 -140q-115 -140 -115 -374q0 -512 420 -512q92 0 164 27v416h-267v147h443v-668q-170 -79 -335 -79q-163 0 -271 42t-184 124q-156 171 -156 490t169 503t451 184q180 0 320 -65v-177q-153 82 -318 82zM940 1446h-183l-135 102l-135 -102h-178
l231 213h168z" />
    <glyph glyph-name="gcircumflex" unicode="&#x11d;" 
d="M393 520q61 -59 159 -59t156 63t58 156t-61 152t-158 59t-156 -63t-59 -156t61 -152zM279 -145q0 -136 280 -136q227 1 280 111q15 32 15 64q0 61 -50 90t-153 34l-262 9q-64 -43 -87 -84t-23 -88zM547 -420q-453 0 -453 268q0 126 139 226q-74 34 -94 115q-6 24 -6 47
q0 103 103 221q-80 97 -80 215q0 156 108 253q109 97 285 97q73 0 131 -18h364v-142h-161q59 -74 59 -167q0 -172 -109 -268q-109 -97 -284 -97q-130 0 -205 47q-45 -66 -45 -107q1 -40 37 -65t96 -27l264 -10q242 -6 318 -147q26 -47 26 -111q0 -141 -125 -236
q-126 -94 -368 -94zM635 1413l244 -242h-177l-141 121l-141 -121h-172l244 242h143z" />
    <glyph glyph-name="Gbreve" unicode="&#x11e;" 
d="M688 1165q-205 0 -321 -140q-115 -140 -115 -374q0 -512 420 -512q92 0 164 27v416h-267v147h443v-668q-170 -79 -335 -79q-163 0 -271 42t-184 124q-156 171 -156 490t169 503t451 184q180 0 320 -65v-177q-153 82 -318 82zM624 1563q129 0 129 102h137q0 -115 -76 -173
t-190 -58q-182 0 -244 126q-22 44 -22 105h137q0 -102 129 -102z" />
    <glyph glyph-name="gbreve" unicode="&#x11f;" 
d="M393 520q61 -59 159 -59t156 63t58 156t-61 152t-158 59t-156 -63t-59 -156t61 -152zM279 -145q0 -136 280 -136q227 1 280 111q15 32 15 64q0 61 -50 90t-153 34l-262 9q-64 -43 -87 -84t-23 -88zM547 -420q-453 0 -453 268q0 126 139 226q-74 34 -94 115q-6 24 -6 47
q0 103 103 221q-80 97 -80 215q0 156 108 253q109 97 285 97q73 0 131 -18h364v-142h-161q59 -74 59 -167q0 -172 -109 -268q-109 -97 -284 -97q-130 0 -205 47q-45 -66 -45 -107q1 -40 37 -65t96 -27l264 -10q242 -6 318 -147q26 -47 26 -111q0 -141 -125 -236
q-126 -94 -368 -94zM811 1413q0 -116 -70 -179t-178 -63q-168 -1 -228 135q-20 46 -20 107h136q0 -51 28 -82t84 -31t84 31t28 82h136z" />
    <glyph glyph-name="Gdotaccent" unicode="&#x120;" 
d="M688 1165q-205 0 -321 -140q-115 -140 -115 -374q0 -512 420 -512q92 0 164 27v416h-267v147h443v-668q-170 -79 -335 -79q-163 0 -271 42t-184 124q-156 171 -156 490t169 503t451 184q180 0 320 -65v-177q-153 82 -318 82zM497 1552q0 26 10 49t27 41t40 27
q23 10 50 10t50 -10q22 -9 40 -27t28 -41t9 -49q1 -26 -9 -49t-28 -41t-40 -27q-23 -10 -50 -10t-50 10q-23 9 -40 27t-27 41t-10 49z" />
    <glyph glyph-name="gdotaccent" unicode="&#x121;" 
d="M393 520q61 -59 159 -59t156 63t58 156t-61 152t-158 59t-156 -63t-59 -156t61 -152zM279 -145q0 -136 280 -136q227 1 280 111q15 32 15 64q0 61 -50 90t-153 34l-262 9q-64 -43 -87 -84t-23 -88zM547 -420q-453 0 -453 268q0 126 139 226q-74 34 -94 115q-6 24 -6 47
q0 103 103 221q-80 97 -80 215q0 156 108 253q109 97 285 97q73 0 131 -18h364v-142h-161q59 -74 59 -167q0 -172 -109 -268q-109 -97 -284 -97q-130 0 -205 47q-45 -66 -45 -107q1 -40 37 -65t96 -27l264 -10q242 -6 318 -147q26 -47 26 -111q0 -141 -125 -236
q-126 -94 -368 -94zM562 1421q28 -1 54 -11q24 -10 42 -28t28 -42t10 -52q0 -56 -38 -94t-82 -39q-42 1 -66 11t-42 28t-28 42t-10 52t10 52t28 42t42 28t52 11z" />
    <glyph glyph-name="uni0122" unicode="&#x122;" 
d="M688 1165q-205 0 -321 -140q-115 -140 -115 -374q0 -512 420 -512q92 0 164 27v416h-267v147h443v-668q-170 -79 -335 -79q-163 0 -271 42t-184 124q-156 171 -156 490t169 503t451 184q180 0 320 -65v-177q-153 82 -318 82zM668 -115l-88 -295h-148l66 295h170z" />
    <glyph glyph-name="uni0123" unicode="&#x123;" 
d="M393 520q61 -59 159 -59t156 63t58 156t-61 152t-158 59t-156 -63t-59 -156t61 -152zM279 -145q0 -136 280 -136q227 1 280 111q15 32 15 64q0 61 -50 90t-153 34l-262 9q-64 -43 -87 -84t-23 -88zM547 -420q-453 0 -453 268q0 126 139 226q-74 34 -94 115q-6 24 -6 47
q0 103 103 221q-80 97 -80 215q0 156 108 253q109 97 285 97q73 0 131 -18h364v-142h-161q59 -74 59 -167q0 -172 -109 -268q-109 -97 -284 -97q-130 0 -205 47q-45 -66 -45 -107q1 -40 37 -65t96 -27l264 -10q242 -6 318 -147q26 -47 26 -111q0 -141 -125 -236
q-126 -94 -368 -94zM465 1171l108 295h146l-84 -295h-170z" />
    <glyph glyph-name="Hcircumflex" unicode="&#x124;" 
d="M1016 0h-178v600h-549v-600h-178v1307h178v-553h549v553h178v-1307zM879 1446h-183l-135 102l-135 -102h-178l231 213h168z" />
    <glyph glyph-name="hcircumflex" unicode="&#x125;" 
d="M793 641q0 231 -168 231q-69 0 -128 -42t-163 -164v-666h-174v1413h174v-409l-6 -158q117 140 240 167q41 9 85 9q150 0 232 -92t82 -275v-655h-174v641zM879 1497h-183l-135 102l-135 -102h-178l231 213h168z" />
    <glyph glyph-name="Hbar" unicode="&#x126;" 
d="M807 721v219h-488v-219h488zM985 940v-940h-178v571h-488v-571h-178v940h-110v150h110v217h178v-217h488v217h178v-217h111v-150h-111z" />
    <glyph glyph-name="hbar" unicode="&#x127;" 
d="M653 973q150 0 232 -91.5t82 -275.5v-606h-174v592q0 115 -43.5 173t-118.5 58t-135 -43t-162 -164v-616h-174v1139h-160v141h160v133h174v-133h315v-141h-315v-176l-6 -166q117 140 199 158t126 18z" />
    <glyph glyph-name="Itilde" unicode="&#x128;" 
d="M473 1157h-301v150h782v-150h-301v-1005h301v-152h-782v152h301v1005zM422 1671q85 0 169 -54q31 -20 59 -37t61 -17q65 0 129 98l86 -82q-89 -145 -221 -145q-85 0 -169 54q-30 20 -58 37t-66 17q-62 0 -125 -98l-86 82q87 145 221 145z" />
    <glyph glyph-name="itilde" unicode="&#x129;" 
d="M502 860h-297v144h473v-859h299v-145h-805v145h330v715zM422 1413q85 0 169 -54q31 -20 59 -37t61 -17q65 0 129 98l86 -86q-89 -145 -221 -145q-88 0 -169 54q-30 20 -58 37t-66 17q-62 0 -125 -98l-86 86q87 145 221 145z" />
    <glyph glyph-name="Imacron" unicode="&#x12a;" 
d="M473 1157h-301v150h782v-150h-301v-1005h301v-152h-782v152h301v1005zM846 1483h-565v133h565v-133z" />
    <glyph glyph-name="imacron" unicode="&#x12b;" 
d="M502 860h-297v144h473v-859h299v-145h-805v145h330v715zM825 1225h-524v133h524v-133z" />
    <glyph glyph-name="Ibreve" unicode="&#x12c;" 
d="M473 1157h-301v150h782v-150h-301v-1005h301v-152h-782v152h301v1005zM563 1563q129 0 129 102h137q0 -115 -76 -173t-190 -58q-183 0 -245 126q-22 44 -21 105h137q0 -102 129 -102z" />
    <glyph glyph-name="ibreve" unicode="&#x12d;" 
d="M502 860h-297v144h473v-859h299v-145h-805v145h330v715zM811 1413q0 -116 -70 -179t-178 -63q-168 -1 -228 135q-20 46 -20 107h136q0 -51 28 -82t84 -31t84 31t28 82h136z" />
    <glyph glyph-name="Iogonek" unicode="&#x12e;" 
d="M874 -385q-84 0 -140 46t-56 118q0 103 121 221h-627v152h301v1005h-301v150h782v-150h-301v-1005h301v-152h1q-95 -95 -104 -134.5t-9 -58.5q0 -73 96 -73q36 0 70 4v-113q-49 -10 -134 -10z" />
    <glyph glyph-name="iogonek" unicode="&#x12f;" 
d="M563 1425q59 0 98 -40.5t39 -82.5t-10.5 -67t-29 -44t-43.5 -29.5t-69 -10.5t-83 40.5t-39 82.5q0 43 10.5 67.5t39 54t87.5 29.5zM896 -385q-84 0 -140 46t-56 118q0 103 121 221h-649v145h330v715h-297v144h473v-859h299v-145q-95 -95 -104 -134.5t-9 -58.5
q0 -73 96 -73q36 0 70 4v-113q-50 -10 -134 -10z" />
    <glyph glyph-name="Idotaccent" unicode="&#x130;" 
d="M473 1157h-301v150h782v-150h-301v-1005h301v-152h-782v152h301v1005zM436 1552q0 26 10 49t27 41t40 27q23 10 50 10t50 -10q23 -9 41 -27t26 -41q10 -23 10 -49t-10 -49t-26 -41q-18 -18 -41 -27q-23 -10 -50 -10t-50 10q-23 9 -40 27t-27 41t-10 49z" />
    <glyph glyph-name="dotlessi" unicode="&#x131;" 
d="M502 860h-297v144h473v-859h299v-145h-805v145h330v715z" />
    <glyph glyph-name="IJ" unicode="&#x132;" 
d="M289 0h-178v1307h178v-1307zM838 369v938h178v-953q0 -260 -135 -313t-231 -53t-175 28v160q94 -41 170 -41q193 0 193 234z" />
    <glyph glyph-name="ij" unicode="&#x133;" 
d="M739 1282q0 60 40.5 100.5t85.5 40.5t70.5 -11t44.5 -30t29.5 -45t10.5 -70.5t-40.5 -85t-85.5 -40.5t-70.5 11t-55 40.5t-29.5 89.5zM106 1282q0 60 40.5 100.5t85.5 40.5t70.5 -11t44.5 -30t29.5 -45t10.5 -70.5t-40.5 -85t-85.5 -40.5t-70.5 11t-55 40.5t-29.5 89.5z
M334 1004v-1004h-174v1004h174zM556 -270q237 0 237 282v992h174v-986q0 -208 -107.5 -323t-296.5 -115q-122 0 -221 39v154q95 -43 214 -43z" />
    <glyph glyph-name="Jcircumflex" unicode="&#x134;" 
d="M469 141q109 1 168 67t59 191v754h-497v154h678v-908q0 -180 -106 -297q-106 -116 -304 -116q-122 0 -228 44q-33 14 -57 29v179q134 -97 287 -97zM879 1446h-183l-135 102l-135 -102h-178l231 213h168z" />
    <glyph glyph-name="jcircumflex" unicode="&#x135;" 
d="M420 -272q114 0 179 72t65 212v848h-492v144h668v-986q0 -208 -115 -323t-322 -115q-151 0 -272 51v166q134 -69 289 -69zM635 1413l244 -242h-177l-141 121l-141 -121h-172l244 242h143z" />
    <glyph glyph-name="uni0136" unicode="&#x136;" 
d="M334 0h-178v1307h178v-607l479 607h211l-516 -621l539 -686h-224l-489 641v-641zM668 -115l-88 -295h-148l66 295h170z" />
    <glyph glyph-name="uni0137" unicode="&#x137;" 
d="M356 0h-174v1413h174v-868l451 459h230l-471 -463l497 -541h-239l-468 538v-538zM668 -115l-88 -295h-148l66 295h170z" />
    <glyph glyph-name="kgreenlandic" unicode="&#x138;" 
d="M356 0h-174v1004h174v-459l451 459h230l-471 -463l497 -541h-239l-468 538v-538z" />
    <glyph glyph-name="Lacute" unicode="&#x139;" 
d="M985 0h-752v1307h181v-1155h571v-152zM922 1659l-285 -213h-178l211 213h252z" />
    <glyph glyph-name="lacute" unicode="&#x13a;" 
d="M502 1270h-297v143h473v-1268h299v-145h-805v145h330v1125zM963 1720l-285 -213h-178l211 213h252z" />
    <glyph glyph-name="uni013B" unicode="&#x13b;" 
d="M985 0h-752v1307h181v-1155h571v-152zM668 -115l-88 -295h-148l66 295h170z" />
    <glyph glyph-name="uni013C" unicode="&#x13c;" 
d="M502 1270h-297v143h473v-1268h299v-145h-805v145h330v1125zM668 -115l-88 -295h-148l66 295h170z" />
    <glyph glyph-name="Lcaron" unicode="&#x13d;" 
d="M985 0h-752v1307h181v-1155h571v-152zM991 1466l-109 -295h-145l84 295h170z" />
    <glyph glyph-name="lcaron" unicode="&#x13e;" 
d="M502 1270h-297v143h473v-1268h299v-145h-805v145h330v1125zM1094 1466l-109 -295h-145l84 295h170z" />
    <glyph glyph-name="Ldot" unicode="&#x13f;" 
d="M946 0h-752v1307h181v-1155h571v-152zM1069 489q-49 -49 -117 -49t-117 49t-49 118t49 118t117 49t117 -49t49 -118t-49 -118z" />
    <glyph glyph-name="ldot" unicode="&#x140;" 
d="M442 1270h-297v143h473v-1268h299v-145h-805v145h330v1125zM1219 489q-49 -49 -117 -49t-117 49t-49 118t49 118t117 49t117 -49t49 -118t-49 -118z" />
    <glyph glyph-name="Lslash" unicode="&#x141;" 
d="M434 152h551v-152h-731v602l-209 -106v157l209 107v547h180v-457l361 182v-158l-361 -182v-540z" />
    <glyph glyph-name="lslash" unicode="&#x142;" 
d="M502 1272h-297v141h473v-506l287 146v-158l-287 -145v-609h299v-141h-805v141h330v521l-287 -146v158l287 145v453z" />
    <glyph glyph-name="Nacute" unicode="&#x143;" 
d="M1008 0h-232l-381 815l-110 262v-1077h-166v1307h229l363 -772l131 -299v1071h166v-1307zM922 1659l-285 -213h-178l211 213h252z" />
    <glyph glyph-name="nacute" unicode="&#x144;" 
d="M793 641q0 231 -175 231q-66 0 -128 -44q-61 -44 -156 -162v-666h-174v1004h155l7 -162q124 146 246 172q41 8 85 8q314 0 314 -367v-655h-174v641zM952 1413l-319 -242h-174l241 242h252z" />
    <glyph glyph-name="uni0145" unicode="&#x145;" 
d="M1008 0h-232l-381 815l-110 262v-1077h-166v1307h229l363 -772l131 -299v1071h166v-1307zM668 -115l-88 -295h-148l66 295h170z" />
    <glyph glyph-name="uni0146" unicode="&#x146;" 
d="M793 641q0 231 -175 231q-66 0 -128 -44q-61 -44 -156 -162v-666h-174v1004h155l7 -162q124 146 246 172q41 8 85 8q314 0 314 -367v-655h-174v641zM668 -115l-88 -295h-148l66 295h170z" />
    <glyph glyph-name="Ncaron" unicode="&#x147;" 
d="M1008 0h-232l-381 815l-110 262v-1077h-166v1307h229l363 -772l131 -299v1071h166v-1307zM248 1659h182l135 -103l135 103h179l-232 -213h-168z" />
    <glyph glyph-name="ncaron" unicode="&#x148;" 
d="M793 641q0 231 -175 231q-66 0 -128 -44q-61 -44 -156 -162v-666h-174v1004h155l7 -162q124 146 246 172q41 8 85 8q314 0 314 -367v-655h-174v641zM492 1171l-244 242h176l141 -121l142 121h172l-244 -242h-143z" />
    <glyph glyph-name="napostrophe" unicode="&#x149;" 
d="M813 641q0 231 -175 231q-66 0 -128 -44q-61 -44 -156 -162v-666h-174v1004h155l7 -162q124 146 246 172q41 8 85 8q314 0 314 -367v-655h-174v641zM0 1176q102 0 138 64q12 20 12 50q0 41 -37 84q-37 42 -37 72q0 50 27 81q27 32 66 32q70 0 109 -46t39 -128
q0 -150 -90 -235t-227 -89v115z" />
    <glyph glyph-name="Eng" unicode="&#x14a;" 
d="M285 0h-166v1307h219l397 -752l107 -217v969h166v-1289q0 -208 -107.5 -323t-296.5 -115l2 150q109 0 168.5 71t59.5 211l-426 809l-123 256v-1077z" />
    <glyph glyph-name="eng" unicode="&#x14b;" 
d="M653 1022q314 0 314 -367v-637q0 -208 -107.5 -323t-296.5 -115l2 150q109 0 168.5 71t59.5 211v629q0 231 -175 231q-66 0 -127.5 -44t-156.5 -162v-666h-174v1004h155l7 -162q124 146 205.5 163t125.5 17z" />
    <glyph glyph-name="Omacron" unicode="&#x14c;" 
d="M808 1031q-78 138 -241 138t-244 -144t-81 -368q0 -374 174 -482q61 -38 146 -38q85 1 146 41q60 40 100 110q78 136 78 370q0 235 -78 373zM925 155q-146 -173 -383 -173t-361 173t-124 499q0 325 146 498t381 173t361 -174t126 -498q0 -325 -146 -498zM846 1483h-565
v133h565v-133z" />
    <glyph glyph-name="omacron" unicode="&#x14d;" 
d="M778 779q-78 95 -219 95q-142 0 -216 -105q-73 -105 -73 -267q0 -276 171 -350q54 -24 127 -23q72 1 128 31t92 81q68 98 68 271q0 172 -78 267zM905 127q-129 -145 -350 -145q-220 0 -341 133q-122 133 -122 375t129 387t349 145t342 -132t122 -375t-129 -388zM825 1225
h-524v133h524v-133z" />
    <glyph glyph-name="Obreve" unicode="&#x14e;" 
d="M808 1031q-78 138 -241 138t-244 -144t-81 -368q0 -374 174 -482q61 -38 146 -38q85 1 146 41q60 40 100 110q78 136 78 370q0 235 -78 373zM925 155q-146 -173 -383 -173t-361 173t-124 499q0 325 146 498t381 173t361 -174t126 -498q0 -325 -146 -498zM563 1563
q129 0 129 102h137q0 -115 -76 -173t-190 -58q-183 0 -245 126q-22 44 -21 105h137q0 -102 129 -102z" />
    <glyph glyph-name="obreve" unicode="&#x14f;" 
d="M778 779q-78 95 -219 95q-142 0 -216 -105q-73 -105 -73 -267q0 -276 171 -350q54 -24 127 -23q72 1 128 31t92 81q68 98 68 271q0 172 -78 267zM905 127q-129 -145 -350 -145q-220 0 -341 133q-122 133 -122 375t129 387t349 145t342 -132t122 -375t-129 -388zM811 1413
q0 -116 -70 -179t-178 -63q-168 -1 -228 135q-20 46 -20 107h136q0 -51 28 -82t84 -31t84 31t28 82h136z" />
    <glyph glyph-name="Ohungarumlaut" unicode="&#x150;" 
d="M808 1031q-78 138 -241 138t-244 -144t-81 -368q0 -374 174 -482q61 -38 146 -38q85 1 146 41q60 40 100 110q78 136 78 370q0 235 -78 373zM925 155q-146 -173 -383 -173t-361 173t-124 499q0 325 146 498t381 173t361 -174t126 -498q0 -325 -146 -498zM1126 1659
l-260 -213h-182l211 213h231zM676 1659l-223 -213h-181l191 213h213z" />
    <glyph glyph-name="ohungarumlaut" unicode="&#x151;" 
d="M778 779q-78 95 -219 95q-142 0 -216 -105q-73 -105 -73 -267q0 -276 171 -350q54 -24 127 -23q72 1 128 31t92 81q68 98 68 271q0 172 -78 267zM905 127q-129 -145 -350 -145q-220 0 -341 133q-122 133 -122 375t129 387t349 145t342 -132t122 -375t-129 -388z
M1102 1413l-279 -242h-174l221 242h232zM649 1413l-243 -242h-175l207 242h211z" />
    <glyph glyph-name="OE" unicode="&#x152;" 
d="M490 1174q-60 0 -170.5 -78.5t-110.5 -451.5q0 -243 77.5 -377t229.5 -134q36 0 76 10v1022q-42 9 -102 9zM1094 1307v-146h-330v-411h309v-146h-309v-457h330v-147h-365q-74 0 -127 -7t-96 -7q-475 0 -475 661q0 330 135 502t344 172l215 -14h369z" />
    <glyph glyph-name="oe" unicode="&#x153;" 
d="M801 877q-133 0 -137 -289h264q3 219 -48.5 254t-78.5 35zM350 877q-147 0 -147 -377q0 -293 54.5 -333t92.5 -40q139 0 139 375t-139 375zM39 494q0 381 119.5 454.5t198.5 73.5t132.5 -42t94.5 -132q39 88 90.5 131t126.5 43q143 0 216 -123t73 -344q0 -78 -3 -96h-423
q0 -328 186 -328q106 0 205 41v-145q-101 -45 -207 -45q-214 0 -277 176q-72 -176 -228 -176t-230 122t-74 390z" />
    <glyph glyph-name="Racute" unicode="&#x154;" 
d="M766 948q0 105 -66 157t-184 52h-168v-432h144q194 -1 254 127q20 42 20 96zM432 582h-84v-582h-178v1307h350q330 1 408 -203q24 -64 24 -133q0 -133 -73 -225t-207 -123q56 -19 94 -67t78 -126l207 -430h-201l-195 418q-43 93 -93 129q-51 35 -130 35zM883 1659
l-285 -213h-178l211 213h252z" />
    <glyph glyph-name="racute" unicode="&#x155;" 
d="M377 0h-176v1004h159l5 -185q169 203 350 203q157 0 237 -101t74 -300h-176q6 251 -160 251q-72 0 -126 -40q-93 -68 -187 -187v-645zM952 1413l-319 -242h-174l241 242h252z" />
    <glyph glyph-name="uni0156" unicode="&#x156;" 
d="M766 948q0 105 -66 157t-184 52h-168v-432h144q194 -1 254 127q20 42 20 96zM432 582h-84v-582h-178v1307h350q330 1 408 -203q24 -64 24 -133q0 -133 -73 -225t-207 -123q56 -19 94 -67t78 -126l207 -430h-201l-195 418q-43 93 -93 129q-51 35 -130 35zM668 -115
l-88 -295h-148l66 295h170z" />
    <glyph glyph-name="uni0157" unicode="&#x157;" 
d="M377 0h-176v1004h159l5 -185q169 203 350 203q157 0 237 -101t74 -300h-176q6 251 -160 251q-72 0 -126 -40q-93 -68 -187 -187v-645zM668 -115l-88 -295h-148l66 295h170z" />
    <glyph glyph-name="Rcaron" unicode="&#x158;" 
d="M766 948q0 105 -66 157t-184 52h-168v-432h144q194 -1 254 127q20 42 20 96zM432 582h-84v-582h-178v1307h350q330 1 408 -203q24 -64 24 -133q0 -133 -73 -225t-207 -123q56 -19 94 -67t78 -126l207 -430h-201l-195 418q-43 93 -93 129q-51 35 -130 35zM209 1659h182
l135 -103l135 103h179l-232 -213h-168z" />
    <glyph glyph-name="rcaron" unicode="&#x159;" 
d="M377 0h-176v1004h159l5 -185q169 203 350 203q157 0 237 -101t74 -300h-176q6 251 -160 251q-72 0 -126 -40q-93 -68 -187 -187v-645zM492 1171l-244 242h176l141 -121l142 121h172l-244 -242h-143z" />
    <glyph glyph-name="Sacute" unicode="&#x15a;" 
d="M606 1171q-149 0 -221 -51t-72 -137q1 -127 217 -213q180 -72 246 -106q221 -112 221 -301q0 -190 -140 -286q-140 -95 -358 -95t-388 45v172q161 -60 394 -60q306 0 306 207q-1 124 -217 210q-179 71 -245 104q-222 110 -222 305q0 149 123 255q123 105 364 105
q138 0 299 -39v-160q-158 45 -307 45zM922 1659l-285 -213h-178l211 213h252z" />
    <glyph glyph-name="sacute" unicode="&#x15b;" 
d="M373 748q0 -56 52 -93t176 -74q212 -62 283 -128t71 -179q-1 -190 -227 -263q-90 -29 -240 -29t-306 38v160q180 -51 348 -51q245 0 245 131q-1 55 -35 82q-57 44 -177 80q-121 36 -179 62q-190 84 -189 253q0 106 86 185q109 100 327 100q140 0 281 -29v-155
q-160 39 -283 39q-233 0 -233 -129zM952 1413l-319 -242h-174l241 242h252z" />
    <glyph glyph-name="Scircumflex" unicode="&#x15c;" 
d="M606 1171q-149 0 -221 -51t-72 -137q1 -127 217 -213q180 -72 246 -106q221 -112 221 -301q0 -190 -140 -286q-140 -95 -358 -95t-388 45v172q161 -60 394 -60q306 0 306 207q-1 124 -217 210q-179 71 -245 104q-222 110 -222 305q0 149 123 255q123 105 364 105
q138 0 299 -39v-160q-158 45 -307 45zM879 1446h-183l-135 102l-135 -102h-178l231 213h168z" />
    <glyph glyph-name="scircumflex" unicode="&#x15d;" 
d="M373 748q0 -56 52 -93t176 -74q212 -62 283 -128t71 -179q-1 -190 -227 -263q-90 -29 -240 -29t-306 38v160q180 -51 348 -51q245 0 245 131q-1 55 -35 82q-57 44 -177 80q-121 36 -179 62q-190 84 -189 253q0 106 86 185q109 100 327 100q140 0 281 -29v-155
q-160 39 -283 39q-233 0 -233 -129zM635 1413l244 -242h-177l-141 121l-141 -121h-172l244 242h143z" />
    <glyph glyph-name="Scedilla" unicode="&#x15e;" 
d="M111 199q161 -60 394 -60q306 0 306 207q0 123 -198 202t-342 150.5t-144 266.5q0 149 123 254.5t364 105.5q138 0 299 -39v-160q-157 45 -307 45q-149 0 -221 -51t-72 -137q0 -127 198 -206t342 -151.5t144 -262.5t-115.5 -268.5t-250.5 -100.5l-84 -289h-152l62 277
q-194 5 -346 45v172z" />
    <glyph glyph-name="scedilla" unicode="&#x15f;" 
d="M373 784.5q0 -92.5 52 -130t176 -73.5q212 -62 283 -127.5t71 -180.5t-85.5 -186.5t-214.5 -93.5l-84 -288h-151l61 278q-163 4 -299 37v160q180 -51 348 -51q245 0 245 131q0 55 -45.5 91t-166.5 71q-121 36 -244.5 91t-123.5 224q0 106 97.5 195.5t315.5 89.5
q140 0 281 -29v-155q-160 39 -283 39q-233 0 -233 -92.5z" />
    <glyph glyph-name="Scaron" unicode="&#x160;" 
d="M606 1171q-149 0 -221 -51t-72 -137q1 -127 217 -213q180 -72 246 -106q221 -112 221 -301q0 -190 -140 -286q-140 -95 -358 -95t-388 45v172q161 -60 394 -60q306 0 306 207q-1 124 -217 210q-179 71 -245 104q-222 110 -222 305q0 149 123 255q123 105 364 105
q138 0 299 -39v-160q-158 45 -307 45zM248 1659h182l135 -103l135 103h179l-232 -213h-168z" />
    <glyph glyph-name="scaron" unicode="&#x161;" 
d="M373 748q0 -56 52 -93t176 -74q212 -62 283 -128t71 -179q-1 -190 -227 -263q-90 -29 -240 -29t-306 38v160q180 -51 348 -51q245 0 245 131q-1 55 -35 82q-57 44 -177 80q-121 36 -179 62q-190 84 -189 253q0 106 86 185q109 100 327 100q140 0 281 -29v-155
q-160 39 -283 39q-233 0 -233 -129zM492 1171l-244 242h176l141 -121l142 121h172l-244 -242h-143z" />
    <glyph glyph-name="uni0162" unicode="&#x162;" 
d="M1040 1155h-387v-1155h-180v1155h-387v152h954v-152zM668 -115l-88 -295h-148l66 295h170z" />
    <glyph glyph-name="uni0162" unicode="&#x21a;" 
d="M1040 1155h-387v-1155h-180v1155h-387v152h954v-152zM668 -115l-88 -295h-148l66 295h170z" />
    <glyph glyph-name="uni0163" unicode="&#x163;" 
d="M344 334v524h-281v146h281v276l174 45v-321h451v-146h-451v-510q0 -215 227 -215q104 0 224 31v-150q-110 -28 -250 -28q-189 0 -282 86t-93 262zM668 -115l-88 -295h-148l66 295h170z" />
    <glyph glyph-name="uni0163" unicode="&#x21b;" 
d="M344 334v524h-281v146h281v276l174 45v-321h451v-146h-451v-510q0 -215 227 -215q104 0 224 31v-150q-110 -28 -250 -28q-189 0 -282 86t-93 262zM668 -115l-88 -295h-148l66 295h170z" />
    <glyph glyph-name="Tcaron" unicode="&#x164;" 
d="M1040 1155h-387v-1155h-180v1155h-387v152h954v-152zM248 1659h182l135 -103l135 103h179l-232 -213h-168z" />
    <glyph glyph-name="tcaron" unicode="&#x165;" 
d="M344 334v524h-281v146h281v276l174 45v-321h451v-146h-451v-510q0 -215 227 -215q104 0 224 31v-150q-110 -28 -250 -28q-189 0 -282 86t-93 262zM1053 1466l-109 -295h-145l84 295h170z" />
    <glyph glyph-name="Tbar" unicode="&#x166;" 
d="M653 582v-582h-180v582h-266v149h266v424h-387v152h954v-152h-387v-424h267v-149h-267z" />
    <glyph glyph-name="tbar" unicode="&#x167;" 
d="M344 334v115h-240v145h240v264h-281v146h281v276l174 45v-321h451v-146h-451v-264h389v-145h-389v-101q0 -215 227 -215q104 0 224 31v-150q-110 -28 -250 -28q-189 0 -282 85.5t-93 262.5z" />
    <glyph glyph-name="Utilde" unicode="&#x168;" 
d="M840 444v863h178v-852q0 -219 -122 -346t-339 -127q-448 0 -448 446v879h178v-865q0 -159 64 -235t212 -76q277 0 277 313zM422 1671q85 0 169 -54q31 -20 59 -37t61 -17q65 0 129 98l86 -82q-89 -145 -221 -145q-85 0 -169 54q-30 20 -58 37t-66 17q-62 0 -125 -98
l-86 82q87 145 221 145z" />
    <glyph glyph-name="utilde" unicode="&#x169;" 
d="M473 -18q-313 0 -313 366v656h174v-642q0 -231 174 -231q66 0 129 44t156 163v666h174v-1004h-156l-6 162q-127 -146 -247 -172q-40 -8 -85 -8zM422 1413q85 0 169 -54q31 -20 59 -37t61 -17q65 0 129 98l86 -86q-89 -145 -221 -145q-88 0 -169 54q-30 20 -58 37t-66 17
q-62 0 -125 -98l-86 86q87 145 221 145z" />
    <glyph glyph-name="Umacron" unicode="&#x16a;" 
d="M840 444v863h178v-852q0 -219 -122 -346t-339 -127q-448 0 -448 446v879h178v-865q0 -159 64 -235t212 -76q277 0 277 313zM846 1483h-565v133h565v-133z" />
    <glyph glyph-name="umacron" unicode="&#x16b;" 
d="M473 -18q-313 0 -313 366v656h174v-642q0 -231 174 -231q66 0 129 44t156 163v666h174v-1004h-156l-6 162q-127 -146 -247 -172q-40 -8 -85 -8zM825 1225h-524v133h524v-133z" />
    <glyph glyph-name="Ubreve" unicode="&#x16c;" 
d="M840 444v863h178v-852q0 -219 -122 -346t-339 -127q-448 0 -448 446v879h178v-865q0 -159 64 -235t212 -76q277 0 277 313zM563 1563q129 0 129 102h137q0 -115 -76 -173t-190 -58q-183 0 -245 126q-22 44 -21 105h137q0 -102 129 -102z" />
    <glyph glyph-name="ubreve" unicode="&#x16d;" 
d="M473 -18q-313 0 -313 366v656h174v-642q0 -231 174 -231q66 0 129 44t156 163v666h174v-1004h-156l-6 162q-127 -146 -247 -172q-40 -8 -85 -8zM811 1413q0 -116 -70 -179t-178 -63q-168 -1 -228 135q-20 46 -20 107h136q0 -51 28 -82t84 -31t84 31t28 82h136z" />
    <glyph glyph-name="Uring" unicode="&#x16e;" 
d="M840 444v863h178v-852q0 -219 -122 -346t-339 -127q-448 0 -448 446v879h178v-865q0 -159 64 -235t212 -76q277 0 277 313zM564 1638q-41 0 -66 -24t-25 -64t25 -65t66 -25t65 25t24 65t-24 64t-65 24zM764 1550q0 -84 -57 -138t-143 -54t-144 55t-58 137q0 83 57 136
q57 54 144 54q88 0 145 -53q56 -53 56 -137z" />
    <glyph glyph-name="uring" unicode="&#x16f;" 
d="M473 -18q-313 0 -313 366v656h174v-642q0 -231 174 -231q66 0 129 44t156 163v666h174v-1004h-156l-6 162q-127 -146 -247 -172q-40 -8 -85 -8zM563 1395q-41 1 -71 -29t-29 -72q0 -42 29 -71q28 -29 60 -29t50 8t32 22t21 31q8 18 8 39q0 22 -8 40q-7 18 -21 32
q-30 30 -71 29zM563 1501q45 0 84 -16t68 -44t46 -66t17 -81q0 -42 -17 -80t-46 -66t-68 -44t-84 -16t-84 16t-68 44t-46 66t-17 80q0 43 17 81t46 66t68 44t84 16z" />
    <glyph glyph-name="Uhungarumlaut" unicode="&#x170;" 
d="M840 444v863h178v-852q0 -219 -122 -346t-339 -127q-448 0 -448 446v879h178v-865q0 -159 64 -235t212 -76q277 0 277 313zM1126 1659l-260 -213h-182l211 213h231zM676 1659l-223 -213h-181l191 213h213z" />
    <glyph glyph-name="uhungarumlaut" unicode="&#x171;" 
d="M473 -18q-313 0 -313 366v656h174v-642q0 -231 174 -231q66 0 129 44t156 163v666h174v-1004h-156l-6 162q-127 -146 -247 -172q-40 -8 -85 -8zM1102 1413l-279 -242h-174l221 242h232zM649 1413l-243 -242h-175l207 242h211z" />
    <glyph glyph-name="Uogonek" unicode="&#x172;" 
d="M624 -385q-84 0 -140 46t-56 130t104 192q-423 11 -423 445v879h178v-865q0 -159 64.5 -235t211.5 -76q277 0 277 313v863h178v-852q0 -271 -118.5 -353.5t-194.5 -101.5q-95 -95 -104 -134.5t-9 -58.5q0 -73 96 -73q36 0 70 4v-113q-49 -10 -134 -10z" />
    <glyph glyph-name="uogonek" unicode="&#x173;" 
d="M886 -385q-84 0 -140 46t-56 118q0 103 121 221l-6 162q-127 -146 -207 -163t-125 -17q-313 0 -313 366v656h174v-642q0 -231 174 -231q66 0 128.5 44t156.5 163v666h174v-1004q-95 -95 -104 -134.5t-9 -58.5q0 -73 96 -73q36 0 70 4v-113q-50 -10 -134 -10z" />
    <glyph glyph-name="Wcircumflex" unicode="&#x174;" 
d="M1081 1307l-88 -1307h-231l-162 465l-45 149l-47 -161l-150 -453h-223l-90 1307h168l51 -889l15 -244l63 207l158 485h123l243 -692l4 180l52 953h159zM879 1446h-183l-135 102l-135 -102h-178l231 213h168z" />
    <glyph glyph-name="wcircumflex" unicode="&#x175;" 
d="M1090 1004l-146 -1004h-211l-145 420l-29 102l-33 -108l-139 -414h-205l-145 1004h170l102 -834l189 584h125l202 -578l93 828h172zM635 1413l244 -242h-177l-141 121l-141 -121h-172l244 242h143z" />
    <glyph glyph-name="Ycircumflex" unicode="&#x176;" 
d="M653 0h-180v471l-473 836h215l260 -478l96 -192l88 174l263 496h204l-473 -840v-467zM879 1446h-183l-135 102l-135 -102h-178l231 213h168z" />
    <glyph glyph-name="ycircumflex" unicode="&#x177;" 
d="M164 -262q96 0 168 61t135 201l-401 1004h198l254 -664l51 -156l293 820h191l-342 -898q-109 -281 -236 -401q-127 -121 -323 -121q-43 0 -93 4v158q59 -8 105 -8zM635 1413l244 -242h-177l-141 121l-141 -121h-172l244 242h143z" />
    <glyph glyph-name="Ydieresis" unicode="&#x178;" 
d="M653 0h-180v471l-473 836h215l260 -478l96 -192l88 174l263 496h204l-473 -840v-467zM782 1659q22 -1 42 -9t34 -22t22 -34t9 -42q0 -44 -31 -75t-76 -31q-46 0 -76 30t-30 64t8 54t23 34q13 14 33 22t42 9zM344 1659q22 -1 42 -9t34 -22t22 -34t9 -42q0 -45 -32 -75
q-32 -31 -76 -31q-45 0 -75 30t-30 64t8 54t23 34q13 14 33 22t42 9z" />
    <glyph glyph-name="Zacute" unicode="&#x179;" 
d="M1014 166v-166h-903v133l671 1012h-653v162h872v-140l-667 -1001h680zM922 1659l-285 -213h-178l211 213h252z" />
    <glyph glyph-name="zacute" unicode="&#x17a;" 
d="M973 0h-809v125l567 733h-553v146h762v-136l-557 -721h590v-147zM952 1413l-319 -242h-174l241 242h252z" />
    <glyph glyph-name="Zdotaccent" unicode="&#x17b;" 
d="M1014 166v-166h-903v133l671 1012h-653v162h872v-140l-667 -1001h680zM436 1552q0 26 10 49t27 41t40 27q23 10 50 10t50 -10q23 -9 41 -27t26 -41q10 -23 10 -49t-10 -49t-26 -41q-18 -18 -41 -27q-23 -10 -50 -10t-50 10q-23 9 -40 27t-27 41t-10 49z" />
    <glyph glyph-name="zdotaccent" unicode="&#x17c;" 
d="M973 0h-809v125l567 733h-553v146h762v-136l-557 -721h590v-147zM562 1421q28 -1 54 -11q24 -10 42 -28t28 -42t10 -52q0 -56 -38 -94t-82 -39q-42 1 -66 11t-42 28t-28 42t-10 52t10 52t28 42t42 28t52 11z" />
    <glyph glyph-name="Zcaron" unicode="&#x17d;" 
d="M1014 166v-166h-903v133l671 1012h-653v162h872v-140l-667 -1001h680zM248 1659h182l135 -103l135 103h179l-232 -213h-168z" />
    <glyph glyph-name="zcaron" unicode="&#x17e;" 
d="M973 0h-809v125l567 733h-553v146h762v-136l-557 -721h590v-147zM492 1171l-244 242h176l141 -121l142 121h172l-244 -242h-143z" />
    <glyph glyph-name="longs" unicode="&#x17f;" 
d="M765 1282q-298 0 -298 -303v-979h-178v961q0 228 127 347t344 119q140 0 270 -26v-146q-119 27 -265 27z" />
    <glyph glyph-name="florin" unicode="&#x192;" 
d="M864 1273q-86 0 -133 -51.5t-61 -154.5l-39 -289h330v-143h-349l-63 -461q-29 -215 -103.5 -311t-265.5 -96q-67 0 -137 16v144q61 -10 141 -10t121 52.5t55 149.5l70 516h-291v143h310l36 273q26 187 117.5 279.5t261.5 92.5q64 0 162 -14v-155q-76 19 -162 19z" />
    <glyph glyph-name="Aringacute" unicode="&#x1fa;" 
d="M780 444l-221 699l-221 -699h442zM1116 0h-194l-91 285h-544l-92 -285h-185l434 1307h244zM957 1950l-270 -190h-169l200 190h239zM562 1616q-44 0 -70 -22t-26 -59t26 -60t70 -23t70 23t25 60q1 37 -25 59t-70 22zM717 1663q58 -48 58 -127t-60 -129t-153 -50t-153 48
q-61 48 -61 128q0 79 62 129q62 49 155 49q94 0 152 -48z" />
    <glyph glyph-name="aringacute" unicode="&#x1fb;" 
d="M786 457h-221q-187 1 -233 -107q-14 -34 -15 -70q0 -70 41 -111q41 -42 127 -42q136 0 301 152v178zM133 279q1 139 113 225t332 86h208v88q0 88 -57 142t-193 54t-319 -73v157q176 64 352 64q285 0 365 -184q27 -62 27 -146v-692h-156l-4 135q-155 -153 -331 -153
t-256 79q-81 78 -81 218zM563 1395q-41 1 -71 -29t-29 -72q0 -42 29 -71q28 -29 60 -29t50 8t32 22t21 31q8 18 8 39q0 22 -8 40q-7 18 -21 32q-30 30 -71 29zM563 1501q45 0 84 -16t68 -44t46 -66t17 -81q0 -42 -17 -80t-46 -66t-68 -44t-84 -16t-84 16t-68 44t-46 66
t-17 80q0 43 17 81t46 66t68 44t84 16zM932 1759l-285 -213h-178l211 213h252z" />
    <glyph glyph-name="AEacute" unicode="&#x1fc;" 
d="M584 424v743l-287 -743h287zM1085 0h-501v281h-342l-109 -281h-176l532 1307h582v-142h-321v-417h307v-142h-307v-463h335v-143zM983 1659l-285 -213h-178l211 213h252z" />
    <glyph glyph-name="aeacute" unicode="&#x1fd;" 
d="M792 883q-72 0 -113 -82q-40 -82 -40 -215h285q4 209 -68 274q-26 23 -64 23zM295 125q92 0 190 156v176h-125q-165 0 -165 -183q0 -149 100 -149zM340 1022q189 0 240 -121q76 121 219 121q288 0 288 -442q0 -93 -4 -123h-444q1 -161 47 -247t155 -85q109 0 210 41v-139
q-104 -45 -248 -45q-194 0 -268 174q-108 -174 -259 -174q-120 0 -182 73t-63 213q0 318 334 318h120v84q-1 101 -35 156t-133 55t-231 -74v151q128 64 254 64zM952 1413l-319 -242h-174l241 242h252z" />
    <glyph glyph-name="Oslashacute" unicode="&#x1fe;" 
d="M885 649q0 308 -119 436l-281 -940q27 -8 95 -8q68 1 128 41q178 118 177 471zM542 1169q-64 -1 -124 -41q-176 -118 -176 -452t118 -457l283 940q-38 10 -101 10zM1069 662q0 -335 -146 -507q-146 -173 -370 -173q-59 0 -115 10l-61 -207h-146l76 256q-250 143 -250 606
q0 333 146 505q146 173 370 173q62 0 115 -12l64 209h145l-78 -258q250 -148 250 -602zM822 1659l-285 -213h-178l211 213h252z" />
    <glyph glyph-name="oslashacute" unicode="&#x1ff;" 
d="M532 877q-53 0 -108 -30q-55 -29 -90 -81q-68 -100 -68 -239q0 -252 119 -343l229 688q-29 5 -82 5zM592 127q54 0 110 30q55 29 90 81q68 100 68 238q0 249 -117 343l-229 -688q24 -4 78 -4zM1034 538q0 -274 -128 -415t-353 -141q-45 0 -88 6l-68 -203h-145l82 244
q-114 55 -178 171t-64 267q0 274 128 414q128 141 353 141q44 0 91 -6l67 203h146l-82 -244q113 -55 176 -171t63 -266zM872 1413l-319 -242h-174l241 242h252z" />
    <glyph glyph-name="uni0218" unicode="&#x218;" 
d="M606 1171q-149 0 -221 -51t-72 -137q1 -127 217 -213q180 -72 246 -106q221 -112 221 -301q0 -190 -140 -286q-140 -95 -358 -95t-388 45v172q161 -60 394 -60q306 0 306 207q-1 124 -217 210q-179 71 -245 104q-222 110 -222 305q0 149 123 255q123 105 364 105
q138 0 299 -39v-160q-158 45 -307 45zM668 -115l-88 -295h-148l66 295h170z" />
    <glyph glyph-name="uni0219" unicode="&#x219;" 
d="M373 748q0 -56 52 -93t176 -74q212 -62 283 -128t71 -179q-1 -190 -227 -263q-90 -29 -240 -29t-306 38v160q180 -51 348 -51q245 0 245 131q-1 55 -35 82q-57 44 -177 80q-121 36 -179 62q-190 84 -189 253q0 106 86 185q109 100 327 100q140 0 281 -29v-155
q-160 39 -283 39q-233 0 -233 -129zM668 -115l-88 -295h-148l66 295h170z" />
    <glyph glyph-name="circumflex" unicode="&#x2c6;" 
d="M635 1413l244 -242h-177l-141 121l-141 -121h-172l244 242h143z" />
    <glyph glyph-name="caron" unicode="&#x2c7;" 
d="M492 1171l-244 242h176l141 -121l142 121h172l-244 -242h-143z" />
    <glyph glyph-name="breve" unicode="&#x2d8;" 
d="M811 1413q0 -116 -70.5 -179t-208 -63t-177.5 90.5t-40 151.5h136q0 -51 28 -82t84 -31t84 31t28 82h136z" />
    <glyph glyph-name="dotaccent" unicode="&#x2d9;" 
d="M562 1421q28 0 53 -10.5t43 -28.5t28 -42t10 -66t-39 -80.5t-81 -38.5t-66 10.5t-42 28.5t-28 42t-10 52t10 52t28 42t42 28.5t52 10.5z" />
    <glyph glyph-name="ring" unicode="&#x2da;" 
d="M563 1395q-41 0 -70.5 -29.5t-29.5 -71.5t28.5 -71t60.5 -29t50 8t31.5 21.5t21.5 31.5t8 39t-8 39.5t-29.5 40t-62.5 21.5zM563 1501q45 0 84 -16t68 -44t46 -66t17 -81t-17 -80.5t-46 -65.5t-68 -44t-84 -16t-84 16t-68 44t-46 65.5t-17 80.5t17 81t46 66t68 44t84 16z
" />
    <glyph glyph-name="ogonek" unicode="&#x2db;" 
d="M684 -221q0 103 121 221h156q-95 -95 -104 -134.5t-9 -58.5q0 -73 96 -73q36 0 70 4v-113q-50 -10 -135 -10q-84 0 -139.5 46t-55.5 118z" />
    <glyph glyph-name="tilde" unicode="&#x2dc;" 
d="M422 1413q85 0 142.5 -37t85 -54t61.5 -17q65 0 129 98l86 -86q-89 -145 -221 -145q-88 0 -144 37t-83.5 54t-65.5 17q-62 0 -125 -98l-86 86q87 145 221 145z" />
    <glyph glyph-name="hungarumlaut" unicode="&#x2dd;" 
d="M1102 1413l-279 -242h-174l221 242h232zM649 1413l-243 -242h-175l207 242h211z" />
    <glyph glyph-name="uni0312" unicode="&#x312;" 
d="M465 1171l108 295h146l-84 -295h-170z" />
    <glyph glyph-name="uni0315" unicode="&#x315;" 
d="M1235 1466l-109 -295h-145l84 295h170z" />
    <glyph glyph-name="uni0326" unicode="&#x326;" 
d="M668 -115l-88 -295h-148l66 295h170z" />
    <glyph glyph-name="uni0374" unicode="&#x374;" 
d="M594 1425q74 0 106.5 -50.5t32.5 -126.5q0 -154 -118.5 -302t-323.5 -233l-64 125q213 98 241 190t28 148l-9 124q0 54 31.5 89.5t75.5 35.5z" />
    <glyph glyph-name="uni0375" unicode="&#x375;" 
d="M545 -246q-94 -94 -193 -94t-115 40t-16 74t25 58t51 35t123 47.5t129 154.5t26 255h146q22 -372 -176 -570z" />
    <glyph glyph-name="uni037E" unicode="&#x37e;" 
d="M672 760q-46 -46 -94 -45q-78 0 -123 45t-45 108q0 62 46 108t107 46q62 0 108 -46t46 -108q1 -62 -45 -108zM467 79q-47 57 -47 96t8 62t24 42t42 31t61 12q76 0 127 -62t51 -162q0 -193 -127 -316q-127 -124 -356 -124v137q106 -4 185 42q79 47 79 116t-47 126z" />
    <glyph glyph-name="tonos" unicode="&#x384;" 
d="M809 1434l-178 -269h-162l129 269h211z" />
    <glyph glyph-name="dieresistonos" unicode="&#x385;" 
d="M719 1442l-127 -277h-150l78 277h199zM864 1391q22 0 42 -8.5t34 -23t22.5 -34t8.5 -52.5t-31 -64t-76 -31t-75.5 30t-30.5 64t8.5 53.5t22.5 34t33.5 23t41.5 8.5zM262 1391q22 0 42 -8.5t34 -23t22.5 -34t8.5 -52.5t-31 -64t-76 -31t-75.5 30t-30.5 64t8.5 53.5
t22.5 34t33.5 23t41.5 8.5z" />
    <glyph glyph-name="Alphatonos" unicode="&#x386;" 
d="M780 444l-221 699l-221 -699h442zM1116 0h-194l-91 285h-544l-92 -285h-185l434 1307h244zM274 1434l-92 -269h-145l47 269h190z" />
    <glyph glyph-name="anoteleia" unicode="&#x387;" 
d="M680 906q-49 -49 -117 -49t-117 49t-49 118t49 118t117 49t117 -49t49 -118t-49 -118z" />
    <glyph glyph-name="Epsilontonos" unicode="&#x388;" 
d="M944 0h-743v1307h743v-150h-565v-405h543v-150h-543v-450h565v-152zM131 1434l-92 -269h-145l47 269h190z" />
    <glyph glyph-name="Etatonos" unicode="&#x389;" 
d="M1016 0h-178v600h-549v-600h-178v1307h178v-553h549v553h178v-1307zM90 1434l-92 -269h-145l47 269h190z" />
    <glyph glyph-name="Iotatonos" unicode="&#x38a;" 
d="M473 1157h-301v150h782v-150h-301v-1005h301v-152h-782v152h301v1005zM110 1434l-92 -269h-145l47 269h190z" />
    <glyph glyph-name="Omicrontonos" unicode="&#x38c;" 
d="M808 1031q-78 138 -241 138t-244 -144t-81 -368q0 -374 174 -482q61 -38 146 -38q85 1 146 41q60 40 100 110q78 136 78 370q0 235 -78 373zM925 155q-146 -173 -383 -173t-361 173t-124 499q0 325 146 498t381 173t361 -174t126 -498q0 -325 -146 -498zM151 1434
l-92 -269h-145l47 269h190z" />
    <glyph glyph-name="Upsilontonos" unicode="&#x38e;" 
d="M653 0h-180v471l-473 836h215l260 -478l96 -192l88 174l263 496h204l-473 -840v-467zM43 1434l-92 -269h-145l47 269h190z" />
    <glyph glyph-name="Omegatonos" unicode="&#x38f;" 
d="M57 680q0 317 144 481t383 164q238 0 362 -168q123 -168 123 -465q1 -186 -55 -324t-185 -224h254v-144h-432v131q185 118 222 371q12 84 12 186q0 223 -78 353t-241 130t-244 -136q-80 -136 -80 -351q0 -294 124 -450q44 -56 109 -99v-135h-432v144h252
q-238 157 -238 536zM172 1434l-92 -269h-145l47 269h190z" />
    <glyph glyph-name="iotadieresistonos" unicode="&#x390;" 
d="M477 309v549h-340v146h514v-667q0 -205 180 -205q81 0 158 25v-149q-68 -22 -162 -22q-176 0 -263 77t-87 246zM719 1442l-127 -277h-150l78 277h199zM864 1391q22 -1 42 -9t34 -22t22 -34t9 -42q0 -44 -31 -75t-76 -31q-46 0 -76 30t-30 64t8 54t23 34q13 14 33 22t42 9
zM262 1391q22 -1 42 -9t34 -22t22 -34t9 -42q0 -44 -31 -75t-76 -31q-46 0 -76 30t-30 64t8 54t23 34q13 14 33 22t42 9z" />
    <glyph glyph-name="Alpha" unicode="&#x391;" 
d="M780 444l-221 699l-221 -699h442zM1116 0h-194l-91 285h-544l-92 -285h-185l434 1307h244z" />
    <glyph glyph-name="Beta" unicode="&#x392;" 
d="M827 385q1 153 -179 200q-58 15 -130 15h-182v-450h188q153 0 228 57t75 178zM784 957q0 99 -60 149q-60 51 -204 51h-184v-409h178q192 0 250 120q20 40 20 89zM969 989q0 -225 -215 -295q180 -34 241 -186q21 -52 21 -132t-36 -152t-104 -122q-138 -102 -376 -102h-342
v1307h374q437 0 437 -318z" />
    <glyph glyph-name="Gamma" unicode="&#x393;" 
d="M414 1155v-1155h-181v1307h752v-152h-571z" />
    <glyph glyph-name="uni0394" unicode="&#x394;" 
d="M868 166l-309 977l-311 -977h620zM1071 0h-1016v152l394 1155h239l383 -1155v-152z" />
    <glyph glyph-name="Epsilon" unicode="&#x395;" 
d="M944 0h-743v1307h743v-150h-565v-405h543v-150h-543v-450h565v-152z" />
    <glyph glyph-name="Zeta" unicode="&#x396;" 
d="M1014 166v-166h-903v133l671 1012h-653v162h872v-140l-667 -1001h680z" />
    <glyph glyph-name="Eta" unicode="&#x397;" 
d="M1016 0h-178v600h-549v-600h-178v1307h178v-553h549v553h178v-1307z" />
    <glyph glyph-name="Theta" unicode="&#x398;" 
d="M373 602v150h380v-150h-380zM811 1029.5q-81 140.5 -245 140.5t-248 -145t-84 -368q0 -372 121 -446t206 -74t147 40.5t123 144t61 335.5t-81 372.5zM926.5 155.5q-149.5 -173.5 -385.5 -173.5t-363.5 174t-127.5 499t149 497.5t385 172.5t364 -174.5t128 -497.5
q0 -324 -149.5 -497.5z" />
    <glyph glyph-name="Iota" unicode="&#x399;" 
d="M473 1157h-301v150h782v-150h-301v-1005h301v-152h-782v152h301v1005z" />
    <glyph glyph-name="Kappa" unicode="&#x39a;" 
d="M334 0h-178v1307h178v-607l479 607h211l-516 -621l539 -686h-224l-489 641v-641z" />
    <glyph glyph-name="Lambda" unicode="&#x39b;" 
d="M4 0l445 1307h239l434 -1307h-200l-283 881l-80 258l-364 -1139h-191z" />
    <glyph glyph-name="Mu" unicode="&#x39c;" 
d="M1077 0h-174l-26 815l-11 313l-61 -182l-193 -520h-123l-184 500l-61 202l-4 -327l-23 -801h-168l64 1307h211l233 -658l55 166l185 492h217z" />
    <glyph glyph-name="Nu" unicode="&#x39d;" 
d="M1008 0h-232l-381 815l-110 262v-1077h-166v1307h229l363 -772l131 -299v1071h166v-1307z" />
    <glyph glyph-name="Xi" unicode="&#x39e;" 
d="M174 0v160h778v-160h-778zM944 1149h-762v158h762v-158zM885 598h-643v158h643v-158z" />
    <glyph glyph-name="Omicron" unicode="&#x39f;" 
d="M808 1031q-78 138 -241 138t-244 -144t-81 -368q0 -374 174 -482q61 -38 146 -38q85 1 146 41q60 40 100 110q78 136 78 370q0 235 -78 373zM925 155q-146 -173 -383 -173t-361 173t-124 499q0 325 146 498t381 173t361 -174t126 -498q0 -325 -146 -498z" />
    <glyph glyph-name="Pi" unicode="&#x3a0;" 
d="M1009 0h-178v1153h-536v-1153h-178v1307h892v-1307z" />
    <glyph glyph-name="Rho" unicode="&#x3a1;" 
d="M831 892q-1 133 -83 200t-230 67h-182v-538h166q158 0 244 69t85 202zM1016 922q0 -192 -132 -323q-132 -130 -386 -130h-162v-469h-178v1307h368q337 0 450 -215q40 -76 40 -170z" />
    <glyph glyph-name="Sigma" unicode="&#x3a3;" 
d="M1014 166v-166h-903v140l438 538l-420 491v138h872v-162h-619l388 -453l-428 -526h672z" />
    <glyph glyph-name="Tau" unicode="&#x3a4;" 
d="M1040 1155h-387v-1155h-180v1155h-387v152h954v-152z" />
    <glyph glyph-name="Upsilon" unicode="&#x3a5;" 
d="M653 0h-180v471l-473 836h215l260 -478l96 -192l88 174l263 496h204l-473 -840v-467z" />
    <glyph glyph-name="Phi" unicode="&#x3a6;" 
d="M848 979q-65 124 -203 145v-942q133 23 200.5 151t67.5 325t-65 321zM280 326.5q65 -123.5 201 -144.5v942q-131 -21 -198.5 -148t-67.5 -327q0 -199 65 -322.5zM41 647q0 287 122 444t318 183v117h164v-115q442 -36 442 -614q0 -290 -123 -446.5t-319 -182.5v-117h-164
v115q-440 35 -440 616z" />
    <glyph glyph-name="Chi" unicode="&#x3a7;" 
d="M1102 0h-225l-318 528l-319 -528h-222l435 668l-400 639h211l299 -492l301 492h205l-401 -631z" />
    <glyph glyph-name="Psi" unicode="&#x3a8;" 
d="M889 831v476h174v-465q0 -293 -158.5 -367t-255.5 -86v-389h-172v387q-414 34 -414 428v492h174v-478q0 -133 59 -204t181 -88v770h172v-770q240 41 240 294z" />
    <glyph glyph-name="uni03A9" unicode="&#x3a9;" 
d="M57 680q0 317 144.5 481t382.5 164t361.5 -168t123.5 -465q0 -186 -55.5 -323.5t-184.5 -224.5h254v-144h-432v131q185 118 209.5 286.5t24.5 270.5q0 223 -78 353t-241 130t-243.5 -136t-80.5 -351q0 -293 84 -399t149 -150v-135h-432v144h252q-238 157 -238 536z" />
    <glyph glyph-name="Iotadieresis" unicode="&#x3aa;" 
d="M473 1157h-301v150h782v-150h-301v-1005h301v-152h-782v152h301v1005zM782 1659q22 -1 42 -9t34 -22t22 -34t9 -42q0 -44 -31 -75t-76 -31q-46 0 -76 30t-30 64t8 54t23 34q13 14 33 22t42 9zM344 1659q22 -1 42 -9t34 -22t22 -34t9 -42q0 -45 -32 -75q-32 -31 -76 -31
q-45 0 -75 30t-30 64t8 54t23 34q13 14 33 22t42 9z" />
    <glyph glyph-name="Upsilondieresis" unicode="&#x3ab;" 
d="M653 0h-180v471l-473 836h215l260 -478l96 -192l88 174l263 496h204l-473 -840v-467zM782 1659q22 -1 42 -9t34 -22t22 -34t9 -42q0 -44 -31 -75t-76 -31q-46 0 -76 30t-30 64t8 54t23 34q13 14 33 22t42 9zM344 1659q22 -1 42 -9t34 -22t22 -34t9 -42q0 -45 -32 -75
q-32 -31 -76 -31q-45 0 -75 30t-30 64t8 54t23 34q13 14 33 22t42 9z" />
    <glyph glyph-name="alphatonos" unicode="&#x3ac;" 
d="M258 498q0 -366 244 -366q108 0 181 103t73 257v18q0 252 -141 335q-46 27 -106 27q-120 0 -185 -100q-66 -99 -66 -274zM467 -18q-190 0 -288 137q-99 137 -99 375t118 383t302 145t283 -134q32 -44 51 -100l36 216h156l-96 -521v-12q0 -173 38 -256t119 -72v-143
q-191 -29 -245 108q-18 44 -31 101q-105 -227 -344 -227zM809 1434l-178 -269h-162l129 269h211z" />
    <glyph glyph-name="epsilontonos" unicode="&#x3ad;" 
d="M129 276q0 202 256 240q-99 17 -154 81t-55 134q0 291 455 291q178 0 336 -37v-162q-196 51 -357 51q-250 0 -250 -139q0 -147 291 -147h189v-144h-209q-312 0 -312 -147q0 -166 328 -166q154 0 346 47v-153q-195 -43 -362 -43q-502 0 -502 294zM850 1434l-178 -269h-162
l129 269h211z" />
    <glyph glyph-name="etatonos" unicode="&#x3ae;" 
d="M797 641q0 231 -175 231q-66 0 -128 -44q-61 -44 -156 -162v-666h-174v531q0 102 -27 473h159l17 -179q134 163 259 189q41 8 85 8q314 0 314 -367v-1065h-174v1051zM850 1434l-178 -269h-162l129 269h211z" />
    <glyph glyph-name="iotatonos" unicode="&#x3af;" 
d="M477 309v549h-340v146h514v-667q0 -205 180 -205q81 0 158 25v-149q-68 -22 -162 -22q-176 0 -263 77t-87 246zM809 1434l-178 -269h-162l129 269h211z" />
    <glyph glyph-name="upsilondieresistonos" unicode="&#x3b0;" 
d="M981 616q1 -179 -31 -288t-91 -186q-123 -160 -325 -160q-204 0 -290 96t-86 287l4 245q0 204 -24 394h174q24 -184 24 -381l-4 -245q0 -189 110 -232q38 -15 94 -15q120 0 195 110q76 110 76 330q0 221 -25 433h174q25 -209 25 -388zM719 1442l-127 -277h-150l78 277
h199zM864 1391q22 -1 42 -9t34 -22t22 -34t9 -42q0 -44 -31 -75t-76 -31q-46 0 -76 30t-30 64t8 54t23 34q13 14 33 22t42 9zM262 1391q22 -1 42 -9t34 -22t22 -34t9 -42q0 -44 -31 -75t-76 -31q-46 0 -76 30t-30 64t8 54t23 34q13 14 33 22t42 9z" />
    <glyph glyph-name="alpha" unicode="&#x3b1;" 
d="M258 498q0 -366 244 -366q108 0 181 103t73 257v18q0 252 -93.5 307t-153.5 55q-120 0 -185.5 -99.5t-65.5 -274.5zM467 -18q-190 0 -288.5 137t-98.5 375t118 383t302 145t249.5 -89t84.5 -145l36 216h156l-96 -521v-12q0 -173 38.5 -256t118.5 -72v-143
q-191 -29 -227 61.5t-49 147.5q-105 -227 -344 -227z" />
    <glyph glyph-name="beta" unicode="&#x3b2;" 
d="M584 138q191 0 231.5 103.5t40.5 169.5q0 272 -291 272h-84v150h62q115 0 173 63t58 162q0 151 -80.5 185t-132.5 34q-106 0 -166.5 -70.5t-60.5 -192.5v-800q125 -76 250 -76zM334 -410h-174v1432q0 174 107.5 288.5t294.5 114.5q188 0 288 -100t100 -252
q0 -105 -55 -190t-135 -99q122 -14 198 -114.5t76 -241.5q0 -193 -125.5 -316.5t-340.5 -123.5q-115 0 -234 63v-461z" />
    <glyph glyph-name="gamma" unicode="&#x3b3;" 
d="M105 859q-22 0 -42 -2v147q50 6 86 6t65.5 -7t66.5 -37t99.5 -157t117.5 -311q55 -185 84 -347q207 374 226.5 563t12.5 290h178q0 -382 -140 -646t-245 -425q13 -84 13 -225v-118h-174v118q0 287 -119 714q-113 379 -160 408t-69 29z" />
    <glyph glyph-name="delta" unicode="&#x3b4;" 
d="M287 488q0 -169 75.5 -263t204.5 -94t194.5 89.5t65.5 240.5q0 99 -43 182.5t-146 171.5l-70 59q-193 -52 -237 -175.5t-44 -210.5zM449 978q-121 108 -121 216q0 110 85 170.5t222 60.5q138 0 276 -29v-150q-149 34 -275 34t-125 -68q0 -52 37.5 -86.5t62.5 -56.5
l135 -117q218 -189 241 -300.5t23 -171.5t-9 -118t-42.5 -143.5t-135 -161t-272.5 -75.5q-214 0 -328 135.5t-114 337.5q0 201 96.5 332t243.5 191z" />
    <glyph glyph-name="epsilon" unicode="&#x3b5;" 
d="M129 276q0 202 256 240q-99 17 -154 81t-55 134q0 291 455 291q178 0 336 -37v-162q-196 51 -357 51q-250 0 -250 -139q0 -147 291 -147h189v-144h-209q-312 0 -312 -147q0 -166 328 -166q154 0 346 47v-153q-195 -43 -362 -43q-502 0 -502 294z" />
    <glyph glyph-name="zeta" unicode="&#x3b6;" 
d="M158 456q0 88 24.5 165t86.5 179t194 230.5t276 234.5h-524v148h770v-131q-336 -262 -490.5 -445.5t-154.5 -371.5q0 -187 104 -234t192 -65q180 -38 257.5 -108t77.5 -187q0 -69 -25 -120t-44 -81t-38 -61h-166q19 31 36.5 59.5t38 73.5t20.5 90q0 46 -9 69t-46 50.5
t-157 49.5t-199 61t-129 97t-72.5 133.5t-22.5 163.5z" />
    <glyph glyph-name="eta" unicode="&#x3b7;" 
d="M797 641q0 231 -175 231q-66 0 -127.5 -44t-156.5 -162v-666h-174v531q0 102 -27 473h159l17 -179q134 163 217 180t127 17q314 0 314 -367v-1065h-174v1051z" />
    <glyph glyph-name="theta" unicode="&#x3b8;" 
d="M274 654q11 -526 289 -526q137 0 208.5 147t80.5 379h-578zM850 800q-23 479 -287 479q-130 0 -200.5 -134t-83.5 -345h571zM1028 723q0 -332 -125 -536.5t-346 -204.5q-333 0 -396 266t-63 434q0 334 125.5 538.5t345.5 204.5q333 0 396 -267t63 -435z" />
    <glyph glyph-name="iota" unicode="&#x3b9;" 
d="M477 309v549h-340v146h514v-667q0 -205 180 -205q81 0 158 25v-149q-68 -22 -162 -22q-176 0 -263 77t-87 246z" />
    <glyph glyph-name="kappa" unicode="&#x3ba;" 
d="M356 0h-174v1004h174v-459l451 459h230l-471 -463l497 -541h-239l-468 538v-538z" />
    <glyph glyph-name="lambda" unicode="&#x3bb;" 
d="M300 1425q122 0 191 -49t122 -199l325 -921q24 -67 47 -91t48 -24h21q22 0 33 2v-143q-53 -12 -95 -12q-81 0 -129 46.5t-89 162.5l-158 448l-47 141l-53 -141l-260 -645h-190l423 1004l-40 114q-33 92 -67 125t-93 33t-126 -23v147q74 25 137 25z" />
    <glyph glyph-name="uni03BC" unicode="&#x3bc;" 
d="M334 -410h-174v1414h174v-639q0 -232 174 -232q66 0 126 43t146 162v666h174v-689q0 -103 17.5 -131.5t37.5 -37.5t50 -9h18v-139q-193 -41 -230 45.5t-46 128.5q-142 -188 -306 -188q-109 0 -175 76l14 -173v-297z" />
    <glyph glyph-name="nu" unicode="&#x3bd;" 
d="M1028 1004q-86 -466 -397 -1004h-178l-383 1004h198l295 -820q209 397 262 820h203z" />
    <glyph glyph-name="xi" unicode="&#x3be;" 
d="M387 995q0 -184 246 -184h239v-145h-237q-227 0 -267 -98.5t-40 -177t71.5 -135t197.5 -82.5q218 -45 296 -115t78 -187q0 -69 -25 -120t-44 -81t-38 -61h-166q19 31 36.5 59.5t38 73.5t20.5 90q0 46 -9 69t-46 50.5t-157 49.5q-227 41 -331.5 141.5t-104.5 263.5
q0 118 73.5 211.5t172.5 123.5q-82 11 -129 79.5t-47 132.5q0 109 56 194t141 121h-238v145h744v-145h-111q-210 0 -315 -86t-105 -187z" />
    <glyph glyph-name="omicron" unicode="&#x3bf;" 
d="M778 779q-78 95 -219 95q-142 0 -216 -105q-73 -105 -73 -267q0 -276 171 -350q54 -24 127 -23q72 1 128 31t92 81q68 98 68 271q0 172 -78 267zM905 127q-129 -145 -350 -145q-220 0 -341 133q-122 133 -122 375t129 387t349 145t342 -132t122 -375t-129 -388z" />
    <glyph glyph-name="pi" unicode="&#x3c0;" 
d="M700 174v684h-295q0 -521 -145 -858h-196q144 278 157.5 513.5t13.5 344.5h-192v146h1030v-146h-199v-320q0 -319 41 -371t167 -24v-147q-190 -37 -286 36.5t-96 141.5z" />
    <glyph glyph-name="rho" unicode="&#x3c1;" 
d="M840 516q0 253 -90.5 305.5t-159.5 52.5q-119 0 -187.5 -84t-68.5 -262v-320q114 -72 237 -72t196 94t73 286zM545 -15q-111 0 -211 59v-454h-174v953q0 210 111 344.5t326.5 134.5t318 -136t102.5 -379t-130 -382.5t-343 -139.5z" />
    <glyph glyph-name="sigma1" unicode="&#x3c2;" 
d="M340 516q0 -222 93 -276.5t193 -71.5q200 -34 272.5 -107t72.5 -190q0 -69 -25 -120t-44 -81t-38 -61h-166q19 31 36.5 59.5t38 73.5t20.5 90q0 46 -9 70.5t-36 48t-73 34.5t-135 25q-382 60 -382 500q0 236 134 372t372 136q159 0 276 -47v-166q-124 65 -272 65
t-238 -93t-90 -261z" />
    <glyph glyph-name="sigma" unicode="&#x3c3;" 
d="M616 872h-53q-153 0 -223 -109t-70 -276t76 -262.5t210 -95.5t199 106t65 245q0 270 -151 389q-42 3 -53 3zM866 860q130 -130 130 -357t-119.5 -374t-331.5 -147t-332.5 132.5t-120.5 376.5q0 243 128.5 387t352.5 144q59 0 123.5 -3t130.5 -6l132 -6t128 -3v-151
q-97 0 -221 7z" />
    <glyph glyph-name="tau" unicode="&#x3c4;" 
d="M732 -14q-118 0 -249 42t-131 306v524h-289v146h914v-146h-451v-510q0 -108 47.5 -161.5t156.5 -53.5t206 27v-150q-86 -24 -204 -24z" />
    <glyph glyph-name="upsilon" unicode="&#x3c5;" 
d="M981 616q0 -179 -31.5 -288t-122.5 -227.5t-293 -118.5q-203 0 -289.5 96.5t-86.5 286.5l4 245q0 204 -24 394h174q24 -184 24 -381l-4 -245q0 -189 74 -218t162 -29t163.5 109.5t75.5 330.5t-25 433h174q25 -209 25 -388z" />
    <glyph glyph-name="phi" unicode="&#x3c6;" 
d="M847.5 761.5q-65.5 98.5 -202.5 115.5v-748q133 19 200.5 120.5t67.5 257.5t-65.5 254.5zM280.5 244q65.5 -98 200.5 -115v748q-131 -19 -198.5 -120t-67.5 -258t65.5 -255zM645 -410h-164v396q-224 15 -332 148t-108 368t122 365t318 153v393h164v-393q442 -32 442 -510
q0 -240 -122 -370t-320 -154v-396z" />
    <glyph glyph-name="chi" unicode="&#x3c7;" 
d="M182 1022q107 0 164 -46.5t105 -162.5l129 -313l254 504h194l-369 -687l195 -458q32 -79 58 -104t71 -25t82 8v-148q-46 -10 -102 -10q-107 0 -164 47t-105 162l-154 372l-58 -122l-232 -449h-195l407 750l-171 403q-32 77 -58.5 103t-71.5 26q-44 0 -81 -8v148
q47 10 102 10z" />
    <glyph glyph-name="psi" unicode="&#x3c8;" 
d="M1061 571q0 -525 -416 -583v-398h-164v394q-296 19 -345.5 170t-49.5 258v592h164v-560q0 -152 57 -227t174 -90v1286h164v-1286q190 34 221 183t31 282t-33 412h164q33 -300 33 -433z" />
    <glyph glyph-name="omega" unicode="&#x3c9;" 
d="M213 471q0 -231 52.5 -281.5t81.5 -50.5q58 0 95 60t37 170v333h168v-307q0 -256 127 -256q65 0 102 85.5t37 244.5q0 329 -111 535h188q97 -232 97 -543q0 -223 -87 -351t-232 -128q-195 0 -209 231q-17 -116 -79.5 -173.5t-134.5 -57.5q-144 0 -225 122t-81 398t97 502
h188q-111 -209 -111 -533z" />
    <glyph glyph-name="iotadieresis" unicode="&#x3ca;" 
d="M477 309v549h-340v146h514v-667q0 -205 180 -205q81 0 158 25v-149q-68 -22 -162 -22q-176 0 -263 77t-87 246zM778 1405q24 0 44 -9q20 -8 36 -24t24 -36q9 -20 9 -44t-9 -44q-8 -20 -24 -35t-36 -24t-44 -9t-44 9t-35 24t-24 35t-9 44t9 44t24 36t35 24q20 9 44 9z
M348 1405q24 0 44 -9q20 -8 36 -24t24 -36q9 -20 9 -44t-9 -44q-8 -20 -24 -35t-36 -24t-44 -9t-44 9t-35 24t-24 35t-9 44t9 44t24 36t35 24q20 9 44 9z" />
    <glyph glyph-name="upsilondieresis" unicode="&#x3cb;" 
d="M981 616q1 -179 -31 -288t-91 -186q-123 -160 -325 -160q-204 0 -290 96t-86 287l4 245q0 204 -24 394h174q24 -184 24 -381l-4 -245q0 -189 110 -232q38 -15 94 -15q120 0 195 110q76 110 76 330q0 221 -25 433h174q25 -209 25 -388zM778 1405q24 0 44 -9q20 -8 36 -24
t24 -36q9 -20 9 -44t-9 -44q-8 -20 -24 -35t-36 -24t-44 -9t-44 9t-35 24t-24 35t-9 44t9 44t24 36t35 24q20 9 44 9zM348 1405q24 0 44 -9q20 -8 36 -24t24 -36q9 -20 9 -44t-9 -44q-8 -20 -24 -35t-36 -24t-44 -9t-44 9t-35 24t-24 35t-9 44t9 44t24 36t35 24q20 9 44 9z
" />
    <glyph glyph-name="omicrontonos" unicode="&#x3cc;" 
d="M778 779q-78 95 -219 95q-142 0 -216 -105q-73 -105 -73 -267q0 -276 171 -350q54 -24 127 -23q72 1 128 31t92 81q68 98 68 271q0 172 -78 267zM905 127q-129 -145 -350 -145q-220 0 -341 133q-122 133 -122 375t129 387t349 145t342 -132t122 -375t-129 -388zM809 1434
l-178 -269h-162l129 269h211z" />
    <glyph glyph-name="upsilontonos" unicode="&#x3cd;" 
d="M981 616q1 -179 -31 -288t-91 -186q-123 -160 -325 -160q-204 0 -290 96t-86 287l4 245q0 204 -24 394h174q24 -184 24 -381l-4 -245q0 -189 110 -232q38 -15 94 -15q120 0 195 110q76 110 76 330q0 221 -25 433h174q25 -209 25 -388zM809 1434l-178 -269h-162l129 269
h211z" />
    <glyph glyph-name="omegatonos" unicode="&#x3ce;" 
d="M213 471q0 -231 79 -307q26 -25 55 -25q58 0 95 60t37 170v333h168v-307q0 -256 127 -256q65 -1 102 85t37 245q0 329 -111 535h188q97 -232 97 -543q0 -223 -87 -351t-232 -128q-195 0 -209 231q-17 -116 -80 -173q-63 -58 -134 -58q-144 0 -225 122t-81 398t97 502h188
q-111 -209 -111 -533zM809 1434l-178 -269h-162l129 269h211z" />
    <glyph glyph-name="uni0400" unicode="&#x400;" 
d="M944 0h-743v1307h743v-150h-565v-405h543v-150h-543v-450h565v-152zM668 1446h-179l-284 213h252z" />
    <glyph glyph-name="uni0401" unicode="&#x401;" 
d="M944 0h-743v1307h743v-150h-565v-405h543v-150h-543v-450h565v-152zM782 1659q22 -1 42 -9t34 -22t22 -34t9 -42q0 -44 -31 -75t-76 -31q-46 0 -76 30t-30 64t8 54t23 34q13 14 33 22t42 9zM344 1659q22 -1 42 -9t34 -22t22 -34t9 -42q0 -45 -32 -75q-32 -31 -76 -31
q-45 0 -75 30t-30 64t8 54t23 34q13 14 33 22t42 9z" />
    <glyph glyph-name="uni0402" unicode="&#x402;" 
d="M426 846h195q206 0 336 -102.5t130 -292.5q0 -235 -134 -346t-320 -107v158q183 -7 224.5 98.5t41.5 170.5q0 122 -71 197.5t-222 75.5h-180v-698h-180v1155h-242v152h746v-152h-324v-309z" />
    <glyph glyph-name="uni0403" unicode="&#x403;" 
d="M414 1151v-1151h-181v1307h752v-156h-571zM922 1659l-285 -213h-178l211 213h252z" />
    <glyph glyph-name="uni0404" unicode="&#x404;" 
d="M682 1174q-360 0 -406 -422h621v-150h-621q10 -233 109.5 -350t300.5 -117q159 0 309 74v-162q-157 -65 -329 -65q-576 0 -576 657q0 332 153.5 509t432.5 177q177 0 319 -63v-168q-149 80 -313 80z" />
    <glyph glyph-name="uni0405" unicode="&#x405;" 
d="M606 1171q-149 0 -221 -51t-72 -137q1 -127 217 -213q180 -72 246 -106q221 -112 221 -301q0 -190 -140 -286q-140 -95 -358 -95t-388 45v172q161 -60 394 -60q306 0 306 207q-1 124 -217 210q-179 71 -245 104q-222 110 -222 305q0 149 123 255q123 105 364 105
q138 0 299 -39v-160q-158 45 -307 45z" />
    <glyph glyph-name="uni0406" unicode="&#x406;" 
d="M473 1157h-301v150h782v-150h-301v-1005h301v-152h-782v152h301v1005z" />
    <glyph glyph-name="uni0407" unicode="&#x407;" 
d="M473 1157h-301v150h782v-150h-301v-1005h301v-152h-782v152h301v1005zM782 1659q22 -1 42 -9t34 -22t22 -34t9 -42q0 -44 -31 -75t-76 -31q-46 0 -76 30t-30 64t8 54t23 34q13 14 33 22t42 9zM344 1659q22 -1 42 -9t34 -22t22 -34t9 -42q0 -45 -32 -75q-32 -31 -76 -31
q-45 0 -75 30t-30 64t8 54t23 34q13 14 33 22t42 9z" />
    <glyph glyph-name="uni0408" unicode="&#x408;" 
d="M469 141q109 1 168 67t59 191v754h-497v154h678v-908q0 -180 -106 -297q-106 -116 -304 -116q-122 0 -228 44q-33 14 -57 29v179q134 -97 287 -97z" />
    <glyph glyph-name="uni0409" unicode="&#x409;" 
d="M944 385q0 118 -41.5 182t-150.5 64h-88v-488h96q146 0 165 94t19 148zM1118 393q0 -393 -358 -393h-262v1164h-125q-23 -473 -43.5 -639.5t-46 -266.5t-60.5 -158.5t-76.5 -82.5t-81.5 -24t-79 13l8 141q55 -5 92.5 59t72.5 257.5t60 843.5h445v-533h94q188 0 274 -102
t86 -279z" />
    <glyph glyph-name="uni040A" unicode="&#x40a;" 
d="M498 1307h166v-533h94q360 0 360 -387q0 -184 -89 -285.5t-269 -101.5h-262v610h-250v-610h-166v1307h166v-554h250v554zM944 388q0 120 -42 181.5t-150 61.5h-88v-488h96q146 0 165 94.5t19 150.5z" />
    <glyph glyph-name="uni040B" unicode="&#x40b;" 
d="M426 846h207q336 0 392 -158.5t56 -275.5v-412h-180v397q0 167 -63 234t-224 67h-188v-698h-180v1155h-242v152h746v-152h-324v-309z" />
    <glyph glyph-name="uni040C" unicode="&#x40c;" 
d="M334 0h-178v1307h178v-607l479 607h211l-516 -621l539 -686h-224l-489 641v-641zM922 1659l-285 -213h-178l211 213h252z" />
    <glyph glyph-name="uni040D" unicode="&#x40d;" 
d="M297 1307v-988l541 988h169v-1307h-178v987l-540 -987h-170v1307h178zM668 1446h-179l-284 213h252z" />
    <glyph glyph-name="uni040E" unicode="&#x40e;" 
d="M267 142q88 0 147 57q60 57 117 202l-474 906h205l258 -504l94 -191h2l271 695h188l-393 -971q-69 -170 -143 -251q-94 -103 -234 -103q-81 0 -155 24l8 152q64 -16 109 -16zM414 1638q0 -127 150 -127t151 127h159q0 -114 -85 -175q-85 -62 -237 -62q-296 0 -296 237
h158z" />
    <glyph glyph-name="uni040F" unicode="&#x40f;" 
d="M123 0v1307h178v-1153h524v1153h178v-1307h-354l-8 -283h-156l-8 283h-354z" />
    <glyph glyph-name="uni0410" unicode="&#x410;" 
d="M780 444l-221 699l-221 -699h442zM1116 0h-194l-91 285h-544l-92 -285h-185l434 1307h244z" />
    <glyph glyph-name="uni0411" unicode="&#x411;" 
d="M848 389q0 234 -313 234h-199v-473h205q152 0 229.5 62.5t77.5 176.5zM336 770h211q233 0 361 -104t128 -277t-138 -281t-370 -108h-370v1307h786v-150h-608v-387z" />
    <glyph glyph-name="uni0412" unicode="&#x412;" 
d="M827 385q1 153 -179 200q-58 15 -130 15h-182v-450h188q153 0 228 57t75 178zM784 957q0 99 -60 149q-60 51 -204 51h-184v-409h178q192 0 250 120q20 40 20 89zM969 989q0 -225 -215 -295q180 -34 241 -186q21 -52 21 -132t-36 -152t-104 -122q-138 -102 -376 -102h-342
v1307h374q437 0 437 -318z" />
    <glyph glyph-name="uni0413" unicode="&#x413;" 
d="M414 1151v-1151h-181v1307h752v-156h-571z" />
    <glyph glyph-name="uni0414" unicode="&#x414;" 
d="M926 -283v283h-742v-283h-159l-13 433h15q251 0 295 1157h632v-1157h144l-13 -433h-159zM776 150v1003h-289q-29 -875 -194 -1003h483z" />
    <glyph glyph-name="uni0415" unicode="&#x415;" 
d="M944 0h-743v1307h743v-150h-565v-405h543v-150h-543v-450h565v-152z" />
    <glyph glyph-name="uni0416" unicode="&#x416;" 
d="M645 0h-164v670l-307 -670h-184l323 674l-309 633h174l303 -635v635h164v-635l307 635h170l-305 -629l324 -678h-189l-307 670v-670z" />
    <glyph glyph-name="uni0417" unicode="&#x417;" 
d="M489 134q153 0 229.5 66t76.5 176t-83.5 167t-228.5 57h-274v147h270q193 0 233 81.5t40 129.5q0 101 -62 159t-221 58q-158 0 -326 -54v155q158 47 369 47q210 0 318 -88t108 -246q0 -227 -215 -297q180 -34 221 -135t41 -181t-36.5 -154.5t-140.5 -156t-322 -81.5
q-219 0 -377 55v164q167 -69 380 -69z" />
    <glyph glyph-name="uni0418" unicode="&#x418;" 
d="M297 1307v-988l541 988h169v-1307h-178v987l-540 -987h-170v1307h178z" />
    <glyph glyph-name="uni0419" unicode="&#x419;" 
d="M297 1307v-988l541 988h169v-1307h-178v987l-540 -987h-170v1307h178zM414 1638q0 -127 150 -127t151 127h159q0 -114 -85 -175q-85 -62 -237 -62q-296 0 -296 237h158z" />
    <glyph glyph-name="uni041A" unicode="&#x41a;" 
d="M334 0h-178v1307h178v-607l479 607h211l-516 -621l539 -686h-224l-489 641v-641z" />
    <glyph glyph-name="uni041B" unicode="&#x41b;" 
d="M969 0h-178v1153h-289q-26 -729 -130 -943t-254 -214q-46 0 -91 10l8 152q154 -20 207 243.5t69.5 500t24.5 405.5h633v-1307z" />
    <glyph glyph-name="uni041C" unicode="&#x41c;" 
d="M1077 0h-174l-26 815l-11 313l-61 -182l-193 -520h-123l-184 500l-61 202l-4 -327l-23 -801h-168l64 1307h211l233 -658l55 166l185 492h217z" />
    <glyph glyph-name="uni041D" unicode="&#x41d;" 
d="M1016 0h-178v600h-549v-600h-178v1307h178v-553h549v553h178v-1307z" />
    <glyph glyph-name="uni041E" unicode="&#x41e;" 
d="M808 1031q-78 138 -241 138t-244 -144t-81 -368q0 -374 174 -482q61 -38 146 -38q85 1 146 41q60 40 100 110q78 136 78 370q0 235 -78 373zM925 155q-146 -173 -383 -173t-361 173t-124 499q0 325 146 498t381 173t361 -174t126 -498q0 -325 -146 -498z" />
    <glyph glyph-name="uni041F" unicode="&#x41f;" 
d="M1009 0h-178v1149h-536v-1149h-178v1307h892v-1307z" />
    <glyph glyph-name="uni0420" unicode="&#x420;" 
d="M831 892q-1 133 -83 200t-230 67h-182v-538h166q158 0 244 69t85 202zM1016 922q0 -192 -132 -323q-132 -130 -386 -130h-162v-469h-178v1307h368q337 0 450 -215q40 -76 40 -170z" />
    <glyph glyph-name="uni0421" unicode="&#x421;" 
d="M686 143q159 0 309 74v-168q-157 -65 -329 -65q-278 0 -426 166t-148 485q0 320 158 504t426 184q177 0 319 -63v-175q-146 80 -322 80q-177 0 -285 -135q-107 -135 -107 -382t103 -376t302 -129z" />
    <glyph glyph-name="uni0422" unicode="&#x422;" 
d="M1040 1155h-387v-1155h-180v1155h-387v152h954v-152z" />
    <glyph glyph-name="uni0423" unicode="&#x423;" 
d="M267 142q88 0 147.5 57t116.5 202l-474 906h205l258 -504l94 -191h2l271 695h188l-393 -971q-69 -170 -153 -262t-224 -92q-81 0 -155 24l8 152q64 -16 109 -16z" />
    <glyph glyph-name="uni0424" unicode="&#x424;" 
d="M645 1042v-779q268 35 268 392q0 356 -268 387zM215 657q0 -287 101 -337t165 -57v779q-266 -30 -266 -385zM645 1192q442 -34 442 -538q0 -256 -124 -386t-318 -155v-131h-164v131q-440 31 -440 534q0 389 174.5 461t265.5 84v133h164v-133z" />
    <glyph glyph-name="uni0425" unicode="&#x425;" 
d="M1102 0h-225l-318 528l-319 -528h-222l435 668l-400 639h211l299 -492l301 492h205l-401 -631z" />
    <glyph glyph-name="uni0426" unicode="&#x426;" 
d="M928 -283v283h-801v1307h178v-1153h496v1153h178v-1153h121l-13 -437h-159z" />
    <glyph glyph-name="uni0427" unicode="&#x427;" 
d="M551 528q-450 0 -450 447v332h179v-318q0 -234 100.5 -272.5t176.5 -38.5q162 0 281 45v584h178v-1307h-178v575q-141 -47 -287 -47z" />
    <glyph glyph-name="uni0428" unicode="&#x428;" 
d="M84 1307h164v-1164h235v1164h160v-1164h235v1164h164v-1307h-958v1307z" />
    <glyph glyph-name="uni0429" unicode="&#x429;" 
d="M74 0v1307h164v-1164h235v1164h160v-1164h235v1164h164v-1164h80l-12 -426h-152v283h-874z" />
    <glyph glyph-name="uni042A" unicode="&#x42a;" 
d="M868 399q0 244 -313 244h-127v-493h133q157 0 232 65.5t75 183.5zM35 1155v152h393v-516h139q239 0 364.5 -106t125.5 -288t-137.5 -289.5t-370.5 -107.5h-299v1155h-215z" />
    <glyph glyph-name="uni042B" unicode="&#x42b;" 
d="M872 0v1307h172v-1307h-172zM354 152q242 0 242 247q0 181 -86.5 212.5t-151.5 31.5h-104v-491h100zM254 791h104q209 0 310.5 -105.5t101.5 -273.5q0 -296 -158.5 -354t-259.5 -58h-270v1307h172v-516z" />
    <glyph glyph-name="uni042C" unicode="&#x42c;" 
d="M846 399q0 244 -311 244h-199v-493h205q157 0 231 65.5t74 183.5zM336 791h211q235 0 362 -106t127 -287t-136.5 -289.5t-371.5 -108.5h-370v1307h178v-516z" />
    <glyph glyph-name="uni042D" unicode="&#x42d;" 
d="M229 602v150h619q-28 316 -168.5 369t-239.5 53q-159 0 -309 -74v160q160 65 318 65q587 0 587 -657q0 -520 -223 -603t-382 -83t-300 63v170q149 -80 313 -80q203 0 301 116t107 351h-623z" />
    <glyph glyph-name="uni042E" unicode="&#x42e;" 
d="M888 1061q-32 125 -130 125q-132 0 -148 -202t-16 -330q0 -281 32.5 -407t131.5 -126q135 0 148.5 204t13.5 407q0 204 -32 329zM774 1325q182 0 247.5 -159t65.5 -509q0 -349 -75.5 -512t-259.5 -163t-253 154.5t-71 467.5h-178v-604h-166v1307h166v-557h178
q12 441 132.5 508t213.5 67z" />
    <glyph glyph-name="uni042F" unicode="&#x42f;" 
d="M359 926q0 -242 264 -242h153v473h-160q-128 0 -192.5 -60t-64.5 -171zM283 1201q111 106 348 106h325v-1307h-180v541h-135q-84 0 -134 -35t-83 -129l-131 -377h-199l144 389q61 159 176 197q-116 22 -179 113t-63 244q0 152 111 258z" />
    <glyph glyph-name="uni0430" unicode="&#x430;" 
d="M786 457h-221q-187 1 -233 -107q-14 -34 -15 -70q0 -70 41 -111q41 -42 127 -42q136 0 301 152v178zM133 279q1 139 113 225t332 86h208v88q0 88 -57 142t-193 54t-319 -73v157q176 64 352 64q285 0 365 -184q27 -62 27 -146v-692h-156l-4 135q-155 -153 -331 -153
t-256 79q-81 78 -81 218z" />
    <glyph glyph-name="uni0431" unicode="&#x431;" 
d="M641 972q178 0 286.5 -128.5t108.5 -353.5t-132 -366.5t-339 -141.5q-440 0 -440 630q0 558 208.5 670.5t313.5 124.5t144 16.5t75 8.5t64 10v-160q-29 -7 -109.5 -14.5t-152.5 -17.5t-147 -44t-136.5 -112t-93.5 -317q139 195 350 195zM790 735q-68 90 -166 90
q-128 0 -203 -81t-118 -140v-19q0 -366 106.5 -410t170.5 -44t117.5 29.5t107 102.5t53.5 228q0 154 -68 244z" />
    <glyph glyph-name="uni0432" unicode="&#x432;" 
d="M838 289q0 157 -290 157h-214v-307q86 -14 230 -14q274 0 274 164zM537 881q-119 0 -203 -11v-290h202q259 0 259 150t-258 151zM973 764q0 -178 -197 -236q166 -28 206 -106t40 -138q0 -135 -124 -217.5t-372 -82.5q-172 0 -366 24v991q197 23 399 23q203 0 308.5 -66.5
t105.5 -191.5z" />
    <glyph glyph-name="uni0433" unicode="&#x433;" 
d="M418 854v-854h-176v1004h727v-150h-551z" />
    <glyph glyph-name="uni0434" unicode="&#x434;" 
d="M922 -256v256h-732v-256h-157l-10 406h14q85 0 170 98.5t121 755.5h620v-854h144l-11 -406h-159zM774 854h-280q-28 -478 -84.5 -577t-90.5 -127h455v704z" />
    <glyph glyph-name="uni0435" unicode="&#x435;" 
d="M380 799q-71 -84 -81 -219h528q6 136 -64 220q-70 83 -191 83t-192 -84zM608 -18q-491 0 -491 518q0 220 123 371t332 151q208 0 322 -125t114 -342q0 -65 -4 -109h-705q0 -154 86 -236t251 -83q165 0 318 43v-143q-160 -45 -346 -45z" />
    <glyph glyph-name="uni0436" unicode="&#x436;" 
d="M483 1004h160v-484l305 484h172l-323 -484l331 -520h-190l-295 510v-510h-160v510l-295 -510h-190l332 520l-324 484h172l305 -484v484z" />
    <glyph glyph-name="uni0437" unicode="&#x437;" 
d="M486 -18q-193 0 -353 36v162q187 -51 369 -51q235 0 264 61.5t29 97.5q0 79 -62.5 121t-226.5 42h-246v135h245q208 0 228.5 56t20.5 90q0 72 -57 108.5t-208 36.5t-342 -43v147q187 41 340 41t300 -36.5t147 -225.5q0 -137 -75.5 -178t-129.5 -50q176 -26 214 -108
t38 -136q0 -306 -495 -306z" />
    <glyph glyph-name="uni0438" unicode="&#x438;" 
d="M348 1004v-707l438 707h166v-1004h-174v707l-438 -707h-166v1004h174z" />
    <glyph glyph-name="uni0439" unicode="&#x439;" 
d="M348 1004v-707l438 707h166v-1004h-174v707l-438 -707h-166v1004h174zM418 1391q0 -140 146 -140t147 140h159q0 -115 -84 -182q-84 -68 -225 -68q-301 0 -301 250h158z" />
    <glyph glyph-name="uni043A" unicode="&#x43a;" 
d="M356 0h-174v1004h174v-459l451 459h230l-471 -463l497 -541h-239l-468 538v-538z" />
    <glyph glyph-name="uni043B" unicode="&#x43b;" 
d="M958 0h-174v854h-280q-33 -574 -140 -718t-190.5 -143t-140.5 15l8 144q89 -9 177 80.5t120 771.5h620v-1004z" />
    <glyph glyph-name="uni043C" unicode="&#x43c;" 
d="M1077 0h-172l-26 627l-11 223l-59 -156l-188 -456h-127l-181 438l-63 174l-8 -236l-27 -614h-166l64 1004h231l172 -433l47 -129l47 129l176 433h228z" />
    <glyph glyph-name="uni043D" unicode="&#x43d;" 
d="M967 0h-174v444h-459v-444h-174v1004h174v-408h459v408h174v-1004z" />
    <glyph glyph-name="uni043E" unicode="&#x43e;" 
d="M778 779q-78 95 -219 95q-142 0 -216 -105q-73 -105 -73 -267q0 -276 171 -350q54 -24 127 -23q72 1 128 31t92 81q68 98 68 271q0 172 -78 267zM905 127q-129 -145 -350 -145q-220 0 -341 133q-122 133 -122 375t129 387t349 145t342 -132t122 -375t-129 -388z" />
    <glyph glyph-name="uni043F" unicode="&#x43f;" 
d="M967 0h-174v852h-459v-852h-174v1004h807v-1004z" />
    <glyph glyph-name="uni0440" unicode="&#x440;" 
d="M840 512q0 256 -112 332q-38 26 -82 26q-80 0 -152 -48t-160 -163v-487q103 -43 205 -43q141 -1 221 95t80 288zM326 836q136 186 338 186q174 0 264 -134t90 -381t-136 -383t-355 -136q-104 0 -193 22v-420h-174v1414h155z" />
    <glyph glyph-name="uni0441" unicode="&#x441;" 
d="M286 115q-128 129 -128 371t140 387t366 145q159 0 276 -47v-166q-124 65 -267 65t-238 -101t-95 -277t88 -266t238 -91q150 0 274 64v-162q-133 -51 -287 -51q-239 0 -367 129z" />
    <glyph glyph-name="uni0442" unicode="&#x442;" 
d="M1032 854h-381v-854h-176v854h-381v150h938v-150z" />
    <glyph glyph-name="uni0443" unicode="&#x443;" 
d="M164 -262q96 0 168 61t135 201l-401 1004h198l254 -664l51 -156l293 820h191l-342 -898q-109 -281 -236 -401q-127 -121 -323 -121q-43 0 -93 4v158q59 -8 105 -8z" />
    <glyph glyph-name="uni0444" unicode="&#x444;" 
d="M913 500q0 275 -101.5 321.5t-166.5 55.5v-748q268 39 268 371zM215 506q0 -263 97.5 -315.5t168.5 -61.5v748q-266 -39 -266 -371zM1087 510q0 -474 -442 -522v-398h-164v396q-221 12 -330.5 133t-109.5 379q0 471 440 520v395h164v-393q225 -16 333.5 -134.5
t108.5 -375.5z" />
    <glyph glyph-name="uni0445" unicode="&#x445;" 
d="M1065 0h-231l-271 383l-268 -383h-225l389 504l-371 500h223l264 -386l259 386h215l-377 -504z" />
    <glyph glyph-name="uni0446" unicode="&#x446;" 
d="M911 -256v256h-759v1004h174v-854h458v854h174v-854h121l-10 -406h-158z" />
    <glyph glyph-name="uni0447" unicode="&#x447;" 
d="M586 389q-451 0 -451 340v275h176v-252q0 -119 67 -167t226 -48h189v467h174v-1004h-174v389h-207z" />
    <glyph glyph-name="uni0448" unicode="&#x448;" 
d="M90 1004h160v-861h233v861h160v-861h233v861h160v-1004h-946v1004z" />
    <glyph glyph-name="uni0449" unicode="&#x449;" 
d="M76 0v1004h160v-861h233v861h160v-861h233v861h160v-861h86l-10 -399h-154v256h-868z" />
    <glyph glyph-name="uni044A" unicode="&#x44a;" 
d="M597 629q441 0 441 -314q0 -327 -458 -327q-203 0 -338 20v850h-207v146h381v-379q80 4 181 4zM860 307q0 176 -248 176q-115 0 -196 -4v-337q64 -8 152 -8q162 0 227 39.5t65 133.5z" />
    <glyph glyph-name="uni044B" unicode="&#x44b;" 
d="M403 618q166 0 262.5 -83t96.5 -231t-102.5 -232t-279.5 -84t-298 18v998h172v-388q71 2 149 2zM370 132q212 0 212 176q0 166 -207 166q-57 0 -121 -4v-330q52 -8 116 -8zM872 0v1004h172v-1004h-172z" />
    <glyph glyph-name="uni044C" unicode="&#x44c;" 
d="M559 629q457 0 457 -312q0 -329 -479 -329q-216 0 -371 20v996h174v-379q100 4 219 4zM771 175q65 41 65 138q0 170 -283 170q-111 0 -213 -4v-335q102 -10 234 -10t197 41z" />
    <glyph glyph-name="uni044D" unicode="&#x44d;" 
d="M452 1022q545 0 545 -514q0 -393 -202.5 -459.5t-356.5 -66.5t-282 47v161q136 -65 305 -65q332 0 354 317h-600v138h596q-23 235 -153 267t-203 32q-163 0 -299 -64v156q145 51 296 51z" />
    <glyph glyph-name="uni044E" unicode="&#x44e;" 
d="M758 887q-164 0 -164 -339q0 -271 39 -351t126 -80t125 85.5t38 296.5t-36 299.5t-128 88.5zM1016 901.5q71 -120.5 71 -392.5q0 -271 -80 -399t-259 -128q-259 0 -288 180t-30 291h-182v-453h-164v1004h164v-424h182q12 234 93.5 338t251.5 104t241 -120.5z" />
    <glyph glyph-name="uni044F" unicode="&#x44f;" 
d="M360 702q0 -172 232 -172h188v336q-86 8 -201 8q-219 0 -219 -172zM626 1018q143 0 328 -19v-999h-174v389h-151q-86 0 -143.5 -33.5t-92.5 -113.5l-110 -242h-197l137 290q33 70 72.5 106t99.5 48q-115 22 -164 93.5t-49 149.5q0 79 22 137t71 101t128.5 68t222.5 25z
" />
    <glyph glyph-name="uni0450" unicode="&#x450;" 
d="M380 799q-71 -84 -81 -219h528q6 136 -64 220q-70 83 -191 83t-192 -84zM608 -18q-491 0 -491 518q0 220 123 371t332 151q208 0 322 -125t114 -342q0 -65 -4 -109h-705q0 -154 86 -236t251 -83q165 0 318 43v-143q-160 -45 -346 -45zM668 1171h-174l-320 242h252z" />
    <glyph glyph-name="uni0451" unicode="&#x451;" 
d="M380 799q-71 -84 -81 -219h528q6 136 -64 220q-70 83 -191 83t-192 -84zM608 -18q-491 0 -491 518q0 220 123 371t332 151q208 0 322 -125t114 -342q0 -65 -4 -109h-705q0 -154 86 -236t251 -83q165 0 318 43v-143q-160 -45 -346 -45zM778 1405q24 0 44 -9q20 -8 36 -24
t24 -36q9 -20 9 -44t-9 -44q-8 -20 -24 -35t-36 -24t-44 -9t-44 9t-35 24t-24 35t-9 44t9 44t24 36t35 24q20 9 44 9zM348 1405q24 0 44 -9q20 -8 36 -24t24 -36q9 -20 9 -44t-9 -44q-8 -20 -24 -35t-36 -24t-44 -9t-44 9t-35 24t-24 35t-9 44t9 44t24 36t35 24q20 9 44 9z
" />
    <glyph glyph-name="uni0452" unicode="&#x452;" 
d="M649 1280v-141h-315v-176l-6 -164q79 93 154 134.5t163 41.5t216 -58.5t128 -556.5v-2q0 -487 -91.5 -618t-179.5 -145.5t-153 -14.5v150q91 0 142 36.5t79.5 170.5t28.5 421v2q0 375 -70.5 420t-112.5 45q-76 0 -136 -43t-162 -164v-618h-174v1139h-160v141h160v133h174
v-133h315z" />
    <glyph glyph-name="uni0453" unicode="&#x453;" 
d="M418 854v-854h-176v1004h727v-150h-551zM952 1413l-319 -242h-174l241 242h252z" />
    <glyph glyph-name="uni0454" unicode="&#x454;" 
d="M340 442q20 -317 354 -317q170 0 305 63v-155q-141 -51 -309 -51q-272 0 -402 127.5t-130 384.5t143 392.5t397 135.5q177 0 301 -47v-162q-138 66 -305 66q-240 0 -294 -114t-60 -185h600v-138h-600z" />
    <glyph glyph-name="uni0455" unicode="&#x455;" 
d="M373 748q0 -56 52 -93t176 -74q212 -62 283 -128t71 -179q-1 -190 -227 -263q-90 -29 -240 -29t-306 38v160q180 -51 348 -51q245 0 245 131q-1 55 -35 82q-57 44 -177 80q-121 36 -179 62q-190 84 -189 253q0 106 86 185q109 100 327 100q140 0 281 -29v-155
q-160 39 -283 39q-233 0 -233 -129z" />
    <glyph glyph-name="uni0456" unicode="&#x456;" 
d="M563 1425q59 0 98 -40t39 -83q0 -42 -10 -67t-30 -44q-18 -19 -43 -29t-54 -11q-59 0 -98 40t-39 83q0 44 10 68t30 43q38 40 97 40zM502 860h-297v144h473v-859h299v-145h-805v145h330v715z" />
    <glyph glyph-name="uni0457" unicode="&#x457;" 
d="M502 860h-297v144h473v-859h299v-145h-805v145h330v715zM778 1405q24 0 44 -9q20 -8 36 -24t24 -36q9 -20 9 -44t-9 -44q-8 -20 -24 -35t-36 -24t-44 -9t-44 9t-35 24t-24 35t-9 44t9 44t24 36t35 24q20 9 44 9zM348 1405q24 0 44 -9q20 -8 36 -24t24 -36q9 -20 9 -44
t-9 -44q-8 -20 -24 -35t-36 -24t-44 -9t-44 9t-35 24t-24 35t-9 44t9 44t24 36t35 24q20 9 44 9z" />
    <glyph glyph-name="uni0458" unicode="&#x458;" 
d="M735 1425q59 0 98 -40t39 -83q0 -44 -10 -68t-30 -43q-18 -19 -43 -29t-54 -11q-59 0 -98 40t-39 83q0 42 10 67t30 44q38 40 97 40zM420 -272q114 0 179 72t65 212v848h-492v144h668v-986q0 -208 -115 -323t-322 -115q-151 0 -272 51v166q134 -69 289 -69z" />
    <glyph glyph-name="uni0459" unicode="&#x459;" 
d="M800 623q65 0 191.5 -45.5t126.5 -269.5q0 -148 -88.5 -235t-245.5 -87t-286 20v850h-133q-19 -393 -50 -541t-59 -205t-78.5 -93.5t-177.5 -10.5l8 146q68 -7 102 46.5t56.5 229t42.5 576.5h453v-386q73 5 138 5zM762 127q182 0 182 182q0 172 -182 172q-40 0 -100 -4
v-342q48 -8 100 -8z" />
    <glyph glyph-name="uni045A" unicode="&#x45a;" 
d="M784 -14q-157 0 -286 20v444h-248v-450h-160v1004h160v-411h248v411h164v-386q73 5 138 5t191.5 -44t126.5 -270q0 -149 -88.5 -236t-245.5 -87zM944 287q0 107 -42 150t-140 43q-40 0 -100 -4v-339q48 -8 102 -8q99 0 139.5 48.5t40.5 109.5z" />
    <glyph glyph-name="uni045B" unicode="&#x45b;" 
d="M653 973q150 1 232 -91t82 -276v-606h-174v592q1 115 -43 173t-119 58t-135 -43t-162 -164v-616h-174v1139h-160v141h160v133h174v-133h315v-141h-315v-176l-6 -166q117 140 240 167q41 9 85 9z" />
    <glyph glyph-name="uni045C" unicode="&#x45c;" 
d="M356 0h-174v1004h174v-459l451 459h230l-471 -463l497 -541h-239l-468 538v-538zM952 1413l-319 -242h-174l241 242h252z" />
    <glyph glyph-name="uni045D" unicode="&#x45d;" 
d="M348 1004v-707l438 707h166v-1004h-174v707l-438 -707h-166v1004h174zM668 1171h-174l-320 242h252z" />
    <glyph glyph-name="uni045E" unicode="&#x45e;" 
d="M164 -262q96 0 168 61t135 201l-401 1004h198l254 -664l51 -156l293 820h191l-342 -898q-109 -281 -236 -401q-127 -121 -323 -121q-43 0 -93 4v158q59 -8 105 -8zM418 1391q0 -140 146 -140t147 140h159q0 -115 -84 -182q-84 -68 -225 -68q-301 0 -301 250h158z" />
    <glyph glyph-name="uni045F" unicode="&#x45f;" 
d="M160 0v1004h174v-850h458v850h174v-1004h-319l-8 -255h-152l-8 255h-319z" />
    <glyph glyph-name="uni0462" unicode="&#x462;" 
d="M899 389q0 234 -313 234h-160v-473h166q153 0 230 62.5t77 176.5zM246 1155h-242v152h746v-152h-324v-385h172q234 0 361.5 -103.5t127.5 -277.5q0 -173 -138 -281t-369 -108h-334v1155z" />
    <glyph glyph-name="uni0463" unicode="&#x463;" 
d="M590 614q221 0 334.5 -84t113.5 -229t-126 -229t-341 -84t-350 20v850h-186v146h186v276l174 45v-321h451v-146h-451v-248q82 4 195 4zM554 133q306 0 306 174q0 162 -276 162q-107 0 -189 -4v-324q65 -8 159 -8z" />
    <glyph glyph-name="uni0472" unicode="&#x472;" 
d="M884 748q-39 421 -321 421q-145 0 -222 -114t-97 -307h640zM562 137q151 0 232 126t92 339h-644q13 -335 126.5 -400t193.5 -65zM925 155q-146 -173 -383 -173t-361 173.5t-124 498.5t145.5 498t381.5 173q235 0 361 -173.5t126 -498.5t-146 -498z" />
    <glyph glyph-name="uni0473" unicode="&#x473;" 
d="M557 875q-123 0 -198 -87t-86 -208h580q-19 150 -96 222.5t-200 72.5zM563 129q194 0 239.5 126t50.5 191h-580q6 -151 83 -234t207 -83zM904.5 127q-129.5 -145 -349.5 -145t-341.5 133t-121.5 375t129.5 387t348.5 145q220 0 342 -132t122 -375t-129.5 -388z" />
    <glyph glyph-name="uni0474" unicode="&#x474;" 
d="M1036 1315q49 0 84 -6v-158q-11 2 -14 2h-25q-48 0 -75 -29t-48 -104l-282 -1020h-250l-422 1307h201l274 -881l76 -258l63 258l170 666q40 158 119.5 190.5t128.5 32.5z" />
    <glyph glyph-name="uni0475" unicode="&#x475;" 
d="M1007 1010q46 0 83 -6v-154q-11 2 -14 2h-25q-47 0 -71.5 -20.5t-47.5 -81.5l-266 -750h-207l-393 1004h198l246 -664l53 -162l51 166l152 457q36 107 74.5 143t79.5 51t87 15z" />
    <glyph glyph-name="uni0490" unicode="&#x490;" 
d="M985 1559v-408h-573v-1151h-179v1307h603l10 252h139z" />
    <glyph glyph-name="uni0491" unicode="&#x491;" 
d="M969 1262v-408h-551v-854h-176v1004h592l12 258h123z" />
    <glyph glyph-name="Wgrave" unicode="&#x1e80;" 
d="M1081 1307l-88 -1307h-231l-162 465l-45 149l-47 -161l-150 -453h-223l-90 1307h168l51 -889l15 -244l63 207l158 485h123l243 -692l4 180l52 953h159zM668 1446h-179l-284 213h252z" />
    <glyph glyph-name="wgrave" unicode="&#x1e81;" 
d="M1090 1004l-146 -1004h-211l-145 420l-29 102l-33 -108l-139 -414h-205l-145 1004h170l102 -834l189 584h125l202 -578l93 828h172zM668 1171h-174l-320 242h252z" />
    <glyph glyph-name="Wacute" unicode="&#x1e82;" 
d="M1081 1307l-88 -1307h-231l-162 465l-45 149l-47 -161l-150 -453h-223l-90 1307h168l51 -889l15 -244l63 207l158 485h123l243 -692l4 180l52 953h159zM922 1659l-285 -213h-178l211 213h252z" />
    <glyph glyph-name="wacute" unicode="&#x1e83;" 
d="M1090 1004l-146 -1004h-211l-145 420l-29 102l-33 -108l-139 -414h-205l-145 1004h170l102 -834l189 584h125l202 -578l93 828h172zM952 1413l-319 -242h-174l241 242h252z" />
    <glyph glyph-name="Wdieresis" unicode="&#x1e84;" 
d="M1081 1307l-88 -1307h-231l-162 465l-45 149l-47 -161l-150 -453h-223l-90 1307h168l51 -889l15 -244l63 207l158 485h123l243 -692l4 180l52 953h159zM782 1659q22 -1 42 -9t34 -22t22 -34t9 -42q0 -44 -31 -75t-76 -31q-46 0 -76 30t-30 64t8 54t23 34q13 14 33 22
t42 9zM344 1659q22 -1 42 -9t34 -22t22 -34t9 -42q0 -45 -32 -75q-32 -31 -76 -31q-45 0 -75 30t-30 64t8 54t23 34q13 14 33 22t42 9z" />
    <glyph glyph-name="wdieresis" unicode="&#x1e85;" 
d="M1090 1004l-146 -1004h-211l-145 420l-29 102l-33 -108l-139 -414h-205l-145 1004h170l102 -834l189 584h125l202 -578l93 828h172zM778 1405q24 0 44 -9q20 -8 36 -24t24 -36q9 -20 9 -44t-9 -44q-8 -20 -24 -35t-36 -24t-44 -9t-44 9t-35 24t-24 35t-9 44t9 44t24 36
t35 24q20 9 44 9zM348 1405q24 0 44 -9q20 -8 36 -24t24 -36q9 -20 9 -44t-9 -44q-8 -20 -24 -35t-36 -24t-44 -9t-44 9t-35 24t-24 35t-9 44t9 44t24 36t35 24q20 9 44 9z" />
    <glyph glyph-name="Ygrave" unicode="&#x1ef2;" 
d="M653 0h-180v471l-473 836h215l260 -478l96 -192l88 174l263 496h204l-473 -840v-467zM668 1446h-179l-284 213h252z" />
    <glyph glyph-name="ygrave" unicode="&#x1ef3;" 
d="M164 -262q96 0 168 61t135 201l-401 1004h198l254 -664l51 -156l293 820h191l-342 -898q-109 -281 -236 -401q-127 -121 -323 -121q-43 0 -93 4v158q59 -8 105 -8zM668 1171h-174l-320 242h252z" />
    <glyph glyph-name="endash" unicode="&#x2013;" 
d="M993 469h-860v152h860v-152z" />
    <glyph glyph-name="emdash" unicode="&#x2014;" 
d="M1130 469h-1134v152h1134v-152z" />
    <glyph glyph-name="uni2015" unicode="&#x2015;" 
d="M1130 469h-1134v152h1134v-152z" />
    <glyph glyph-name="quoteleft" unicode="&#x2018;" 
d="M625 1120q0 -42 14.5 -67.5t47 -65t32.5 -92.5t-35 -93t-100 -40q-120 0 -149 89t-29 161t30 149t126.5 170.5t326.5 93.5v-137q-175 3 -219.5 -61.5t-44.5 -106.5z" />
    <glyph glyph-name="quoteright" unicode="&#x2019;" 
d="M455 1183q-47 57 -47 96t8 61.5t24.5 41.5t42 31t81 12t106.5 -61.5t51 -160.5q0 -193 -127 -317t-356 -124v137q108 -4 186 42t78 115.5t-47 126.5z" />
    <glyph glyph-name="quotesinglbase" unicode="&#x201a;" 
d="M455 79q-47 57 -47 96t8 62t24.5 42t42 31t81 12t106.5 -62.5t51 -161.5q0 -193 -127 -316.5t-356 -123.5v137q106 -4 185 42.5t79 115.5t-47 126z" />
    <glyph glyph-name="quotedblleft" unicode="&#x201c;" 
d="M838 1139q0 -39 13 -63t29 -45t29 -44t13 -53t-7.5 -51.5t-23 -39t-39.5 -29t-75.5 -11.5t-99.5 58.5t-48 151.5q0 181 117 296.5t323 115.5v-129q-152 3 -191.5 -57.5t-39.5 -99.5zM313 1139q0 -39 13 -63t29 -45t29 -44t13 -53t-7.5 -51.5t-23 -39t-39.5 -29
t-75.5 -11.5t-99.5 58.5t-48 151.5q0 180 117.5 296t323.5 116v-129q-151 3 -191.5 -57.5t-40.5 -99.5z" />
    <glyph glyph-name="quotedblright" unicode="&#x201d;" 
d="M289 1072q0 57 -13 80.5t-42 61.5t-29 102t47 86.5t98.5 22.5t99.5 -57.5t48 -151.5q0 -180 -117.5 -296.5t-323.5 -116.5v129q91 -4 161.5 39.5t70.5 100.5zM813 1072q0 57 -13 80.5t-42 61.5t-29 102t47 86.5t98.5 22.5t99.5 -57.5t48 -151.5q0 -180 -117.5 -296.5
t-322.5 -116.5v129q91 -4 161 39.5t70 100.5z" />
    <glyph glyph-name="quotedblbase" unicode="&#x201e;" 
d="M247 69q-42 55 -42 91t7.5 57.5t23 39t39.5 29t75.5 11.5t99.5 -58.5t48 -151.5q0 -179 -117 -296t-324 -117v129q92 -4 162 40t70 107.5t-42 118.5zM771 69q-42 55 -42 91t7.5 57.5t23 39t39.5 29t75.5 11.5t99.5 -58.5t48 -151.5q0 -179 -117 -296t-323 -117v129
q92 -4 161.5 40.5t69.5 107.5t-42 118z" />
    <glyph glyph-name="dagger" unicode="&#x2020;" 
d="M946 1001h-297v-747h-172v747h-297v146h297v266h172v-266h297v-146z" />
    <glyph glyph-name="daggerdbl" unicode="&#x2021;" 
d="M180 1001v146h297v266h172v-266h297v-146h-297v-576h297v-146h-297v-279h-172v279h-297v146h297v576h-297z" />
    <glyph glyph-name="bullet" unicode="&#x2022;" 
d="M563 870q63 0 118.5 -24t97 -65.5t65.5 -97t24 -118.5t-24 -118.5t-65.5 -97t-97 -65.5t-118.5 -24t-118.5 24t-97 65.5t-65.5 97t-24 118.5t24 118.5t65.5 97t97 65.5t118.5 24z" />
    <glyph glyph-name="ellipsis" unicode="&#x2026;" 
d="M1067 102q0 -24 -9 -46t-24.5 -38.5t-37.5 -26t-48 -9.5t-48 9.5t-37.5 25.5t-24.5 38t-9 47t9 47t24.5 38.5t37.5 26t48 9.5t48 -9.5t37.5 -25.5t24.5 -39t9 -47zM682 102q0 -24 -9 -46t-24.5 -38.5t-37.5 -26t-48 -9.5t-48 9.5t-37.5 25.5t-24.5 38t-9 47t9 47
t24.5 38.5t37.5 26t48 9.5t48 -9.5t37.5 -25.5t24.5 -39t9 -47zM297 102q0 -24 -9 -46t-24.5 -38.5t-37.5 -26t-48 -9.5t-48 9.5t-37.5 25.5t-24.5 38t-9 47t9 47t24.5 38.5t37.5 26t48 9.5t48 -9.5t37.5 -25.5t24.5 -39t9 -47z" />
    <glyph glyph-name="perthousand" unicode="&#x2030;" 
d="M758 264q0 -160 102 -160q51 0 77 45.5t26 114.5q0 161 -76.5 161t-102.5 -46t-26 -115zM1102 272q0 -131 -68 -210.5t-178 -79.5q-171 0 -204 103.5t-33 170.5q0 130 67 210.5t178 80.5q171 0 204.5 -104t33.5 -171zM164 1143q0 -161 102 -161q51 0 77 46t26 115
q0 160 -76.5 160t-102.5 -45.5t-26 -114.5zM262 860q-170 0 -203.5 104t-33.5 171q0 131 68 210.5t176 79.5q109 0 174 -68.5t65 -202.5t-67.5 -214t-178.5 -80zM213 264q0 -160 102 -160q51 0 77 45.5t26 114.5q0 161 -76.5 161t-102.5 -46t-26 -115zM557 272
q0 -131 -68 -210.5t-178 -79.5q-169 0 -203 103.5t-34 170.5q0 131 67.5 211t177.5 80q171 0 204.5 -104t33.5 -171zM1126 911l-1126 -381v147l1126 381v-147z" />
    <glyph glyph-name="guilsinglleft" unicode="&#x2039;" 
d="M781 894l-293 -349l293 -349l-134 -98l-359 447l359 446z" />
    <glyph glyph-name="guilsinglright" unicode="&#x203a;" 
d="M345 195l293 349l-293 349l134 98l359 -447l-359 -446z" />
    <glyph glyph-name="uni203D" unicode="&#x203d;" 
d="M926 969q0 -170 -92.5 -257.5t-309.5 -99.5l-5 -229h-154l-21 872q-54 2 -123 2h-25v156h27q67 0 117 -1l-5 191h211l-5 -217q214 -55 299.5 -182.5t85.5 -234.5zM746 953q0 76 -44.5 150.5t-164.5 121.5l-10 -470q219 8 219 198zM440 246q28 0 52 -10.5t41.5 -28.5
t27.5 -42.5t10 -65.5t-38 -79t-79 -38t-65 10.5t-42 28t-28 41.5t-10 51t10 51.5t28 42.5t41.5 28.5t51.5 10.5z" />
    <glyph glyph-name="fraction" unicode="&#x2044;" 
d="M1106 1413l-922 -1413h-164l920 1413h166z" />
    <glyph glyph-name="uni2070" unicode="&#x2070;" 
d="M383 1018q0 -264 180 -264q125 0 166 146q14 50 14 127q0 263 -180 263q-126 0 -166 -146q-14 -50 -14 -126zM921 1032q0 -199 -98 -308t-270 -109q-245 0 -321 218q-26 75 -27 179q0 202 99 310t269 108q244 0 321 -218q27 -76 27 -180z" />
    <glyph glyph-name="uni2074" unicode="&#x2074;" 
d="M627 926v348l-242 -348h242zM920 776h-136v-145h-161v145h-412v144l344 493h229v-487h136v-150z" />
    <glyph glyph-name="uni2075" unicode="&#x2075;" 
d="M487 756q201 0 201 115q0 57 -46 80q-46 22 -159 22h-174v440h514v-153h-358v-152h70q157 0 235 -42q96 -53 96 -183t-106 -199t-281 -69q-69 0 -186 18v145q120 -22 194 -22z" />
    <glyph glyph-name="uni2076" unicode="&#x2076;" 
d="M569 981q-74 0 -151 -26q0 -107 37 -153t109 -46t111 32q38 32 38 82q0 49 -35 80t-109 31zM590 1118q148 0 222 -62t75 -182q0 -120 -91 -189q-91 -70 -237 -70q-321 0 -321 350q0 218 103 333t349 115h117v-141h-129q-192 0 -236 -98q-14 -32 -18 -70v-10q75 24 166 24
z" />
    <glyph glyph-name="uni2077" unicode="&#x2077;" 
d="M256 1260v153h608v-133l-344 -649h-190l342 629h-416z" />
    <glyph glyph-name="uni2078" unicode="&#x2078;" 
d="M416 832q0 -88 148 -88t147 88q1 62 -105 106q-30 12 -63 25q-127 -54 -127 -131zM700 1228q0 75 -137 75t-137 -72t156 -127q118 49 118 124zM860 1235q0 -117 -143 -190q157 -69 157 -196q0 -119 -86 -177t-233 -57q-147 0 -225 53t-78 153q0 125 160 205
q-146 70 -146 193q0 93 78 152t220 59q144 0 220 -51t76 -144z" />
    <glyph glyph-name="uni2079" unicode="&#x2079;" 
d="M408 1174q0 -107 147 -107q102 0 147 27q0 92 -24 128q-43 66 -119 66q-77 0 -114 -32t-37 -82zM530 926q-297 0 -297 242q0 120 91 191t241 71t234 -80t84 -279q-1 -258 -145 -362q-109 -78 -322 -78h-125v143h145q196 0 240 94q14 31 20 72l2 8q-66 -22 -168 -22z" />
    <glyph glyph-name="uni207A" unicode="&#x207a;" 
d="M961 948h-312v-284h-172v284h-311v152h311v283h172v-283h312v-152z" />
    <glyph glyph-name="uni207B" unicode="&#x207b;" 
d="M961 948h-795v152h795v-152z" />
    <glyph glyph-name="uni207C" unicode="&#x207c;" 
d="M961 768h-795v147h795v-147zM961 1115h-795v147h795v-147z" />
    <glyph glyph-name="uni207D" unicode="&#x207d;" 
d="M447 1375q121 191 360 294l80 -129q-365 -154 -365 -514q0 -268 204 -430q69 -54 163 -92l-84 -129q-221 88 -341 267q-120 178 -120 374t103 359z" />
    <glyph glyph-name="uni207E" unicode="&#x207e;" 
d="M679 669q-122 -192 -360 -294l-79 129q364 154 364 514q0 268 -204 430q-69 54 -162 92l84 129q221 -88 341 -266q119 -178 119 -374q0 -197 -103 -360z" />
    <glyph glyph-name="uni2080" unicode="&#x2080;" 
d="M383 172q0 -264 180 -264q125 0 152.5 98.5t27.5 174.5q0 263 -180 263q-126 0 -153 -98t-27 -174zM921 186q0 -199 -98.5 -308t-269.5 -109q-245 0 -296.5 146.5t-51.5 250.5q0 202 98.5 310t269.5 108q244 0 296 -147t52 -251z" />
    <glyph glyph-name="uni2081" unicode="&#x2081;" 
d="M879 -215h-613v145h238v467l-219 -108l-58 131l312 156h139v-646h201v-145z" />
    <glyph glyph-name="uni2082" unicode="&#x2082;" 
d="M651 324q0 110 -150 110q-83 0 -163 -69l-86 106q113 113 302 113t235.5 -92t46.5 -146q0 -98 -53.5 -170t-170.5 -155l-114 -82h385v-154h-637v143l217 168q114 89 151 133.5t37 94.5z" />
    <glyph glyph-name="uni2083" unicode="&#x2083;" 
d="M862 23q0 -115 -100.5 -184.5t-261.5 -69.5q-162 0 -226 16v140q68 -16 182 -16q222 0 222 107t-203 107h-82v129h76q172 0 172 106q0 86 -141 86q-106 0 -209 -32v141q106 31 248 31q141 0 211.5 -53.5t70.5 -141.5q0 -131 -125 -186q166 -44 166 -180z" />
    <glyph glyph-name="uni2084" unicode="&#x2084;" 
d="M627 80v348l-242 -348h242zM920 -70h-136v-145h-161v145h-412v144l344 493h229v-487h136v-150z" />
    <glyph glyph-name="uni2085" unicode="&#x2085;" 
d="M688 25q0 57 -45.5 79.5t-159.5 22.5h-174v440h514v-153h-358v-152h70q157 0 244 -48t87 -177q0 -130 -106 -199t-281 -69q-69 0 -186 18v145q120 -22 194 -22q201 0 201 115z" />
    <glyph glyph-name="uni2086" unicode="&#x2086;" 
d="M570 135q-74 0 -152 -26q0 -108 37 -153.5t109 -45.5t110.5 32.5t38.5 81.5t-34.5 80t-108.5 31zM590 272q148 0 222.5 -62t74.5 -182t-90.5 -189.5t-237.5 -69.5q-321 0 -321 350q0 218 103 333t349 115h117v-141h-129q-191 0 -220.5 -64.5t-33.5 -103.5v-10
q75 24 166 24z" />
    <glyph glyph-name="uni2087" unicode="&#x2087;" 
d="M256 414v153h608v-133l-344 -649h-190l342 629h-416z" />
    <glyph glyph-name="uni2088" unicode="&#x2088;" 
d="M416 -14q0 -88 148 -88t147 88q0 63 -68 91t-100 40q-127 -54 -127 -131zM700 382q0 75 -137 75t-137 -72t156 -127q118 49 118 124zM860 389q0 -117 -143 -190q157 -69 157 -196q0 -119 -86 -176.5t-233 -57.5q-146 0 -224.5 53t-78.5 153q0 125 160 205
q-146 70 -146 193q0 93 77.5 152t220.5 59t219.5 -51t76.5 -144z" />
    <glyph glyph-name="uni2089" unicode="&#x2089;" 
d="M408 328q0 -107 147 -107q102 0 147 27q0 92 -33.5 143t-109.5 51q-77 0 -114 -32.5t-37 -81.5zM530 80q-297 0 -297 242q0 120 91 191t240.5 71t234 -80.5t84.5 -278.5q0 -258 -126.5 -349t-340.5 -91h-125v143h145q197 0 226 62.5t34 103.5l2 8q-66 -22 -168 -22z" />
    <glyph glyph-name="uni208A" unicode="&#x208a;" 
d="M961 102h-312v-284h-172v284h-311v152h311v283h172v-283h312v-152z" />
    <glyph glyph-name="uni208B" unicode="&#x208b;" 
d="M961 102h-795v152h795v-152z" />
    <glyph glyph-name="uni208C" unicode="&#x208c;" 
d="M961 -78h-795v147h795v-147zM961 269h-795v147h795v-147z" />
    <glyph glyph-name="uni208D" unicode="&#x208d;" 
d="M456 543q112 177 351 280l80 -129q-365 -154 -365 -514q0 -268 136.5 -376t230.5 -146l-84 -129q-221 88 -341 266.5t-120 374.5t112 373z" />
    <glyph glyph-name="uni208E" unicode="&#x208e;" 
d="M669.5 -191.5q-112.5 -177.5 -350.5 -279.5l-79 129q364 154 364 514q0 268 -136.5 376t-229.5 146l84 129q221 -88 340.5 -266t119.5 -374q0 -197 -112.5 -374.5z" />
    <glyph glyph-name="Euro" unicode="&#x20ac;" 
d="M803 558v-136h-404q32 -143 111.5 -214t218.5 -71t272 74v-164q-140 -65 -292 -65q-422 0 -498 440h-160v136h144q-2 19 -2 24v56q0 50 4 98h-146v136h166q46 212 178 332.5t324 120.5q150 0 282 -63v-171q-131 79 -266 79q-136 0 -216 -76t-118 -222h402v-136h-422
q-4 -42 -4 -86l2 -92h424z" />
    <glyph glyph-name="uni2113" unicode="&#x2113;" 
d="M602 1284q-131 0 -131 -205v-303q121 59 184.5 145.5t63.5 184.5t-29 138t-88 40zM690 131q145 0 240 100l82 -118q-133 -127 -334 -127q-140 0 -260.5 85.5t-120.5 295.5v163l-236 -116v157l236 117v391q0 166 84.5 256t225.5 90q288 0 288 -290q0 -307 -424 -517v-235
q0 -201 88.5 -226.5t130.5 -25.5z" />
    <glyph glyph-name="uni2116" unicode="&#x2116;" 
d="M842 1042q0 -171 71 -171q35 0 54.5 46t19.5 127q0 166 -74 166q-34 0 -52.5 -46t-18.5 -122zM1114 1047q0 -199 -78 -245t-127 -46q-93 0 -143.5 69.5t-50.5 203.5t54.5 215t148.5 81t145 -70.5t51 -207.5zM1106 541h-371v112h371v-112zM600 0h-133l-297 887v-887h-133
v1307h133l297 -887v887h133v-1307z" />
    <glyph glyph-name="uni2117" unicode="&#x2117;" 
d="M553 653q141 0 141 111q0 105 -133 105h-61v-216h53zM846 780q0 -101 -77 -170t-224 -69h-45v-215h-144v655h205q196 0 240.5 -75.5t44.5 -125.5zM271 1044.5q-111 -147.5 -111 -385.5t110.5 -391t292.5 -153q181 0 292 147.5t111 385.5t-111 391t-292 153t-292 -147.5z
M966 1133q148 -190 148 -484t-153 -479.5t-403 -185.5t-398 189.5t-148 483.5t153.5 480t402.5 186q250 0 398 -190z" />
    <glyph glyph-name="trademark" unicode="&#x2122;" 
d="M416 1202h-133v-424h-136v424h-137v105h406v-105zM1116 778h-135l-37 285l-12 86l-101 -371h-129l-98 371l-2 -57l-43 -314h-117l76 529h158l80 -285l18 -86l17 76l86 295h159z" />
    <glyph glyph-name="Omega" unicode="&#x2126;" 
d="M57 680q0 317 144 481t383 164q238 0 362 -168q123 -168 123 -465q1 -186 -55 -324t-185 -224h254v-144h-432v131q185 118 222 371q12 84 12 186q0 223 -78 353t-241 130t-244 -136q-80 -136 -80 -351q0 -294 124 -450q44 -56 109 -99v-135h-432v144h252
q-238 157 -238 536z" />
    <glyph glyph-name="estimated" unicode="&#x212e;" 
d="M572 39q200 0 317 141h137q-160 -198 -465 -198q-221 0 -378.5 131t-157.5 346t157.5 345t389.5 130t380 -135t148 -365h-850v-256q122 -139 322 -139zM563 877q-209 0 -313 -148v-235h633v235q-111 148 -320 148z" />
    <glyph glyph-name="partialdiff" unicode="&#x2202;" 
d="M295 424q0 -126 60.5 -208.5t183.5 -82.5t185 107.5t62 363.5q-110 94 -237 94q-189 0 -221.5 -107t-32.5 -167zM427 1425q102 0 206.5 -51.5t221 -208.5t116.5 -544q0 -320 -116 -479.5t-322 -159.5t-313 118t-107 316t119 314t311 116q142 0 235 -70q-84 492 -391 492
q-79 0 -137 -15v158q75 14 177 14z" />
    <glyph glyph-name="Delta" unicode="&#x2206;" 
d="M868 166l-309 977l-311 -977h620zM1071 0h-1016v152l394 1155h239l383 -1155v-152z" />
    <glyph glyph-name="product" unicode="&#x220f;" 
d="M954 -215h-178v1475h-426v-1475h-178v1475h-131v153h1044v-153h-131v-1475z" />
    <glyph glyph-name="summation" unicode="&#x2211;" 
d="M1008 -215h-891v129l481 713l-451 657v129h832v-147h-617l431 -627l-467 -692h682v-162z" />
    <glyph glyph-name="minus" unicode="&#x2212;" 
d="M993 469h-860v152h860v-152z" />
    <glyph glyph-name="radical" unicode="&#x221a;" 
d="M1079 1413l-446 -1413h-215l-357 795l175 79l225 -524l61 -155l51 188l316 1030h190z" />
    <glyph glyph-name="infinity" unicode="&#x221e;" 
d="M272 709q-106 0 -106 -164t113 -164q36 0 73.5 29t124.5 131q-132 168 -205 168zM960 544q0 161 -114 161q-56 0 -109.5 -57.5t-87.5 -98.5q121 -166 203 -166q108 0 108 161zM1046.5 316.5q-67.5 -91.5 -186.5 -91.5t-189 77.5t-112 129.5q-97 -118 -159.5 -162.5
t-130.5 -44.5q-123 0 -190 86t-67 226t71.5 233.5t184.5 93.5q72 0 136 -40.5t163 -166.5q99 117 162 162t126 45q64 0 109 -18t97.5 -78.5t52.5 -210.5q0 -149 -67.5 -240.5z" />
    <glyph glyph-name="integral" unicode="&#x222b;" 
d="M834 1425q90 0 170 -20v-153q-96 25 -180 25t-128.5 -56.5t-44.5 -151.5v-1114q0 -375 -358 -375q-97 0 -170 21v151q97 -24 181 -24t127.5 56.5t43.5 152.5v1114q0 374 359 374z" />
    <glyph glyph-name="approxequal" unicode="&#x2248;" 
d="M362 338q-83 0 -167 -74l-68 115q119 108 248 108q75 0 160 -36.5t132.5 -53.5t98.5 -17q83 0 168 75l67 -113q-120 -111 -247 -111q-76 0 -161 37t-132 53.5t-99 16.5zM754 602q-76 0 -161 37t-132 53.5t-112 16.5t-154 -74l-68 113q121 110 248 110q75 0 160 -36.5
t132.5 -53.5t98.5 -17q84 0 168 74l67 -114q-120 -109 -247 -109z" />
    <glyph glyph-name="notequal" unicode="&#x2260;" 
d="M993 793v-147h-309l-80 -201h389v-147h-446l-119 -298h-160l119 298h-254v147h311l80 201h-391v147h449l118 299h160l-119 -299h252z" />
    <glyph glyph-name="lessequal" unicode="&#x2264;" 
d="M993 0h-860v145h860v-145zM932 432l-98 -117l-670 463l670 463l98 -117l-529 -346z" />
    <glyph glyph-name="greaterequal" unicode="&#x2265;" 
d="M993 0h-860v145h860v-145zM195 1124l98 117l670 -463l-670 -463l-98 117l528 346z" />
    <glyph glyph-name="lozenge" unicode="&#x25ca;" 
d="M281 668l292 -492l273 463l-293 491zM653 0h-170l-401 659l391 648h170l401 -660z" />
    <glyph glyph-name="uniFB01" unicode="&#xfb01;" 
d="M674 1280q-275 0 -275 -246v-131h564v-903h-175v758h-389v-758h-174v758h-178v145h178v121q0 401 455 401q116 0 250 -32v-150q-131 37 -256 37z" />
    <glyph glyph-name="uniFB02" unicode="&#xfb02;" 
d="M668 1282q-269 0 -269 -250v-129h213v-145h-213v-758h-174v758h-178v145h178v119q0 401 449 401q150 0 289 -30v-1393h-175v1274q-48 8 -120 8z" />
    <glyph glyph-name="glyph204" 
d="M420 -272q114 0 179 72t65 212v848h-492v144h668v-986q0 -208 -115 -323t-322 -115q-151 0 -272 51v166q134 -69 289 -69z" />
    <glyph glyph-name="glyph265" 
d="M815 1280q-235 0 -235 -246v-176h440v-145h-440v-572h331v-141h-798v141h290v572h-323v145h323v166q0 401 418 401q104 0 230 -24v-150q-137 29 -236 29z" />
    <glyph glyph-name="glyph266" 
d="M844 1280q-294 0 -293 -246v-176h469v-145h-469v-377q0 -106 36 -155.5t115 -49.5t152 25v-148q-68 -22 -156 -22q-161 0 -242 78t-81 245v404h-295v145h295v166q0 296 171 348.5t287 52.5t240 -30v-150q-141 35 -229 35z" />
    <glyph glyph-name="glyph267" 
d="M477 309v549h-340v146h514v-668q0 -205 180 -205q81 0 158 25v-148q-68 -22 -162 -22q-176 0 -263 77t-87 246zM559 1425q59 0 98 -40.5t39 -82.5q0 -43 -10.5 -67.5t-29 -43.5t-43.5 -29.5t-69 -10.5t-83 40.5t-39 82.5t10.5 67t39 54.5t87.5 29.5z" />
    <glyph glyph-name="glyph268" 
d="M477 309v549h-340v146h514v-668q0 -205 180 -205q81 0 158 25v-148q-68 -22 -162 -22q-176 0 -263 77t-87 246zM668 1171h-174l-320 242h252z" />
    <glyph glyph-name="glyph269" 
d="M477 309v549h-340v146h514v-668q0 -205 180 -205q81 0 158 25v-148q-68 -22 -162 -22q-176 0 -263 77t-87 246zM952 1413l-319 -242h-174l241 242h252z" />
    <glyph glyph-name="glyph270" 
d="M477 309v549h-340v146h514v-668q0 -205 180 -205q81 0 158 25v-148q-68 -22 -162 -22q-176 0 -263 77t-87 246zM635 1413l244 -242h-177l-141 121l-141 -121h-172l244 242h143z" />
    <glyph glyph-name="glyph271" 
d="M477 309v549h-340v146h514v-668q0 -205 180 -205q81 0 158 25v-148q-68 -22 -162 -22q-176 0 -263 77t-87 246zM422 1413q85 0 169 -54q31 -20 59 -37t61 -17q65 0 129 98l86 -86q-89 -145 -221 -145q-88 0 -169 54q-30 20 -58 37t-66 17q-62 0 -125 -98l-86 86
q87 145 221 145z" />
    <glyph glyph-name="glyph272" 
d="M477 309v549h-340v146h514v-668q0 -205 180 -205q81 0 158 25v-148q-68 -22 -162 -22q-176 0 -263 77t-87 246zM778 1405q24 0 44 -9q20 -8 36 -24t24 -36q9 -20 9 -44t-9 -44q-8 -20 -24 -35t-36 -24t-44 -9t-44 9t-35 24t-24 35t-9 44t9 44t24 36t35 24q20 9 44 9z
M348 1405q24 0 44 -9q20 -8 36 -24t24 -36q9 -20 9 -44t-9 -44q-8 -20 -24 -35t-36 -24t-44 -9t-44 9t-35 24t-24 35t-9 44t9 44t24 36t35 24q20 9 44 9z" />
    <glyph glyph-name="glyph273" 
d="M477 309v549h-340v146h514v-668q0 -205 180 -205q81 0 158 25v-148q-68 -22 -162 -22q-176 0 -263 77t-87 246zM825 1225h-524v133h524v-133z" />
    <glyph glyph-name="glyph274" 
d="M477 309v549h-340v146h514v-668q0 -205 180 -205q81 0 158 25v-148q-68 -22 -162 -22q-176 0 -263 77t-87 246zM811 1413q0 -116 -70 -179t-178 -63q-168 -1 -228 135q-20 46 -20 107h136q0 -51 28 -82t84 -31t84 31t28 82h136z" />
    <glyph glyph-name="glyph275" 
d="M559 1425q59 0 98 -40.5t39 -82.5q0 -43 -10.5 -67.5t-29 -43.5t-43.5 -29.5t-69 -10.5t-83 40.5t-39 82.5t10.5 67t39 54.5t87.5 29.5zM878 -385q-84 0 -140 46t-56 130t107 195q-312 9 -312 323v549h-340v146h514v-668q0 -205 180 -205q81 0 158 25v-148l-32 -8
q-93 -96 -102 -135t-9 -58q0 -73 96 -73q36 0 70 4v-113q-50 -10 -134 -10z" />
    <glyph glyph-name="glyph276" 
d="M477 309v549h-340v146h514v-668q0 -205 180 -205q81 0 158 25v-148q-68 -22 -162 -22q-176 0 -263 77t-87 246z" />
    <glyph glyph-name="glyph277" 
d="M559 1425q59 0 98 -40.5t39 -82.5q0 -43 -10.5 -67.5t-29 -43.5t-43.5 -29.5t-69 -10.5t-83 40.5t-39 82.5t10.5 67t39 54.5t87.5 29.5zM300 1022q178 0 265.5 -77t87.5 -247v-362q0 -205 181 -205q82 0 155 25v-148q-68 -22 -162 -22q-176 0 -263 77t-87 246v363
q0 205 -180 205q-80 0 -160 -25v147q68 23 163 23z" />
    <glyph glyph-name="glyph278" 
d="M300 1022q178 0 265 -77q88 -77 88 -247v-362q0 -205 181 -205q82 0 155 25v-148q-68 -22 -162 -22q-176 0 -263 77t-87 246v363q0 205 -180 205q-80 0 -160 -25v147q68 23 163 23zM668 1171h-174l-320 242h252z" />
    <glyph glyph-name="glyph279" 
d="M300 1022q178 0 265 -77q88 -77 88 -247v-362q0 -205 181 -205q82 0 155 25v-148q-68 -22 -162 -22q-176 0 -263 77t-87 246v363q0 205 -180 205q-80 0 -160 -25v147q68 23 163 23zM952 1413l-319 -242h-174l241 242h252z" />
    <glyph glyph-name="glyph280" 
d="M300 1022q178 0 265 -77q88 -77 88 -247v-362q0 -205 181 -205q82 0 155 25v-148q-68 -22 -162 -22q-176 0 -263 77t-87 246v363q0 205 -180 205q-80 0 -160 -25v147q68 23 163 23zM635 1413l244 -242h-177l-141 121l-141 -121h-172l244 242h143z" />
    <glyph glyph-name="glyph281" 
d="M300 1022q178 0 265 -77q88 -77 88 -247v-362q0 -205 181 -205q82 0 155 25v-148q-68 -22 -162 -22q-176 0 -263 77t-87 246v363q0 205 -180 205q-80 0 -160 -25v147q68 23 163 23zM422 1413q85 0 169 -54q31 -20 59 -37t61 -17q65 0 129 98l86 -86q-89 -145 -221 -145
q-88 0 -169 54q-30 20 -58 37t-66 17q-62 0 -125 -98l-86 86q87 145 221 145z" />
    <glyph glyph-name="glyph282" 
d="M300 1022q178 0 265 -77q88 -77 88 -247v-362q0 -205 181 -205q82 0 155 25v-148q-68 -22 -162 -22q-176 0 -263 77t-87 246v363q0 205 -180 205q-80 0 -160 -25v147q68 23 163 23zM778 1405q24 0 44 -9q20 -8 36 -24t24 -36q9 -20 9 -44t-9 -44q-8 -20 -24 -35t-36 -24
t-44 -9t-44 9t-35 24t-24 35t-9 44t9 44t24 36t35 24q20 9 44 9zM348 1405q24 0 44 -9q20 -8 36 -24t24 -36q9 -20 9 -44t-9 -44q-8 -20 -24 -35t-36 -24t-44 -9t-44 9t-35 24t-24 35t-9 44t9 44t24 36t35 24q20 9 44 9z" />
    <glyph glyph-name="glyph283" 
d="M300 1022q178 0 265 -77q88 -77 88 -247v-362q0 -205 181 -205q82 0 155 25v-148q-68 -22 -162 -22q-176 0 -263 77t-87 246v363q0 205 -180 205q-80 0 -160 -25v147q68 23 163 23zM825 1225h-524v133h524v-133z" />
    <glyph glyph-name="glyph284" 
d="M300 1022q178 0 265 -77q88 -77 88 -247v-362q0 -205 181 -205q82 0 155 25v-148q-68 -22 -162 -22q-176 0 -263 77t-87 246v363q0 205 -180 205q-80 0 -160 -25v147q68 23 163 23zM811 1413q0 -116 -70 -179t-178 -63q-168 -1 -228 135q-20 46 -20 107h136q0 -51 28 -82
t84 -31t84 31t28 82h136z" />
    <glyph glyph-name="glyph285" 
d="M831 131q81 0 158 25v-148l-32 -8q-93 -96 -102 -135t-9 -58q0 -73 96 -73q36 0 70 4v-113q-50 -10 -134 -10t-140 46t-56 130t107 195q-312 9 -312 323v363q0 205 -180 205q-80 0 -160 -25v147q67 23 163 23q178 0 265.5 -77t87.5 -247v-362q0 -205 178 -205zM559 1425
q59 0 98 -40.5t39 -82.5q0 -43 -10.5 -67.5t-29 -43.5t-43.5 -29.5t-69 -10.5t-83 40.5t-39 82.5t10.5 67t39 54.5t87.5 29.5z" />
    <glyph glyph-name="glyph286" 
d="M300 1022q178 0 265.5 -77t87.5 -247v-362q0 -205 181 -205q82 0 155 25v-148q-68 -22 -162 -22q-176 0 -263 77t-87 246v363q0 205 -180 205q-80 0 -160 -25v147q68 23 163 23z" />
    <glyph glyph-name="j.salt" 
d="M844 1191.5q-39 -40.5 -99 -40.5h-12q-89 0 -112 54.5t-23 82.5q0 57 39 97t98 40h10q94 -3 116 -56t22 -95t-39 -82.5zM383 1022q230 0 343.5 -84.5t113.5 -284.5v-635q0 -208 -125 -323t-348 -115q-163 0 -295 51v168q147 -69 321 -69q126 0 198.5 71t72.5 211v627
q0 188 -98.5 213t-188.5 25t-205 -25v147q88 23 211 23z" />
    <glyph glyph-name="glyph288" 
d="M383 1022q230 0 343.5 -84.5t113.5 -284.5v-635q0 -208 -125 -323t-348 -115q-163 0 -295 51v168q147 -69 321 -69q126 0 198.5 71t72.5 211v627q0 188 -98.5 213t-188.5 25t-205 -25v147q88 23 211 23z" />
    <glyph glyph-name="jcircumflex.salt" 
d="M383 1022q230 0 344 -84q113 -84 113 -285v-635q0 -208 -125 -323t-348 -115q-163 0 -295 51v168q147 -69 321 -69q127 0 199 71t72 211v627q0 187 -148 225q-49 12 -139 13q-90 0 -205 -25v147q88 23 211 23zM635 1413l244 -242h-177l-141 121l-141 -121h-172l244 242
h143z" />
    <glyph glyph-name="glyph290" 
d="M309 383v1030h178v-1010q0 -137 58 -204.5t188 -67.5t258 51v-149q-126 -47 -284 -47q-398 0 -398 397z" />
    <glyph glyph-name="glyph291" 
d="M309 383v1030h178v-1010q0 -137 58 -205t188 -67q130 0 258 51v-149q-126 -47 -284 -47q-398 0 -398 397zM1004 1700l-285 -213h-178l211 213h252z" />
    <glyph glyph-name="glyph292" 
d="M309 383v1030h178v-1010q0 -137 58 -205t188 -67q130 0 258 51v-149q-126 -47 -284 -47q-398 0 -398 397zM986 1466l-109 -295h-145l84 295h170z" />
    <glyph glyph-name="glyph293" 
d="M309 383v1030h178v-1010q0 -137 58 -205t188 -67q130 0 258 51v-149q-126 -47 -284 -47q-398 0 -398 397zM668 -115l-88 -295h-148l66 295h170z" />
    <glyph glyph-name="glyph294" 
d="M309 383v248l-229 -115v158l229 114v625h178v-534l342 174v-158l-342 -174v-318q0 -137 58 -204.5t188 -67.5t258 51v-149q-126 -47 -284 -47q-398 0 -398 397z" />
    <glyph glyph-name="glyph295" 
d="M230 383v1030h178v-1010q0 -137 58 -205t188 -67q130 0 258 51v-149q-126 -47 -284 -47q-398 0 -398 397zM1070 458q-49 -49 -117 -49t-117 49t-49 118t49 118t117 49t117 -49t49 -118t-49 -118z" />
    <glyph glyph-name="glyph296" 
d="M301 1425q176 0 264 -77t88 -246v-766q0 -205 181 -205q82 0 155 25v-148q-68 -22 -162 -22q-176 0 -263 77t-87 246v766q0 205 -180 205q-80 0 -160 -25v148q70 22 164 22z" />
    <glyph glyph-name="glyph297" 
d="M301 1425q176 0 264 -77t88 -246v-766q0 -205 181 -205q82 0 155 25v-148q-68 -22 -162 -22q-176 0 -263 77t-87 246v766q0 205 -180 205q-80 0 -160 -25v148q70 22 164 22zM1004 1700l-285 -213h-178l211 213h252z" />
    <glyph glyph-name="glyph298" 
d="M301 1425q176 0 264 -77t88 -246v-766q0 -205 181 -205q82 0 155 25v-148q-68 -22 -162 -22q-176 0 -263 77t-87 246v766q0 205 -180 205q-80 0 -160 -25v148q70 22 164 22zM1136 1466l-109 -295h-145l84 295h170z" />
    <glyph glyph-name="glyph299" 
d="M301 1425q176 0 264 -77t88 -246v-766q0 -205 181 -205q82 0 155 25v-148q-68 -22 -162 -22q-176 0 -263 77t-87 246v766q0 205 -180 205q-80 0 -160 -25v148q70 22 164 22zM668 -115l-88 -295h-148l66 295h170z" />
    <glyph glyph-name="glyph300" 
d="M301 1425q176 0 264 -77t88 -246v-209l287 146v-158l-287 -146v-399q0 -205 181 -205q82 0 155 25v-148q-68 -22 -162 -22q-176 0 -263 77t-87 246v338l-287 -145v158l287 145v270q0 205 -180 205q-80 0 -160 -25v148q70 22 164 22z" />
    <glyph glyph-name="glyph301" 
d="M172 1425q176 0 264 -77t88 -246v-766q0 -205 181 -205q82 0 155 25v-148q-68 -22 -162 -22q-176 0 -263 77t-87 246v766q0 205 -180 205q-80 0 -160 -25v148q70 22 164 22zM1160 498q-49 -49 -117 -49t-117 49t-49 118t49 118t117 49t117 -49t49 -118t-49 -118z" />
    <glyph glyph-name="glyph302" 
d="M646 825q-67 -43 -161 -159v-525h299v-141h-690v141h215v725h-215v138h373l6 -162q77 92 159.5 136t188.5 44q107 0 197 -18v-170q-109 34 -207 34t-165 -43z" />
    <glyph glyph-name="glyph303" 
d="M646 825q-67 -43 -161 -159v-525h299v-141h-690v141h215v725h-215v138h373l6 -162q77 92 137 124q105 56 211 56q107 0 197 -18v-170q-109 34 -207 34t-165 -43zM952 1413l-319 -242h-174l241 242h252z" />
    <glyph glyph-name="glyph304" 
d="M646 825q-67 -43 -161 -159v-525h299v-141h-690v141h215v725h-215v138h373l6 -162q77 92 137 124q105 56 211 56q107 0 197 -18v-170q-109 34 -207 34t-165 -43zM492 1171l-244 242h176l141 -121l142 121h172l-244 -242h-143z" />
    <glyph glyph-name="glyph305" 
d="M646 825q-67 -43 -161 -159v-525h299v-141h-690v141h215v725h-215v138h373l6 -162q77 92 137 124q105 56 211 56q107 0 197 -18v-170q-109 34 -207 34t-165 -43zM519 -115l-88 -295h-148l66 295h170z" />
    <glyph glyph-name="glyph306" 
d="M816 1022q101 0 188 -35v-174q-117 55 -238 55q-172 0 -261 -89t-128 -138v-641h-176v1004h159l5 -185q131 158 240.5 180.5t210.5 22.5z" />
    <glyph glyph-name="glyph307" 
d="M816 1022q101 0 188 -35v-174q-117 55 -238 55q-172 0 -308 -136q-42 -42 -81 -91v-641h-176v1004h159l5 -185q131 158 292 191q58 12 159 12zM952 1413l-319 -242h-174l241 242h252z" />
    <glyph glyph-name="glyph308" 
d="M816 1022q101 0 188 -35v-174q-117 55 -238 55q-172 0 -308 -136q-42 -42 -81 -91v-641h-176v1004h159l5 -185q131 158 292 191q58 12 159 12zM492 1171l-244 242h176l141 -121l142 121h172l-244 -242h-143z" />
    <glyph glyph-name="glyph309" 
d="M816 1022q101 0 188 -35v-174q-117 55 -238 55q-172 0 -308 -136q-42 -42 -81 -91v-641h-176v1004h159l5 -185q131 158 292 191q58 12 159 12zM668 -115l-88 -295h-148l66 295h170z" />
    <glyph glyph-name="glyph310" 
d="M646 824q-68 -44 -163 -160v-328q0 -205 181 -205q83 0 149 23v-148q-78 -20 -164 -20q-168 0 -255 77t-87 246v363q0 106 -43 155.5t-119 49.5q-27 0 -47 -3v146q17 2 20 2h44q171 0 228 -69.5t73 -121.5q20 30 109.5 110.5t247.5 80.5q108 0 198 -18v-170
q-109 34 -207 34q-97 0 -165 -44z" />
    <glyph glyph-name="glyph311" 
d="M646 824q-68 -44 -163 -160v-328q0 -205 181 -205q83 0 149 23v-148q-78 -20 -164 -20q-168 0 -255 77t-87 246v363q0 106 -43 156t-119 49q-27 0 -47 -3v146q16 2 32 2h32q172 0 256 -103q30 -36 45 -88q20 30 70 75q130 116 287 116q108 0 198 -18v-170
q-109 34 -207 34q-97 0 -165 -44zM952 1413l-319 -242h-174l241 242h252z" />
    <glyph glyph-name="glyph312" 
d="M646 824q-68 -44 -163 -160v-328q0 -205 181 -205q83 0 149 23v-148q-78 -20 -164 -20q-168 0 -255 77t-87 246v363q0 106 -43 156t-119 49q-27 0 -47 -3v146q16 2 32 2h32q172 0 256 -103q30 -36 45 -88q20 30 70 75q130 116 287 116q108 0 198 -18v-170
q-109 34 -207 34q-97 0 -165 -44zM492 1171l-244 242h176l141 -121l142 121h172l-244 -242h-143z" />
    <glyph glyph-name="glyph313" 
d="M646 824q-68 -44 -163 -160v-328q0 -205 181 -205q83 0 149 23v-148q-78 -20 -164 -20q-168 0 -255 77t-87 246v363q0 106 -43 156t-119 49q-27 0 -47 -3v146q16 2 32 2h32q172 0 256 -103q30 -36 45 -88q20 30 70 75q130 116 287 116q108 0 198 -18v-170
q-109 34 -207 34q-97 0 -165 -44zM668 -115l-88 -295h-148l66 295h170z" />
    <glyph glyph-name="ampersand.salt" 
d="M562 1233q-129 0 -194 -51.5t-65 -143.5q0 -217 270 -217h258v189l181 47v-615q0 -198 -125 -327t-356 -129t-352.5 109t-121.5 290q0 135 70 237t178 128q-186 76 -186 278q0 169 110.5 262.5t321.5 93.5q98 0 184 -10v-151q-97 10 -173 10zM575 674q-233 0 -283 -103
t-50 -165q0 -124 74.5 -196.5t211.5 -72.5q219 0 261 113t42 180v244h-256z" />
    <glyph glyph-name="glyph317" 
d="M668 1446h-179l-284 213h252z" />
    <glyph glyph-name="glyph319" 
d="M922 1659l-285 -213h-178l211 213h252z" />
    <glyph glyph-name="glyph321" 
d="M879 1446h-183l-135 102l-135 -102h-178l231 213h168z" />
    <glyph glyph-name="glyph323" 
d="M248 1659h182l135 -103l135 103h179l-232 -213h-168z" />
    <glyph glyph-name="glyph326" 
d="M422 1671q85 0 142.5 -37t85 -54t61.5 -17q65 0 129 98l86 -82q-89 -145 -221 -145q-85 0 -142.5 37t-85 54t-65.5 17q-62 0 -125 -98l-86 82q87 145 221 145z" />
    <glyph glyph-name="glyph328" 
d="M782 1659q22 0 42 -8.5t34 -22.5t22.5 -34t8.5 -53t-31 -64t-76 -31t-75.5 30t-30.5 64t8.5 54t22.5 34t33.5 22.5t41.5 8.5zM344 1659q22 0 41.5 -8.5t34 -22.5t23 -34t8.5 -53.5t-32 -64t-76 -30.5t-74.5 30t-30.5 64t8.5 54t22.5 34t33.5 22.5t41.5 8.5z" />
    <glyph glyph-name="glyph330" 
d="M846 1483h-565v133h565v-133z" />
    <glyph glyph-name="glyph332" 
d="M563 1563q129 0 129 102h137q0 -115 -75.5 -173t-224 -58t-190.5 85t-42 146h137q0 -102 129 -102z" />
    <glyph glyph-name="glyph334" 
d="M564 1638q-41 0 -66 -24t-25 -64t25 -65t66 -25t65 25t24 65t-24 64t-65 24zM764 1550q0 -84 -57.5 -138t-143 -54t-143.5 54.5t-58 137.5t57 136.5t144.5 53.5t144 -53t56.5 -137z" />
    <glyph glyph-name="glyph335" 
d="M957 1950l-270 -190h-169l200 190h239zM562 1616q-44 0 -70 -22t-26 -59t26 -60t70 -23t69.5 23t25.5 60t-25.5 59t-69.5 22zM717 1663q58 -48 58 -127t-60.5 -129t-152.5 -50q-93 0 -153.5 48.5t-60.5 127.5t62 128.5t155.5 49.5t151.5 -48z" />
    <glyph glyph-name="glyph337" 
d="M1126 1659l-260 -213h-182l211 213h231zM676 1659l-223 -213h-181l191 213h213z" />
    <glyph glyph-name="glyph339" 
d="M436 1552q0 26 10 49t27 40.5t40 27.5t50 10t50 -10t40.5 -27.5t27 -40.5t9.5 -49t-9.5 -49t-27 -40.5t-40.5 -27.5t-50 -10t-50 10t-40 27.5t-27 40.5t-10 49z" />
    <glyph glyph-name="glyph344" 
d="M0 1176q102 0 126 42t24 72q0 41 -37 83.5t-37 72.5q0 50 27 81.5t66 31.5q70 0 109 -46t39 -128q0 -150 -90 -235t-227 -89v115z" />
    <glyph glyph-name="hyphen.case" 
d="M862 594h-598v164h598v-164z" />
    <glyph glyph-name="exclamdown.case" 
d="M473 1100q-39 39 -39 80q0 69 39 107t80 38q67 0 106 -38t39 -80q0 -41 -10 -65t-29 -42q-39 -39 -93 -39t-93 39zM461 -107l26 1031h154l31 -1031h-211z" />
    <glyph glyph-name="questiondown.case" 
d="M637 1061q-56 0 -93 39q-38 39 -38 80t10 65q10 23 28 41t41 28q24 10 52 11q55 0 93 -38q38 -37 38 -79t-10 -66t-28 -42q-38 -39 -93 -39zM203 338q0 317 350 340l8 246h150l12 -383h-117q-169 -1 -204 -109q-11 -34 -11 -92q1 -58 31 -116q30 -56 84 -95
q111 -80 291 -80h24v-156h-26q-286 0 -439 139q-153 138 -153 306z" />
    <glyph glyph-name="guilsinglleft.case" 
d="M781 996l-293 -349l293 -349l-134 -98l-359 447l359 446z" />
    <glyph glyph-name="guilsinglright.case" 
d="M345 297l293 349l-293 349l134 98l359 -447l-359 -446z" />
    <glyph glyph-name="guillemotleft.case" 
d="M971 972l-234 -327l234 -328l-133 -72l-275 400l275 399zM539 979l-218 -334l218 -336l-138 -70l-258 406l258 403z" />
    <glyph glyph-name="guillemotright.case" 
d="M156 317l233 328l-233 327l133 72l274 -399l-274 -400zM588 309l217 336l-217 334l137 69l258 -403l-258 -406z" />
    <glyph glyph-name="endash.case" 
d="M993 571h-860v152h860v-152z" />
    <glyph glyph-name="emdash.case" 
d="M1130 571h-1134v152h1134v-152z" />
    <glyph glyph-name="periodcentered.case" 
d="M680 550q-49 -49 -117 -49t-117 49t-49 118t49 118t117 49t117 -49t49 -118t-49 -118z" />
    <glyph glyph-name="parenleft.case" 
d="M478 639q0 -466 388 -850l-105 -107q-461 427 -461 952t465 957l101 -103q-388 -383 -388 -849z" />
    <glyph glyph-name="parenright.case" 
d="M647 636q0 468 -387 848l105 107q461 -427 461 -953t-465 -956l-101 103q387 383 387 851z" />
    <glyph glyph-name="bracketleft.case" 
d="M838 -308h-493v1858h493v-140h-327v-1578h327v-140z" />
    <glyph glyph-name="bracketright.case" 
d="M781 -308h-493v140h325v1578h-325v140h493v-1858z" />
    <glyph glyph-name="braceleft.case" 
d="M897 -308h-74q-193 0 -287 90t-94 275v344q0 105 -53 156t-184 51h-43v139h43q140 0 188 46q49 46 49 155v237q0 365 381 365h74v-140h-59q-232 0 -232 -225v-233q0 -244 -211 -275q213 -21 213 -274v-342q0 -229 230 -229h59v-140z" />
    <glyph glyph-name="braceright.case" 
d="M229 1550h74q193 0 287 -90t94 -275v-231q0 -105 53 -156t185 -51h43v-139h-43q-141 0 -189 -46q-49 -46 -49 -155v-350q0 -365 -381 -365h-74v140h60q231 0 231 225v346q0 244 211 274q-213 23 -213 275v229q0 229 -229 229h-60v140z" />
    <glyph glyph-name="beta.salt" 
d="M1028 507q0 -222 -126.5 -373.5t-348.5 -151.5q-334 0 -394.5 262t-60.5 430q0 336 132 543.5t374 207.5q147 0 232.5 -70.5t85.5 -190.5q0 -119 -65.5 -177.5t-108.5 -77.5q189 -18 234.5 -158t45.5 -244zM852 504q0 305 -268 305q-66 0 -142 -18l-166 -39
q-2 -14 -2 -18v-42q0 -562 289 -562q143 0 216 108.5t73 265.5zM743 1162q0 44 -39.5 80t-109.5 36q-243 0 -303 -379l168 39q238 53 261 116.5t23 107.5z" />
    <glyph glyph-name="theta.salt" 
d="M401 1168q0 -84 63 -124t227 -40h124q-50 280 -258 280q-71 0 -113.5 -36t-42.5 -80zM115 700v82h176v-65q0 -471 100.5 -529t172.5 -58q142 0 204.5 153.5t62.5 453.5q0 49 -4 121h-129q-349 0 -411.5 111t-62.5 171q0 123 89 207t258 84q168 0 277 -108t143 -319h135
v-146h-123q5 -58 5 -175t-28.5 -258.5t-115 -292t-309.5 -150.5q-440 0 -440 718z" />
    <glyph glyph-name="phi.salt" 
d="M854 775.5q-59 101.5 -133 101.5q-42 0 -59 -34.5t-17 -119.5v-594q133 19 200.5 120.5t67.5 262.5q0 162 -59 263.5zM41 506q0 291 114 389t179 127l72 -127q-142 -71 -166.5 -194.5t-24.5 -186.5q0 -343 266 -385v594q0 299 244 299q164 0 263 -141t99 -376t-122 -365
t-320 -152v-398h-164v396q-440 35 -440 520z" />
    <glyph glyph-name="glyph473" 
d="M90 1434l-92 -269h-145l47 269h190z" />
    <glyph glyph-name="anoteleia.case" 
d="M680 1209q-49 -49 -117 -49t-117 49t-49 118t49 118t117 49t117 -49t49 -118t-49 -118z" />
    <glyph glyph-name="uni0431.salt" 
d="M287 479q0 -249 99 -298.5t165 -49.5q127 0 203 89.5t76 242.5t-76 221.5t-136 102.5l-97 55q-111 -49 -172.5 -140.5t-61.5 -222.5zM254 1166q0 44 22.5 91t97.5 101.5t264 54.5h264v-160h-275q-109 0 -143.5 -18t-44.5 -35t-10 -40q0 -44 26 -73.5t89 -64.5l180 -104
q284 -163 284 -460q0 -182 -113 -329t-360 -147q-211 0 -318.5 134t-107.5 365q0 230 103 325.5t161 125.5q-119 77 -119 234z" />
    <glyph glyph-name="breve.locl" 
d="M418 1391q0 -140 146 -140t147 140h159q0 -115 -84 -182.5t-225 -67.5q-301 0 -301 250h158z" />
    <glyph glyph-name="glyph586" 
d="M414 1638q0 -127 150 -127t151 127h159q0 -114 -85 -175.5t-237 -61.5q-296 0 -296 237h158z" />
    <glyph glyph-name="at.case" 
d="M469 999q78 0 135 -32l135 37l-73 -615q-30 -259 53 -259q81 0 135.5 185t54.5 365t-41 391t-317 211q-250 0 -426 -264l-121 88q219 319 559 319q250 0 378 -179.5t128 -481.5q0 -301 -78.5 -541.5t-292.5 -240.5q-82 0 -128 49t-48 139q-91 -188 -241 -188
q-232 0 -232 327q0 175 67 432.5t353 257.5zM227 337q0 -204 74 -204q91 0 186 243l54 442q-31 33 -89 33q-59 0 -93 -34q-58 -58 -95 -198t-37 -282z" />
    <glyph glyph-name="dollar.oldstyle" 
d="M811 340q0 90 -79.5 131t-121.5 59l-51 -378q252 17 252 188zM311 944q0 -107 183 -182l49 356q-232 -21 -232 -174zM906 563q93 -74 93 -223t-125 -239.5t-335 -98.5l-33 -252h-148l33 254q-132 9 -260 39v162q133 -42 281 -53l59 432q-159 60 -222.5 111t-93.5 105
t-30 121q0 138 111 236t325 107l31 231h145l-30 -235q110 -15 208 -43v-152q-115 38 -229 49l-53 -407q180 -70 273 -144z" />
    <glyph glyph-name="glyph614" 
d="M652 748.5q36 -37.5 36 -75.5q0 -39 -9.5 -61.5t-26.5 -39.5t-40 -27t-61.5 -10t-75.5 37t-37 75t10 61t36.5 50.5t79 27.5t88.5 -37.5zM791 1026.5q-71 149.5 -219 149.5t-228 -133.5t-80 -383.5q0 -361 107 -444.5t183 -83.5t132 33t116 133t60 340t-71 389.5z
M1038 665q0 -322 -124.5 -502.5t-360.5 -180.5q-336 0 -400.5 248.5t-64.5 410.5q0 320 124.5 502t360.5 182q336 0 400.5 -249t64.5 -411z" />
    <glyph glyph-name="glyph615" 
d="M791 1026.5q-71 149.5 -219 149.5t-228 -133.5t-80 -383.5q0 -361 107 -444.5t183 -83.5t132 33t116 133t60 340t-71 389.5zM1038 665q0 -322 -124.5 -502.5t-360.5 -180.5q-336 0 -400.5 248.5t-64.5 410.5q0 320 124.5 502t360.5 182q336 0 400.5 -249t64.5 -411z" />
    <glyph glyph-name="zero.oldstyle" 
d="M312 850.5q-40 -163.5 -40 -252.5t7 -139l526 391q-71 164 -242 164q-211 0 -251 -163.5zM813 294.5q41 161.5 41 248.5t-6 145l-529 -391q71 -164 244 -164q209 0 250 161.5zM907.5 152.5q-130.5 -170.5 -347.5 -170.5q-218 0 -345 150.5t-127 422.5t130 441t349 169
t345 -150.5t126 -421.5q0 -270 -130.5 -440.5z" />
    <glyph glyph-name="glyph626" 
d="M563 707q26 0 49 -10t40 -27.5t26.5 -40.5t9.5 -49t-9.5 -48.5t-26.5 -39.5t-40 -27t-49 -10t-48.5 10t-39.5 27t-27 39.5t-10 48.5t10 49t27 40.5t39.5 27.5t48.5 10zM854 554q0 460 -291 460q-211 0 -251 -164t-40 -260q0 -208 67.5 -332.5t223.5 -124.5
q209 0 250 161.5t41 259.5zM907.5 152.5q-130.5 -170.5 -347.5 -170.5q-218 0 -345 150.5t-127 422.5t130 441t349 169t345 -150.5t126 -421.5q0 -270 -130.5 -440.5z" />
    <glyph glyph-name="glyph627" 
d="M854 554q0 460 -291 460q-211 0 -251 -164t-40 -260q0 -208 67.5 -332.5t223.5 -124.5q209 0 250 161.5t41 259.5zM907.5 152.5q-130.5 -170.5 -347.5 -170.5q-218 0 -345 150.5t-127 422.5t130 441t349 169t345 -150.5t126 -421.5q0 -270 -130.5 -440.5z" />
    <glyph glyph-name="one.oldstyle" 
d="M997 0h-821v162h336v794l-313 -170l-64 148l416 219h154v-991h292v-162z" />
    <glyph glyph-name="two.oldstyle" 
d="M532 1165q175 0 284.5 -97t109.5 -272q0 -233 -312 -468l-198 -150l-31 -22h608v-156h-846v152l332 266q156 124 207 200t51 177q0 149 -83 184t-138 35q-145 0 -270 -123l-94 113q157 161 380 161z" />
    <glyph glyph-name="three.oldstyle" 
d="M416 -72q386 0 385 279q0 221 -328 221h-188v143h190q119 0 190.5 63.5t71.5 170.5q0 209 -243 209q-138 0 -283 -47v149q140 49 268 49q225 0 333 -89.5t108 -241.5q0 -215 -220 -310q115 -18 199 -100t84 -192q0 -215 -151.5 -335t-448.5 -120q-89 0 -219 12v152
q156 -13 252 -13z" />
    <glyph glyph-name="four.oldstyle" 
d="M672 283v696l-455 -696h455zM1073 129h-223v-344h-178v344h-629v154l557 864h250v-864h223v-154z" />
    <glyph glyph-name="five.oldstyle" 
d="M380 -72q202 0 305 82.5t103 209.5q0 128 -87.5 183.5t-251.5 55.5h-248v688h704v-152h-540v-387h114q340 0 418 -131t78 -233q0 -203 -167.5 -335t-440.5 -132q-77 0 -189 8v156q92 -13 202 -13z" />
    <glyph glyph-name="six.oldstyle" 
d="M590 684q-146 0 -283 -88q0 -265 66 -368t196 -103t201.5 75t71.5 203q0 197 -93 239t-159 42zM307 733q145 92 328 92t286 -115.5t103 -297.5t-127 -306t-335 -124t-323.5 146.5t-115.5 432.5q0 345 167 583t564 238h129v-151h-139q-250 0 -385 -136t-148 -331z" />
    <glyph glyph-name="seven.oldstyle" 
d="M117 985v162h884v-162l-548 -1200h-199l569 1200h-706z" />
    <glyph glyph-name="eight.oldstyle" 
d="M553 625q-248 -138 -248 -290q0 -151 100 -179.5t149 -28.5q103 0 183 51t80 144q0 130 -94 198t-170 105zM563 1270q-167 0 -202 -77t-35 -119q0 -82 55 -144t180 -127q117 71 177.5 134.5t60.5 142.5q0 80 -61.5 135t-174.5 55zM1010 338q0 -160 -131 -260.5
t-336 -100.5t-314.5 98.5t-109.5 246.5q0 104 59 198t221 182q-127 65 -189.5 150.5t-62.5 215.5t111 237.5t308 107.5t305 -92.5t108 -239.5q0 -105 -68.5 -196.5t-195.5 -157.5q295 -150 295 -389z" />
    <glyph glyph-name="nine.oldstyle" 
d="M522 463q168 0 295 88q0 379 -104.5 425t-164.5 46q-120 0 -192.5 -74.5t-72.5 -204.5q0 -198 93.5 -239t145.5 -41zM817 414q-135 -92 -322.5 -92t-291 116t-103.5 297t127 305.5t324 124.5q321 0 385.5 -216.5t64.5 -342.5q0 -419 -196 -633q-91 -100 -221.5 -144
t-317.5 -44h-135v143h162q242 0 373.5 130t146.5 325z" />
    <glyph glyph-name="zero.dnom" 
d="M383 386q0 -264 180 -263q125 1 166 147q14 50 14 126q0 263 -180 263q-126 1 -166 -145q-14 -52 -14 -128zM921 401q0 -199 -98 -308t-270 -109q-245 0 -321 218q-26 76 -27 180q0 202 99 309q99 108 269 108q244 0 321 -218q27 -76 27 -180z" />
    <glyph glyph-name="one.dnom" 
d="M879 0h-613v145h238v467l-219 -108l-58 131l312 156h139v-646h201v-145z" />
    <glyph glyph-name="two.dnom" 
d="M651 539q0 110 -150 110q-83 0 -163 -69l-86 106q113 113 302 113q189 -1 259 -139q23 -46 23 -98q0 -98 -54 -171t-170 -155l-114 -82h385v-154h-637v143l217 168q114 89 151 133q37 45 37 95z" />
    <glyph glyph-name="three.dnom" 
d="M862 238q0 -115 -100 -185q-100 -69 -262 -69t-226 16v140q68 -16 182 -16q222 0 222 107t-203 107h-82v129h76q172 0 172 106q0 86 -141 86q-106 0 -209 -32v141q106 31 248 31q141 1 211 -53t71 -142q0 -131 -125 -186q166 -44 166 -180z" />
    <glyph glyph-name="four.dnom" 
d="M627 295v348l-242 -348h242zM920 145h-136v-145h-161v145h-412v144l344 493h229v-487h136v-150z" />
    <glyph glyph-name="five.dnom" 
d="M688 240q0 57 -46 80q-46 22 -159 22h-174v440h514v-153h-358v-152h70q157 -1 235 -43q96 -53 96 -182q0 -130 -106 -199t-281 -69q-69 0 -186 18v145q120 -22 194 -22q201 0 201 115z" />
    <glyph glyph-name="six.dnom" 
d="M570 350q-74 0 -152 -26q0 -108 37 -154t109 -45t111 33q38 32 38 81t-35 80q-34 31 -108 31zM590 487q297 0 297 -244q0 -120 -91 -189q-91 -70 -237 -70q-321 0 -321 350q0 218 103 333t349 115h117v-141h-129q-192 1 -236 -97q-14 -32 -18 -71v-10q75 24 166 24z" />
    <glyph glyph-name="seven.dnom" 
d="M256 629v153h608v-133l-344 -649h-190l342 629h-416z" />
    <glyph glyph-name="eight.dnom" 
d="M416 201q0 -88 148 -88t147 88q1 63 -105 107q-30 12 -63 24q-127 -54 -127 -131zM700 597q0 75 -137 75t-137 -72t156 -127q118 49 118 124zM860 604q0 -117 -143 -190q157 -69 157 -196q0 -118 -86 -176t-233 -58t-225 53t-78 153q0 125 160 205q-146 70 -146 193
q0 93 78 152t220 59q144 0 220 -51t76 -144z" />
    <glyph glyph-name="nine.dnom" 
d="M408 543q0 -107 147 -107q102 0 147 27q0 92 -24 128q-43 66 -119 66q-77 -1 -114 -33t-37 -81zM530 295q-297 0 -297 242q0 120 91 191t241 71t234 -80t84 -279q-1 -258 -145 -362q-109 -78 -322 -78h-125v143h145q196 0 240 94q14 31 20 72l2 8q-66 -22 -168 -22z" />
    <glyph glyph-name="glyph708" 
d="M480 360l246 -390l-80 -70l-246 389zM250 1420h130v-416h370v416h126v-150h210v-100h-210v-100h210v-100h-210v-100h210v-100h-210v-100h210v-100h-210v-150h-130v484h-366v-484h-130v150h-210v100h210v100h-210v100h210v100h-210v100h210v100h-210v100h210v150z
M1006 300v-300h-130v300h130zM250 300v-300h-130v300h130z" />
  </font>
</defs>
</svg>
